Hangar-Regular.ufo
<glyph name="exclam" format="2">
	<advance width="230"/>
	<unicode hex="0021"/>
	<note>
		exclam
	</note>
	<outline>
		<contour>
			<point x="155" y="698" type="line"/>
			<point x="73" y="698" type="line"/>
			<point x="73" y="153" type="line"/>
			<point x="155" y="153" type="line"/>
		</contour>
		<contour>
			<point x="60" y="40" type="curve" smooth="yes"/>
			<point x="60" y="7"/>
			<point x="83" y="-15"/>
			<point x="115" y="-15" type="curve" smooth="yes"/>
			<point x="148" y="-15"/>
			<point x="170" y="7"/>
			<point x="170" y="40" type="curve" smooth="yes"/>
			<point x="170" y="72"/>
			<point x="148" y="95"/>
			<point x="115" y="95" type="curve" smooth="yes"/>
			<point x="83" y="95"/>
			<point x="60" y="72"/>
		</contour>
	</outline>
</glyph>
<glyph name="parenleft" format="2">
	<advance width="314"/>
	<unicode hex="0028"/>
	<note>
		parenleft
	</note>
	<outline>
		<contour>
			<point x="50" y="227" type="curve" smooth="yes"/>
			<point x="50" y="387"/>
			<point x="105" y="569"/>
			<point x="188" y="675" type="curve"/>
			<point x="284" y="675" type="line"/>
			<point x="187" y="545"/>
			<point x="135" y="377"/>
			<point x="135" y="227" type="curve" smooth="yes"/>
			<point x="135" y="77"/>
			<point x="187" y="-91"/>
			<point x="284" y="-221" type="curve"/>
			<point x="188" y="-221" type="line"/>
			<point x="105" y="-115"/>
			<point x="50" y="67"/>
		</contour>
	</outline>
</glyph>
<glyph name="parenright" format="2">
	<advance width="314"/>
	<unicode hex="0029"/>
	<note>
		parenright
	</note>
	<outline>
		<contour>
			<point x="264" y="227" type="curve" smooth="yes"/>
			<point x="264" y="67"/>
			<point x="209" y="-115"/>
			<point x="126" y="-221" type="curve"/>
			<point x="30" y="-221" type="line"/>
			<point x="127" y="-91"/>
			<point x="179" y="77"/>
			<point x="179" y="227" type="curve" smooth="yes"/>
			<point x="179" y="377"/>
			<point x="127" y="545"/>
			<point x="30" y="675" type="curve"/>
			<point x="126" y="675" type="line"/>
			<point x="209" y="569"/>
			<point x="264" y="387"/>
		</contour>
	</outline>
</glyph>
<glyph name="hyphen" format="2">
	<advance width="417"/>
	<unicode hex="002D"/>
	<note>
		hyphen
	</note>
	<outline>
		<contour>
			<point x="50" y="240" type="line"/>
			<point x="367" y="240" type="line"/>
			<point x="367" y="312" type="line"/>
			<point x="50" y="312" type="line"/>
		</contour>
	</outline>
</glyph>
<glyph name="two" format="2">
	<advance width="492"/>
	<unicode hex="0032"/>
	<note>
		two
	</note>
	<outline>
		<contour>
			<point x="31" y="71" type="curve"/>
			<point x="31" y="0" type="line"/>
			<point x="452" y="0" type="line"/>
			<point x="452" y="72" type="line"/>
			<point x="147" y="72" type="line"/>
			<point x="243" y="150"/>
			<point x="444" y="320"/>
			<point x="444" y="489" type="curve" smooth="yes"/>
			<point x="444" y="618"/>
			<point x="356" y="689"/>
			<point x="246" y="689" type="curve" smooth="yes"/>
			<point x="148" y="689"/>
			<point x="73" y="643"/>
			<point x="30" y="538" type="curve"/>
			<point x="98" y="506" type="line"/>
			<point x="130" y="577"/>
			<point x="171" y="617"/>
			<point x="240" y="617" type="curve" smooth="yes"/>
			<point x="306" y="617"/>
			<point x="359" y="573"/>
			<point x="359" y="489" type="curve" smooth="yes"/>
			<point x="359" y="333"/>
			<point x="142" y="160"/>
		</contour>
	</outline>
</glyph>
<glyph name="eight" format="2">
	<advance width="504"/>
	<unicode hex="0038"/>
	<note>
		eight
	</note>
	<outline>
		<contour>
			<point x="252" y="-15" type="curve" smooth="yes"/>
			<point x="135" y="-15"/>
			<point x="40" y="61"/>
			<point x="40" y="194" type="curve" smooth="yes"/>
			<point x="40" y="286"/>
			<point x="92" y="349"/>
			<point x="146" y="377" type="curve"/>
			<point x="93" y="407"/>
			<point x="68" y="462"/>
			<point x="68" y="516" type="curve" smooth="yes"/>
			<point x="68" y="601"/>
			<point x="132" y="689"/>
			<point x="252" y="689" type="curve" smooth="yes"/>
			<point x="372" y="689"/>
			<point x="436" y="601"/>
			<point x="436" y="515" type="curve" smooth="yes"/>
			<point x="436" y="462"/>
			<point x="412" y="407"/>
			<point x="358" y="377" type="curve"/>
			<point x="412" y="349"/>
			<point x="464" y="286"/>
			<point x="464" y="194" type="curve" smooth="yes"/>
			<point x="464" y="61"/>
			<point x="369" y="-15"/>
		</contour>
		<contour>
			<point x="123" y="194" type="curve" smooth="yes"/>
			<point x="123" y="114"/>
			<point x="180" y="57"/>
			<point x="252" y="57" type="curve" smooth="yes"/>
			<point x="324" y="57"/>
			<point x="381" y="114"/>
			<point x="381" y="194" type="curve" smooth="yes"/>
			<point x="381" y="284"/>
			<point x="324" y="340"/>
			<point x="252" y="339" type="curve" smooth="yes"/>
			<point x="180" y="340"/>
			<point x="123" y="284"/>
		</contour>
		<contour>
			<point x="148" y="514" type="curve" smooth="yes"/>
			<point x="148" y="463"/>
			<point x="186" y="411"/>
			<point x="252" y="411" type="curve" smooth="yes"/>
			<point x="318" y="411"/>
			<point x="356" y="463"/>
			<point x="356" y="514" type="curve" smooth="yes"/>
			<point x="356" y="566"/>
			<point x="318" y="617"/>
			<point x="252" y="617" type="curve" smooth="yes"/>
			<point x="186" y="617"/>
			<point x="148" y="566"/>
		</contour>
	</outline>
</glyph>
<glyph name="nine" format="2">
	<advance width="517"/>
	<unicode hex="0039"/>
	<note>
		nine
	</note>
	<outline>
		<contour>
			<point x="383" y="422" type="curve" smooth="yes"/>
			<point x="383" y="409"/>
			<point x="383" y="397"/>
			<point x="382" y="385" type="curve"/>
			<point x="335" y="351"/>
			<point x="286" y="333"/>
			<point x="243" y="333" type="curve" smooth="yes"/>
			<point x="178" y="333"/>
			<point x="128" y="375"/>
			<point x="128" y="466" type="curve" smooth="yes"/>
			<point x="128" y="571"/>
			<point x="165" y="617"/>
			<point x="256" y="617" type="curve" smooth="yes"/>
			<point x="355" y="617"/>
			<point x="383" y="520"/>
		</contour>
		<contour>
			<point x="43" y="466" type="curve" smooth="yes"/>
			<point x="43" y="320"/>
			<point x="135" y="262"/>
			<point x="228" y="262" type="curve" smooth="yes"/>
			<point x="279" y="262"/>
			<point x="330" y="278"/>
			<point x="368" y="306" type="curve"/>
			<point x="342" y="212"/>
			<point x="279" y="123"/>
			<point x="157" y="33" type="curve"/>
			<point x="201" y="-15" type="line"/>
			<point x="306" y="52"/>
			<point x="468" y="176"/>
			<point x="468" y="429" type="curve" smooth="yes"/>
			<point x="468" y="593"/>
			<point x="400" y="689"/>
			<point x="256" y="689" type="curve" smooth="yes"/>
			<point x="167" y="689"/>
			<point x="43" y="653"/>
		</contour>
	</outline>
</glyph>
<glyph name="colon" format="2">
	<advance width="200"/>
	<unicode hex="003A"/>
	<note>
		colon
	</note>
	<outline>
		<contour>
			<point x="45" y="40" type="curve" smooth="yes"/>
			<point x="45" y="7"/>
			<point x="68" y="-15"/>
			<point x="100" y="-15" type="curve" smooth="yes"/>
			<point x="133" y="-15"/>
			<point x="155" y="7"/>
			<point x="155" y="40" type="curve" smooth="yes"/>
			<point x="155" y="72"/>
			<point x="133" y="95"/>
			<point x="100" y="95" type="curve" smooth="yes"/>
			<point x="68" y="95"/>
			<point x="45" y="72"/>
		</contour>
		<contour>
			<point x="45" y="410" type="curve" smooth="yes"/>
			<point x="45" y="377"/>
			<point x="68" y="355"/>
			<point x="100" y="355" type="curve" smooth="yes"/>
			<point x="133" y="355"/>
			<point x="155" y="377"/>
			<point x="155" y="410" type="curve" smooth="yes"/>
			<point x="155" y="442"/>
			<point x="133" y="465"/>
			<point x="100" y="465" type="curve" smooth="yes"/>
			<point x="68" y="465"/>
			<point x="45" y="442"/>
		</contour>
	</outline>
</glyph>
<glyph name="A" format="2">
	<advance width="598"/>
	<unicode hex="0041"/>
	<note>
		A
	</note>
	<outline>
		<contour>
			<point x="405" y="268" type="line"/>
			<point x="182" y="268" type="line"/>
			<point x="292" y="596" type="line"/>
		</contour>
		<contour>
			<point x="243" y="674" type="line"/>
			<point x="14" y="0" type="line"/>
			<point x="93" y="0" type="line"/>
			<point x="158" y="196" type="line"/>
			<point x="430" y="196" type="line"/>
			<point x="497" y="0" type="line"/>
			<point x="584" y="0" type="line"/>
			<point x="345" y="674" type="line"/>
		</contour>
	</outline>
</glyph>
<glyph name="B" format="2">
	<advance width="606"/>
	<unicode hex="0042"/>
	<note>
		B
	</note>
	<outline>
		<contour>
			<point x="142" y="384" type="line"/>
			<point x="142" y="602" type="line"/>
			<point x="334" y="602" type="line" smooth="yes"/>
			<point x="408" y="602"/>
			<point x="458" y="573"/>
			<point x="458" y="498" type="curve" smooth="yes"/>
			<point x="458" y="423"/>
			<point x="408" y="384"/>
			<point x="334" y="384" type="curve" smooth="yes"/>
		</contour>
		<contour>
			<point x="64" y="674" type="line"/>
			<point x="64" y="0" type="line"/>
			<point x="364" y="0" type="line" smooth="yes"/>
			<point x="512" y="0"/>
			<point x="573" y="94"/>
			<point x="573" y="191" type="curve" smooth="yes"/>
			<point x="573" y="278"/>
			<point x="531" y="330"/>
			<point x="456" y="358" type="curve"/>
			<point x="504" y="384"/>
			<point x="543" y="430"/>
			<point x="543" y="498" type="curve" smooth="yes"/>
			<point x="543" y="586"/>
			<point x="482" y="674"/>
			<point x="334" y="674" type="curve" smooth="yes"/>
		</contour>
		<contour>
			<point x="350" y="72" type="curve" smooth="yes"/>
			<point x="142" y="72" type="line"/>
			<point x="142" y="312" type="line"/>
			<point x="350" y="312" type="line" smooth="yes"/>
			<point x="424" y="312"/>
			<point x="488" y="266"/>
			<point x="488" y="191" type="curve" smooth="yes"/>
			<point x="488" y="116"/>
			<point x="434" y="72"/>
		</contour>
	</outline>
</glyph>
<glyph name="C" format="2">
	<advance width="638"/>
	<unicode hex="0043"/>
	<note>
		C
	</note>
	<outline>
		<contour>
			<point x="586" y="463" type="curve"/>
			<point x="508" y="463" type="line"/>
			<point x="508" y="540"/>
			<point x="439" y="614"/>
			<point x="341" y="614" type="curve" smooth="yes"/>
			<point x="245" y="614"/>
			<point x="140" y="558"/>
			<point x="140" y="339" type="curve" smooth="yes"/>
			<point x="140" y="124"/>
			<point x="244" y="59"/>
			<point x="346" y="59" type="curve" smooth="yes"/>
			<point x="407" y="59"/>
			<point x="473" y="84"/>
			<point x="513" y="167" type="curve"/>
			<point x="581" y="136" type="line"/>
			<point x="527" y="25"/>
			<point x="439" y="-16"/>
			<point x="346" y="-16" type="curve" smooth="yes"/>
			<point x="198" y="-16"/>
			<point x="55" y="76"/>
			<point x="55" y="340" type="curve" smooth="yes"/>
			<point x="55" y="604"/>
			<point x="200" y="689"/>
			<point x="328" y="689" type="curve" smooth="yes"/>
			<point x="453" y="689"/>
			<point x="579" y="629"/>
		</contour>
	</outline>
</glyph>
<glyph name="E" format="2">
	<advance width="548"/>
	<unicode hex="0045"/>
	<note>
		E
	</note>
	<outline>
		<contour>
			<point x="142" y="602" type="line"/>
			<point x="504" y="602" type="line"/>
			<point x="504" y="674" type="line"/>
			<point x="64" y="674" type="line"/>
			<point x="64" y="0" type="line"/>
			<point x="506" y="0" type="line"/>
			<point x="506" y="72" type="line"/>
			<point x="142" y="72" type="line"/>
			<point x="142" y="311" type="line"/>
			<point x="481" y="311" type="line"/>
			<point x="481" y="383" type="line"/>
			<point x="142" y="383" type="line"/>
		</contour>
	</outline>
</glyph>
<glyph name="F" format="2">
	<advance width="547"/>
	<unicode hex="0046"/>
	<note>
		F
	</note>
	<outline>
		<contour>
			<point x="142" y="602" type="line"/>
			<point x="504" y="602" type="line"/>
			<point x="504" y="674" type="line"/>
			<point x="64" y="674" type="line"/>
			<point x="64" y="0" type="line"/>
			<point x="142" y="0" type="line"/>
			<point x="142" y="307" type="line"/>
			<point x="481" y="307" type="line"/>
			<point x="481" y="379" type="line"/>
			<point x="142" y="379" type="line"/>
		</contour>
	</outline>
</glyph>
<glyph name="H" format="2">
	<advance width="633"/>
	<unicode hex="0048"/>
	<note>
		H
	</note>
	<outline>
		<contour>
			<point x="142" y="674" type="line"/>
			<point x="64" y="674" type="line"/>
			<point x="64" y="0" type="line"/>
			<point x="142" y="0" type="line"/>
			<point x="142" y="310" type="line"/>
			<point x="491" y="310" type="line"/>
			<point x="491" y="0" type="line"/>
			<point x="569" y="0" type="line"/>
			<point x="569" y="674" type="line"/>
			<point x="491" y="674" type="line"/>
			<point x="491" y="382" type="line"/>
			<point x="142" y="382" type="line"/>
		</contour>
	</outline>
</glyph>
<glyph name="I" format="2">
	<advance width="366"/>
	<unicode hex="0049"/>
	<note>
		I
	</note>
	<outline>
		<contour>
			<point x="306" y="604" type="line"/>
			<point x="306" y="674" type="line"/>
			<point x="60" y="674" type="line"/>
			<point x="60" y="604" type="line"/>
			<point x="144" y="604" type="line"/>
			<point x="144" y="70" type="line"/>
			<point x="60" y="70" type="line"/>
			<point x="60" y="0" type="line"/>
			<point x="306" y="0" type="line"/>
			<point x="306" y="70" type="line"/>
			<point x="222" y="70" type="line"/>
			<point x="222" y="604" type="line"/>
		</contour>
	</outline>
</glyph>
<glyph name="L" format="2">
	<advance width="521"/>
	<unicode hex="004C"/>
	<note>
		L
	</note>
	<outline>
		<contour>
			<point x="506" y="72" type="line"/>
			<point x="142" y="72" type="line"/>
			<point x="142" y="674" type="line"/>
			<point x="64" y="674" type="line"/>
			<point x="64" y="0" type="line"/>
			<point x="506" y="0" type="line"/>
		</contour>
	</outline>
</glyph>
<glyph name="M" format="2">
	<advance width="804"/>
	<unicode hex="004D"/>
	<note>
		M
	</note>
	<outline>
		<contour>
			<point x="740" y="0" type="line"/>
			<point x="740" y="674" type="line"/>
			<point x="652" y="674" type="line"/>
			<point x="402" y="111" type="line"/>
			<point x="152" y="674" type="line"/>
			<point x="64" y="674" type="line"/>
			<point x="64" y="0" type="line"/>
			<point x="142" y="0" type="line"/>
			<point x="142" y="515" type="line"/>
			<point x="371" y="2" type="line"/>
			<point x="431" y="2" type="line"/>
			<point x="662" y="518" type="line"/>
			<point x="662" y="0" type="line"/>
		</contour>
	</outline>
</glyph>
<glyph name="N" format="2">
	<advance width="633"/>
	<unicode hex="004E"/>
	<note>
		N
	</note>
	<outline>
		<contour>
			<point x="491" y="674" type="line"/>
			<point x="491" y="126" type="line"/>
			<point x="152" y="674" type="line"/>
			<point x="64" y="674" type="line"/>
			<point x="64" y="0" type="line"/>
			<point x="142" y="0" type="line"/>
			<point x="142" y="554" type="line"/>
			<point x="486" y="0" type="line"/>
			<point x="569" y="0" type="line"/>
			<point x="569" y="674" type="line"/>
		</contour>
	</outline>
</glyph>
<glyph name="Q" format="2">
	<advance width="685"/>
	<unicode hex="0051"/>
	<note>
		Q
	</note>
	<outline>
		<contour>
			<point x="572" y="110" type="curve"/>
			<point x="607" y="165"/>
			<point x="628" y="241"/>
			<point x="628" y="342" type="curve" smooth="yes"/>
			<point x="628" y="606"/>
			<point x="482" y="689"/>
			<point x="344" y="689" type="curve" smooth="yes"/>
			<point x="206" y="689"/>
			<point x="60" y="606"/>
			<point x="60" y="342" type="curve" smooth="yes"/>
			<point x="60" y="78"/>
			<point x="206" y="-16"/>
			<point x="344" y="-15" type="curve" smooth="yes"/>
			<point x="409" y="-15"/>
			<point x="476" y="6"/>
			<point x="529" y="56" type="curve"/>
			<point x="563" y="14"/>
			<point x="598" y="-15"/>
			<point x="670" y="-15" type="curve"/>
			<point x="670" y="55" type="line"/>
			<point x="621" y="55"/>
			<point x="596" y="77"/>
		</contour>
		<contour>
			<point x="145" y="342" type="curve" smooth="yes"/>
			<point x="145" y="561"/>
			<point x="252" y="614"/>
			<point x="344" y="614" type="curve" smooth="yes"/>
			<point x="436" y="614"/>
			<point x="543" y="561"/>
			<point x="543" y="342" type="curve" smooth="yes"/>
			<point x="543" y="276"/>
			<point x="533" y="225"/>
			<point x="518" y="185" type="curve"/>
			<point x="481" y="223"/>
			<point x="428" y="247"/>
			<point x="340" y="247" type="curve"/>
			<point x="340" y="181" type="line"/>
			<point x="378" y="181"/>
			<point x="439" y="169"/>
			<point x="480" y="121" type="curve"/>
			<point x="441" y="76"/>
			<point x="391" y="60"/>
			<point x="344" y="60" type="curve" smooth="yes"/>
			<point x="252" y="60"/>
			<point x="145" y="123"/>
		</contour>
	</outline>
</glyph>
<glyph name="R" format="2">
	<advance width="578"/>
	<unicode hex="0052"/>
	<note>
		R
	</note>
	<outline>
		<contour>
			<point x="324" y="674" type="curve" smooth="yes"/>
			<point x="64" y="674" type="line"/>
			<point x="64" y="0" type="line"/>
			<point x="142" y="0" type="line"/>
			<point x="142" y="292" type="line"/>
			<point x="291" y="292" type="line"/>
			<point x="459" y="0" type="line"/>
			<point x="554" y="0" type="line"/>
			<point x="377" y="297" type="line"/>
			<point x="480" y="318"/>
			<point x="533" y="403"/>
			<point x="533" y="488" type="curve" smooth="yes"/>
			<point x="533" y="576"/>
			<point x="472" y="674"/>
		</contour>
		<contour>
			<point x="324" y="364" type="curve" smooth="yes"/>
			<point x="142" y="364" type="line"/>
			<point x="142" y="602" type="line"/>
			<point x="324" y="602" type="line" smooth="yes"/>
			<point x="398" y="602"/>
			<point x="448" y="563"/>
			<point x="448" y="488" type="curve" smooth="yes"/>
			<point x="448" y="403"/>
			<point x="398" y="364"/>
		</contour>
	</outline>
</glyph>
<glyph name="U" format="2">
	<advance width="670"/>
	<unicode hex="0055"/>
	<note>
		U
	</note>
	<outline>
		<contour>
			<point x="335" y="-15" type="curve" smooth="yes"/>
			<point x="468" y="-14"/>
			<point x="608" y="64"/>
			<point x="608" y="333" type="curve" smooth="yes"/>
			<point x="608" y="675" type="line"/>
			<point x="530" y="675" type="line"/>
			<point x="530" y="335" type="line" smooth="yes"/>
			<point x="530" y="116"/>
			<point x="423" y="57"/>
			<point x="335" y="57" type="curve" smooth="yes"/>
			<point x="247" y="57"/>
			<point x="140" y="116"/>
			<point x="140" y="335" type="curve" smooth="yes"/>
			<point x="140" y="675" type="line"/>
			<point x="62" y="675" type="line"/>
			<point x="62" y="333" type="line" smooth="yes"/>
			<point x="62" y="64"/>
			<point x="201" y="-16"/>
		</contour>
	</outline>
</glyph>
<glyph name="W" format="2">
	<advance width="884"/>
	<unicode hex="0057"/>
	<note>
		W
	</note>
	<outline>
		<contour>
			<point x="404" y="674" type="line"/>
			<point x="263" y="84" type="line"/>
			<point x="107" y="674" type="line"/>
			<point x="22" y="674" type="line"/>
			<point x="207" y="0" type="line"/>
			<point x="319" y="0" type="line"/>
			<point x="443" y="519" type="line"/>
			<point x="564" y="1" type="line"/>
			<point x="678" y="1" type="line"/>
			<point x="868" y="675" type="line"/>
			<point x="780" y="675" type="line"/>
			<point x="623" y="84" type="line"/>
			<point x="485" y="675" type="line"/>
		</contour>
	</outline>
</glyph>
<glyph name="X" format="2">
	<advance width="601"/>
	<unicode hex="0058"/>
	<note>
		X
	</note>
	<outline>
		<contour>
			<point x="297" y="288" type="line"/>
			<point x="489" y="0" type="line"/>
			<point x="586" y="0" type="line"/>
			<point x="349" y="350" type="line"/>
			<point x="564" y="673" type="line"/>
			<point x="467" y="673" type="line"/>
			<point x="302" y="405" type="line"/>
			<point x="128" y="673" type="line"/>
			<point x="31" y="673" type="line"/>
			<point x="248" y="346" type="line"/>
			<point x="15" y="0" type="line"/>
			<point x="112" y="0" type="line"/>
		</contour>
	</outline>
</glyph>
<glyph name="Y" format="2">
	<advance width="571"/>
	<unicode hex="0059"/>
	<note>
		Y
	</note>
	<outline>
		<contour>
			<point x="334" y="293" type="line"/>
			<point x="561" y="674" type="line"/>
			<point x="471" y="674" type="line"/>
			<point x="293" y="361" type="line"/>
			<point x="120" y="674" type="line"/>
			<point x="30" y="674" type="line"/>
			<point x="254" y="293" type="line"/>
			<point x="254" y="0" type="line"/>
			<point x="334" y="0" type="line"/>
		</contour>
	</outline>
</glyph>
<glyph name="Z" format="2">
	<advance width="557"/>
	<unicode hex="005A"/>
	<note>
		Z
	</note>
	<outline>
		<contour>
			<point x="512" y="0" type="line"/>
			<point x="512" y="76" type="line"/>
			<point x="141" y="76" type="line"/>
			<point x="493" y="581" type="line"/>
			<point x="492" y="674" type="line"/>
			<point x="66" y="674" type="line"/>
			<point x="66" y="598" type="line"/>
			<point x="413" y="598" type="line"/>
			<point x="55" y="85" type="line"/>
			<point x="55" y="0" type="line"/>
		</contour>
	</outline>
</glyph>
<glyph name="a" format="2">
	<advance width="490"/>
	<unicode hex="0061"/>
	<note>
		a
	</note>
	<outline>
		<contour>
			<point x="414" y="142" type="curve" smooth="yes"/>
			<point x="414" y="318" type="line" smooth="yes"/>
			<point x="414" y="438"/>
			<point x="361" y="515"/>
			<point x="235" y="515" type="curve" smooth="yes"/>
			<point x="144" y="515"/>
			<point x="77" y="481"/>
			<point x="62" y="473" type="curve"/>
			<point x="86" y="414" type="line"/>
			<point x="86" y="414"/>
			<point x="154" y="448"/>
			<point x="219" y="448" type="curve" smooth="yes"/>
			<point x="316" y="448"/>
			<point x="338" y="387"/>
			<point x="338" y="285" type="curve" smooth="yes"/>
			<point x="338" y="279" type="line"/>
			<point x="310" y="291"/>
			<point x="259" y="305"/>
			<point x="216" y="305" type="curve" smooth="yes"/>
			<point x="130" y="305"/>
			<point x="42" y="280"/>
			<point x="42" y="143" type="curve" smooth="yes"/>
			<point x="42" y="14"/>
			<point x="131" y="-15"/>
			<point x="200" y="-15" type="curve" smooth="yes"/>
			<point x="257" y="-15"/>
			<point x="315" y="18"/>
			<point x="346" y="60" type="curve"/>
			<point x="362" y="13"/>
			<point x="403" y="-4"/>
			<point x="435" y="-9" type="curve"/>
			<point x="458" y="54" type="line"/>
			<point x="417" y="67"/>
			<point x="414" y="90"/>
		</contour>
		<contour>
			<point x="120" y="148" type="curve" smooth="yes"/>
			<point x="120" y="213"/>
			<point x="143" y="241"/>
			<point x="224" y="241" type="curve" smooth="yes"/>
			<point x="265" y="241"/>
			<point x="297" y="232"/>
			<point x="338" y="219" type="curve"/>
			<point x="338" y="135" type="line"/>
			<point x="302" y="87"/>
			<point x="253" y="52"/>
			<point x="198" y="52" type="curve" smooth="yes"/>
			<point x="148" y="52"/>
			<point x="120" y="82"/>
		</contour>
	</outline>
</glyph>
<glyph name="b" format="2">
	<advance width="544"/>
	<unicode hex="0062"/>
	<note>
		b
	</note>
	<outline>
		<contour>
			<point x="307" y="515" type="curve" smooth="yes"/>
			<point x="230" y="515"/>
			<point x="176" y="475"/>
			<point x="147" y="437" type="curve"/>
			<point x="147" y="700" type="line"/>
			<point x="71" y="700" type="line"/>
			<point x="71" y="99" type="line" smooth="yes"/>
			<point x="71" y="85"/>
			<point x="61" y="73"/>
			<point x="45" y="67" type="curve" smooth="yes"/>
			<point x="40" y="65" type="line"/>
			<point x="55" y="-9" type="line"/>
			<point x="93" y="-8"/>
			<point x="125" y="16"/>
			<point x="133" y="44" type="curve" smooth="yes"/>
			<point x="140" y="68" type="line"/>
			<point x="169" y="22"/>
			<point x="222" y="-15"/>
			<point x="295" y="-15" type="curve" smooth="yes"/>
			<point x="422" y="-15"/>
			<point x="494" y="91"/>
			<point x="494" y="257" type="curve" smooth="yes"/>
			<point x="494" y="402"/>
			<point x="439" y="515"/>
		</contour>
		<contour>
			<point x="147" y="159" type="curve"/>
			<point x="147" y="347" type="line"/>
			<point x="163" y="396"/>
			<point x="226" y="446"/>
			<point x="285" y="446" type="curve" smooth="yes"/>
			<point x="354" y="446"/>
			<point x="413" y="404"/>
			<point x="413" y="257" type="curve" smooth="yes"/>
			<point x="413" y="127"/>
			<point x="369" y="54"/>
			<point x="281" y="54" type="curve" smooth="yes"/>
			<point x="229" y="54"/>
			<point x="169" y="86"/>
		</contour>
	</outline>
</glyph>
<glyph name="c" format="2">
	<advance width="502"/>
	<unicode hex="0063"/>
	<note>
		c
	</note>
	<outline>
		<contour>
			<point x="270" y="-15" type="curve" smooth="yes"/>
			<point x="353" y="-15"/>
			<point x="418" y="25"/>
			<point x="456" y="82" type="curve"/>
			<point x="409" y="122" type="line"/>
			<point x="379" y="82"/>
			<point x="333" y="50"/>
			<point x="273" y="50" type="curve" smooth="yes"/>
			<point x="196" y="50"/>
			<point x="131" y="100"/>
			<point x="131" y="255" type="curve" smooth="yes"/>
			<point x="131" y="410"/>
			<point x="198" y="450"/>
			<point x="269" y="450" type="curve" smooth="yes"/>
			<point x="321" y="450"/>
			<point x="384" y="415"/>
			<point x="389" y="340" type="curve"/>
			<point x="459" y="340" type="line"/>
			<point x="458" y="464"/>
			<point x="366" y="515"/>
			<point x="266" y="515" type="curve" smooth="yes"/>
			<point x="162" y="515"/>
			<point x="52" y="454"/>
			<point x="52" y="255" type="curve" smooth="yes"/>
			<point x="52" y="55"/>
			<point x="159" y="-15"/>
		</contour>
	</outline>
</glyph>
<glyph name="d" format="2">
	<advance width="544"/>
	<unicode hex="0064"/>
	<note>
		d
	</note>
	<outline>
		<contour>
			<point x="489" y="-9" type="curve"/>
			<point x="504" y="65" type="line"/>
			<point x="499" y="67" type="line" smooth="yes"/>
			<point x="483" y="73"/>
			<point x="473" y="85"/>
			<point x="473" y="99" type="curve" smooth="yes"/>
			<point x="473" y="700" type="line"/>
			<point x="397" y="700" type="line"/>
			<point x="397" y="447" type="line"/>
			<point x="373" y="481"/>
			<point x="329" y="515"/>
			<point x="259" y="515" type="curve" smooth="yes"/>
			<point x="127" y="515"/>
			<point x="50" y="402"/>
			<point x="50" y="257" type="curve" smooth="yes"/>
			<point x="50" y="86"/>
			<point x="132" y="-15"/>
			<point x="259" y="-15" type="curve" smooth="yes"/>
			<point x="328" y="-15"/>
			<point x="377" y="21"/>
			<point x="405" y="66" type="curve"/>
			<point x="411" y="44" type="line" smooth="yes"/>
			<point x="419" y="16"/>
			<point x="451" y="-8"/>
		</contour>
		<contour>
			<point x="131" y="257" type="curve" smooth="yes"/>
			<point x="131" y="404"/>
			<point x="209" y="446"/>
			<point x="271" y="446" type="curve" smooth="yes"/>
			<point x="330" y="446"/>
			<point x="383" y="401"/>
			<point x="397" y="347" type="curve"/>
			<point x="397" y="159" type="line"/>
			<point x="375" y="86"/>
			<point x="325" y="54"/>
			<point x="273" y="54" type="curve" smooth="yes"/>
			<point x="189" y="54"/>
			<point x="131" y="120"/>
		</contour>
	</outline>
</glyph>
<glyph name="e" format="2">
	<advance width="518"/>
	<unicode hex="0065"/>
	<note>
		e
	</note>
	<outline>
		<contour>
			<point x="278" y="50" type="curve" smooth="yes"/>
			<point x="198" y="50"/>
			<point x="130" y="95"/>
			<point x="128" y="244" type="curve"/>
			<point x="466" y="244" type="line"/>
			<point x="466" y="446"/>
			<point x="375" y="515"/>
			<point x="261" y="515" type="curve" smooth="yes"/>
			<point x="157" y="515"/>
			<point x="49" y="453"/>
			<point x="49" y="255" type="curve" smooth="yes"/>
			<point x="49" y="55"/>
			<point x="156" y="-15"/>
			<point x="270" y="-15" type="curve" smooth="yes"/>
			<point x="381" y="-15"/>
			<point x="429" y="50"/>
			<point x="455" y="102" type="curve"/>
			<point x="401" y="131" type="line"/>
			<point x="373" y="80"/>
			<point x="329" y="50"/>
		</contour>
		<contour>
			<point x="387" y="307" type="curve"/>
			<point x="131" y="307" type="line"/>
			<point x="145" y="419"/>
			<point x="203" y="450"/>
			<point x="265" y="450" type="curve" smooth="yes"/>
			<point x="293" y="450"/>
			<point x="387" y="430"/>
		</contour>
	</outline>
</glyph>
<glyph name="f" format="2">
	<advance width="319"/>
	<unicode hex="0066"/>
	<note>
		f
	</note>
	<outline>
		<contour>
			<point x="336" y="617" type="curve"/>
			<point x="369" y="673" type="line"/>
			<point x="348" y="688"/>
			<point x="323" y="700"/>
			<point x="276" y="700" type="curve" smooth="yes"/>
			<point x="185" y="700"/>
			<point x="110" y="639"/>
			<point x="110" y="533" type="curve" smooth="yes"/>
			<point x="110" y="500" type="line"/>
			<point x="20" y="500" type="line"/>
			<point x="20" y="435" type="line"/>
			<point x="110" y="435" type="line"/>
			<point x="110" y="0" type="line"/>
			<point x="186" y="0" type="line"/>
			<point x="186" y="435" type="line"/>
			<point x="311" y="435" type="line"/>
			<point x="311" y="500" type="line"/>
			<point x="186" y="500" type="line"/>
			<point x="186" y="534" type="line" smooth="yes"/>
			<point x="186" y="596"/>
			<point x="234" y="631"/>
			<point x="280" y="631" type="curve" smooth="yes"/>
			<point x="304" y="631"/>
			<point x="323" y="624"/>
		</contour>
	</outline>
</glyph>
<glyph name="h" format="2">
	<advance width="530"/>
	<unicode hex="0068"/>
	<note>
		h
	</note>
	<outline>
		<contour>
			<point x="290" y="514" type="curve" smooth="yes"/>
			<point x="233" y="514"/>
			<point x="183" y="491"/>
			<point x="148" y="468" type="curve"/>
			<point x="148" y="700" type="line"/>
			<point x="72" y="700" type="line"/>
			<point x="72" y="0" type="line"/>
			<point x="148" y="0" type="line"/>
			<point x="148" y="393" type="line"/>
			<point x="175" y="415"/>
			<point x="218" y="444"/>
			<point x="272" y="444" type="curve" smooth="yes"/>
			<point x="369" y="444"/>
			<point x="392" y="383"/>
			<point x="391" y="281" type="curve" smooth="yes"/>
			<point x="387" y="0" type="line"/>
			<point x="463" y="0" type="line"/>
			<point x="467" y="317" type="line" smooth="yes"/>
			<point x="469" y="437"/>
			<point x="413" y="514"/>
		</contour>
	</outline>
</glyph>
<glyph name="j" format="2">
	<advance width="234"/>
	<unicode hex="006A"/>
	<note>
		j
	</note>
	<outline>
		<contour>
			<point x="-15" y="-153" type="curve"/>
			<point x="-15" y="-84" type="line"/>
			<point x="47" y="-92"/>
			<point x="81" y="-66"/>
			<point x="81" y="0" type="curve" smooth="yes"/>
			<point x="81" y="500" type="line"/>
			<point x="157" y="500" type="line"/>
			<point x="157" y="0" type="line" smooth="yes"/>
			<point x="157" y="-138"/>
			<point x="62" y="-168"/>
		</contour>
		<contour>
			<point x="64" y="632" type="curve" smooth="yes"/>
			<point x="64" y="599"/>
			<point x="87" y="577"/>
			<point x="119" y="577" type="curve" smooth="yes"/>
			<point x="152" y="577"/>
			<point x="174" y="599"/>
			<point x="174" y="632" type="curve" smooth="yes"/>
			<point x="174" y="664"/>
			<point x="152" y="687"/>
			<point x="119" y="687" type="curve" smooth="yes"/>
			<point x="87" y="687"/>
			<point x="64" y="664"/>
		</contour>
	</outline>
</glyph>
<glyph name="m" format="2">
	<advance width="831"/>
	<unicode hex="006D"/>
	<note>
		m
	</note>
	<outline>
		<contour>
			<point x="591" y="514" type="curve" smooth="yes"/>
			<point x="518" y="514"/>
			<point x="459" y="473"/>
			<point x="428" y="447" type="curve"/>
			<point x="409" y="475"/>
			<point x="366" y="514"/>
			<point x="282" y="514" type="curve" smooth="yes"/>
			<point x="219" y="514"/>
			<point x="167" y="484"/>
			<point x="134" y="459" type="curve"/>
			<point x="114" y="492"/>
			<point x="80" y="504"/>
			<point x="53" y="509" type="curve"/>
			<point x="30" y="446" type="line"/>
			<point x="71" y="433"/>
			<point x="74" y="410"/>
			<point x="74" y="358" type="curve" smooth="yes"/>
			<point x="74" y="0" type="line"/>
			<point x="150" y="0" type="line"/>
			<point x="150" y="394" type="line"/>
			<point x="175" y="416"/>
			<point x="214" y="444"/>
			<point x="264" y="444" type="curve" smooth="yes"/>
			<point x="361" y="444"/>
			<point x="383" y="383"/>
			<point x="383" y="281" type="curve" smooth="yes"/>
			<point x="383" y="0" type="line"/>
			<point x="459" y="0" type="line"/>
			<point x="459" y="394" type="line"/>
			<point x="484" y="416"/>
			<point x="523" y="444"/>
			<point x="573" y="444" type="curve" smooth="yes"/>
			<point x="670" y="444"/>
			<point x="692" y="383"/>
			<point x="692" y="281" type="curve" smooth="yes"/>
			<point x="692" y="0" type="line"/>
			<point x="768" y="0" type="line"/>
			<point x="768" y="317" type="line" smooth="yes"/>
			<point x="768" y="437"/>
			<point x="714" y="514"/>
		</contour>
	</outline>
</glyph>
<glyph name="n" format="2">
	<advance width="534"/>
	<unicode hex="006E"/>
	<note>
		n
	</note>
	<outline>
		<contour>
			<point x="292" y="515" type="curve" smooth="yes"/>
			<point x="227" y="515"/>
			<point x="171" y="483"/>
			<point x="135" y="457" type="curve"/>
			<point x="115" y="491"/>
			<point x="81" y="504"/>
			<point x="53" y="509" type="curve"/>
			<point x="30" y="446" type="line"/>
			<point x="71" y="433"/>
			<point x="74" y="410"/>
			<point x="74" y="358" type="curve" smooth="yes"/>
			<point x="74" y="0" type="line"/>
			<point x="150" y="0" type="line"/>
			<point x="150" y="393" type="line"/>
			<point x="178" y="415"/>
			<point x="223" y="444"/>
			<point x="274" y="444" type="curve" smooth="yes"/>
			<point x="371" y="444"/>
			<point x="393" y="383"/>
			<point x="393" y="281" type="curve" smooth="yes"/>
			<point x="393" y="0" type="line"/>
			<point x="469" y="0" type="line"/>
			<point x="469" y="317" type="line" smooth="yes"/>
			<point x="469" y="437"/>
			<point x="415" y="515"/>
		</contour>
	</outline>
</glyph>
<glyph name="q" format="2">
	<advance width="544"/>
	<unicode hex="0071"/>
	<note>
		q
	</note>
	<outline>
		<contour>
			<point x="504" y="444" type="curve" smooth="yes"/>
			<point x="509" y="446" type="line"/>
			<point x="489" y="509" type="line"/>
			<point x="451" y="504"/>
			<point x="419" y="481"/>
			<point x="410" y="450" type="curve" smooth="yes"/>
			<point x="405" y="432" type="line"/>
			<point x="377" y="477"/>
			<point x="328" y="513"/>
			<point x="259" y="513" type="curve" smooth="yes"/>
			<point x="132" y="513"/>
			<point x="50" y="407"/>
			<point x="50" y="241" type="curve" smooth="yes"/>
			<point x="50" y="96"/>
			<point x="127" y="-17"/>
			<point x="259" y="-17" type="curve" smooth="yes"/>
			<point x="329" y="-17"/>
			<point x="373" y="17"/>
			<point x="397" y="51" type="curve"/>
			<point x="397" y="-195" type="line"/>
			<point x="473" y="-195" type="line"/>
			<point x="473" y="393" type="line" smooth="yes"/>
			<point x="473" y="418"/>
			<point x="480" y="434"/>
		</contour>
		<contour>
			<point x="132" y="241" type="curve" smooth="yes"/>
			<point x="132" y="373"/>
			<point x="188" y="444"/>
			<point x="273" y="444" type="curve" smooth="yes"/>
			<point x="325" y="444"/>
			<point x="375" y="412"/>
			<point x="397" y="339" type="curve"/>
			<point x="397" y="151" type="line"/>
			<point x="383" y="97"/>
			<point x="330" y="52"/>
			<point x="271" y="52" type="curve" smooth="yes"/>
			<point x="209" y="52"/>
			<point x="132" y="92"/>
		</contour>
	</outline>
</glyph>
<glyph name="u" format="2">
	<advance width="539"/>
	<unicode hex="0075"/>
	<note>
		u
	</note>
	<outline>
		<contour>
			<point x="460" y="142" type="curve" smooth="yes"/>
			<point x="460" y="500" type="line"/>
			<point x="384" y="500" type="line"/>
			<point x="384" y="134" type="line"/>
			<point x="348" y="86"/>
			<point x="299" y="51"/>
			<point x="244" y="51" type="curve" smooth="yes"/>
			<point x="184" y="51"/>
			<point x="146" y="81"/>
			<point x="146" y="147" type="curve" smooth="yes"/>
			<point x="146" y="500" type="line"/>
			<point x="70" y="500" type="line"/>
			<point x="70" y="143" type="line" smooth="yes"/>
			<point x="70" y="14"/>
			<point x="167" y="-15"/>
			<point x="246" y="-15" type="curve" smooth="yes"/>
			<point x="303" y="-15"/>
			<point x="361" y="18"/>
			<point x="392" y="60" type="curve"/>
			<point x="408" y="13"/>
			<point x="449" y="-4"/>
			<point x="481" y="-9" type="curve"/>
			<point x="504" y="54" type="line"/>
			<point x="463" y="67"/>
			<point x="460" y="90"/>
		</contour>
	</outline>
</glyph>
<glyph name="x" format="2">
	<advance width="468"/>
	<unicode hex="0078"/>
	<note>
		x
	</note>
	<outline>
		<contour>
			<point x="232" y="196" type="line"/>
			<point x="370" y="0" type="line"/>
			<point x="460" y="0" type="line"/>
			<point x="278" y="259" type="line"/>
			<point x="441" y="500" type="line"/>
			<point x="351" y="500" type="line"/>
			<point x="229" y="324" type="line"/>
			<point x="108" y="500" type="line"/>
			<point x="19" y="500" type="line"/>
			<point x="185" y="259" type="line"/>
			<point x="8" y="0" type="line"/>
			<point x="98" y="0" type="line"/>
		</contour>
	</outline>
</glyph>
<glyph name="y" format="2">
	<advance width="490"/>
	<unicode hex="0079"/>
	<note>
		y
	</note>
	<outline>
		<contour>
			<point x="229" y="-128" type="curve"/>
			<point x="465" y="500" type="line"/>
			<point x="386" y="500" type="line"/>
			<point x="247" y="111" type="line"/>
			<point x="107" y="500" type="line"/>
			<point x="25" y="500" type="line"/>
			<point x="212" y="9" type="line"/>
			<point x="178" y="-80" type="line"/>
			<point x="156" y="-127"/>
			<point x="139" y="-144"/>
			<point x="96" y="-138" type="curve"/>
			<point x="85" y="-198" type="line"/>
			<point x="125" y="-209"/>
			<point x="192" y="-207"/>
		</contour>
	</outline>
</glyph>
<glyph name="exclamdown" format="2">
	<advance width="230"/>
	<unicode hex="00A1"/>
	<note>
		exclamdown
	</note>
	<outline>
		<contour>
			<point x="74" y="358" type="line"/>
			<point x="74" y="-198" type="line"/>
			<point x="156" y="-198" type="line"/>
			<point x="156" y="358" type="line"/>
		</contour>
		<contour>
			<point x="60" y="460" type="curve" smooth="yes"/>
			<point x="60" y="427"/>
			<point x="83" y="405"/>
			<point x="115" y="405" type="curve" smooth="yes"/>
			<point x="148" y="405"/>
			<point x="170" y="427"/>
			<point x="170" y="460" type="curve" smooth="yes"/>
			<point x="170" y="492"/>
			<point x="148" y="515"/>
			<point x="115" y="515" type="curve" smooth="yes"/>
			<point x="83" y="515"/>
			<point x="60" y="492"/>
		</contour>
	</outline>
</glyph>
<glyph name="Aacute" format="2">
	<advance width="598"/>
	<unicode hex="00C1"/>
	<note>
		Aacute
	</note>
	<outline>
		<contour>
			<point x="405" y="268" type="line"/>
			<point x="182" y="268" type="line"/>
			<point x="292" y="596" type="line"/>
		</contour>
		<contour>
			<point x="243" y="674" type="line"/>
			<point x="14" y="0" type="line"/>
			<point x="93" y="0" type="line"/>
			<point x="158" y="196" type="line"/>
			<point x="430" y="196" type="line"/>
			<point x="497" y="0" type="line"/>
			<point x="584" y="0" type="line"/>
			<point x="345" y="674" type="line"/>
		</contour>
		<contour>
			<point x="363" y="937" type="line"/>
			<point x="227" y="773" type="line"/>
			<point x="271" y="732" type="line"/>
			<point x="423" y="882" type="line"/>
		</contour>
	</outline>
</glyph>
<glyph name="Iacute" format="2">
	<advance width="366"/>
	<unicode hex="00CD"/>
	<note>
		Iacute
	</note>
	<outline>
		<contour>
			<point x="306" y="604" type="line"/>
			<point x="306" y="674" type="line"/>
			<point x="60" y="674" type="line"/>
			<point x="60" y="604" type="line"/>
			<point x="144" y="604" type="line"/>
			<point x="144" y="70" type="line"/>
			<point x="60" y="70" type="line"/>
			<point x="60" y="0" type="line"/>
			<point x="306" y="0" type="line"/>
			<point x="306" y="70" type="line"/>
			<point x="222" y="70" type="line"/>
			<point x="222" y="604" type="line"/>
		</contour>
		<contour>
			<point x="241" y="937" type="line"/>
			<point x="105" y="773" type="line"/>
			<point x="149" y="732" type="line"/>
			<point x="301" y="882" type="line"/>
		</contour>
	</outline>
</glyph>
<glyph name="Udieresis" format="2">
	<advance width="670"/>
	<unicode hex="00DC"/>
	<note>
		Udieresis
	</note>
	<outline>
		<contour>
			<point x="335" y="-15" type="curve" smooth="yes"/>
			<point x="468" y="-14"/>
			<point x="608" y="64"/>
			<point x="608" y="333" type="curve" smooth="yes"/>
			<point x="608" y="675" type="line"/>
			<point x="530" y="675" type="line"/>
			<point x="530" y="335" type="line" smooth="yes"/>
			<point x="530" y="116"/>
			<point x="423" y="57"/>
			<point x="335" y="57" type="curve" smooth="yes"/>
			<point x="247" y="57"/>
			<point x="140" y="116"/>
			<point x="140" y="335" type="curve" smooth="yes"/>
			<point x="140" y="675" type="line"/>
			<point x="62" y="675" type="line"/>
			<point x="62" y="333" type="line" smooth="yes"/>
			<point x="62" y="64"/>
			<point x="201" y="-16"/>
		</contour>
		<contour>
			<point x="179" y="828" type="curve" smooth="yes"/>
			<point x="179" y="795"/>
			<point x="202" y="773"/>
			<point x="234" y="773" type="curve" smooth="yes"/>
			<point x="267" y="773"/>
			<point x="289" y="795"/>
			<point x="289" y="828" type="curve" smooth="yes"/>
			<point x="289" y="860"/>
			<point x="267" y="883"/>
			<point x="234" y="883" type="curve" smooth="yes"/>
			<point x="202" y="883"/>
			<point x="179" y="860"/>
		</contour>
		<contour>
			<point x="379" y="828" type="curve" smooth="yes"/>
			<point x="379" y="795"/>
			<point x="402" y="773"/>
			<point x="434" y="773" type="curve" smooth="yes"/>
			<point x="467" y="773"/>
			<point x="489" y="795"/>
			<point x="489" y="828" type="curve" smooth="yes"/>
			<point x="489" y="860"/>
			<point x="467" y="883"/>
			<point x="434" y="883" type="curve" smooth="yes"/>
			<point x="402" y="883"/>
			<point x="379" y="860"/>
		</contour>
	</outline>
</glyph>
<glyph name="eacute" format="2">
	<advance width="528"/>
	<unicode hex="00E9"/>
	<note>
		eacute
	</note>
	<outline>
		<contour>
			<point x="198" y="607" type="line"/>
			<point x="242" y="566" type="line"/>
			<point x="394" y="716" type="line"/>
			<point x="334" y="771" type="line"/>
		</contour>
		<contour>
			<point x="55" y="255" type="curve" smooth="yes"/>
			<point x="55" y="55"/>
			<point x="162" y="-15"/>
			<point x="276" y="-15" type="curve" smooth="yes"/>
			<point x="387" y="-15"/>
			<point x="435" y="50"/>
			<point x="461" y="102" type="curve"/>
			<point x="407" y="131" type="line"/>
			<point x="379" y="80"/>
			<point x="335" y="50"/>
			<point x="284" y="50" type="curve" smooth="yes"/>
			<point x="204" y="50"/>
			<point x="136" y="95"/>
			<point x="134" y="244" type="curve"/>
			<point x="472" y="244" type="line"/>
			<point x="472" y="446"/>
			<point x="381" y="515"/>
			<point x="267" y="515" type="curve" smooth="yes"/>
			<point x="163" y="515"/>
			<point x="55" y="453"/>
		</contour>
		<contour>
			<point x="393" y="307" type="curve"/>
			<point x="137" y="307" type="line"/>
			<point x="151" y="419"/>
			<point x="209" y="450"/>
			<point x="271" y="450" type="curve" smooth="yes"/>
			<point x="299" y="450"/>
			<point x="393" y="430"/>
		</contour>
	</outline>
</glyph>
<glyph name="iacute" format="2">
	<advance width="246"/>
	<unicode hex="00ED"/>
	<note>
		iacute
	</note>
	<outline>
		<contour>
			<point x="236" y="721" type="line"/>
			<point x="176" y="776" type="line"/>
			<point x="40" y="612" type="line"/>
			<point x="84" y="571" type="line"/>
		</contour>
		<contour>
			<point x="163" y="1" type="line"/>
			<point x="87" y="1" type="line"/>
			<point x="87" y="500" type="line"/>
			<point x="163" y="500" type="line"/>
		</contour>
	</outline>
</glyph>
<glyph name="quotedblleft" format="2">
	<advance width="442"/>
	<unicode hex="201C"/>
	<note>
		quotedblleft
	</note>
	<outline>
		<contour>
			<point x="302" y="500" type="line"/>
			<point x="392" y="500" type="line"/>
			<point x="299" y="700" type="line"/>
			<point x="209" y="700" type="line"/>
		</contour>
		<contour>
			<point x="140" y="700" type="line"/>
			<point x="50" y="700" type="line"/>
			<point x="143" y="500" type="line"/>
			<point x="233" y="500" type="line"/>
		</contour>
	</outline>
</glyph>
<glyph name="arrowleft" format="2">
	<advance width="850"/>
	<unicode hex="2190"/>
	<note>
		arrowleft
	</note>
	<outline>
		<contour>
			<point x="100" y="365" type="curve"/>
			<point x="100" y="337" type="line"/>
			<point x="174" y="314"/>
			<point x="333" y="142"/>
			<point x="333" y="98" type="curve"/>
			<point x="431" y="98" type="line"/>
			<point x="431" y="138"/>
			<point x="333" y="266"/>
			<point x="243" y="317" type="curve"/>
			<point x="750" y="301" type="line"/>
			<point x="750" y="401" type="line"/>
			<point x="245" y="387" type="line"/>
			<point x="334" y="438"/>
			<point x="431" y="568"/>
			<point x="431" y="604" type="curve"/>
			<point x="333" y="604" type="line"/>
			<point x="333" y="560"/>
			<point x="174" y="388"/>
		</contour>
	</outline>
</glyph>
<glyph name="arrowup" format="2">
	<advance width="646"/>
	<unicode hex="2191"/>
	<note>
		arrowup
	</note>
	<outline>
		<contour>
			<point x="337" y="673" type="curve"/>
			<point x="309" y="673" type="line"/>
			<point x="286" y="599"/>
			<point x="154" y="438"/>
			<point x="100" y="438" type="curve"/>
			<point x="100" y="342" type="line"/>
			<point x="145" y="342"/>
			<point x="242" y="415"/>
			<point x="288" y="506" type="curve"/>
			<point x="273" y="0" type="line"/>
			<point x="373" y="0" type="line"/>
			<point x="358" y="506" type="line"/>
			<point x="404" y="415"/>
			<point x="497" y="342"/>
			<point x="546" y="342" type="curve"/>
			<point x="546" y="438" type="line"/>
			<point x="492" y="438"/>
			<point x="360" y="599"/>
		</contour>
	</outline>
</glyph>
<glyph name="arrowright" format="2">
	<advance width="850"/>
	<unicode hex="2192"/>
	<note>
		arrowright
	</note>
	<outline>
		<contour>
			<point x="750" y="307" type="curve"/>
			<point x="750" y="335" type="line"/>
			<point x="676" y="358"/>
			<point x="517" y="530"/>
			<point x="517" y="574" type="curve"/>
			<point x="419" y="574" type="line"/>
			<point x="419" y="538"/>
			<point x="516" y="408"/>
			<point x="605" y="357" type="curve"/>
			<point x="100" y="371" type="line"/>
			<point x="100" y="271" type="line"/>
			<point x="607" y="287" type="line"/>
			<point x="517" y="236"/>
			<point x="419" y="108"/>
			<point x="419" y="68" type="curve"/>
			<point x="517" y="68" type="line"/>
			<point x="517" y="112"/>
			<point x="676" y="284"/>
		</contour>
	</outline>
</glyph>
<glyph name="arrowdown" format="2">
	<advance width="646"/>
	<unicode hex="2193"/>
	<note>
		arrowdown
	</note>
	<outline>
		<contour>
			<point x="309" y="0" type="curve"/>
			<point x="337" y="0" type="line"/>
			<point x="360" y="74"/>
			<point x="492" y="235"/>
			<point x="546" y="235" type="curve"/>
			<point x="546" y="331" type="line"/>
			<point x="501" y="331"/>
			<point x="404" y="258"/>
			<point x="358" y="167" type="curve"/>
			<point x="373" y="673" type="line"/>
			<point x="273" y="673" type="line"/>
			<point x="288" y="167" type="line"/>
			<point x="242" y="258"/>
			<point x="149" y="331"/>
			<point x="100" y="331" type="curve"/>
			<point x="100" y="235" type="line"/>
			<point x="154" y="235"/>
			<point x="286" y="74"/>
		</contour>
	</outline>
</glyph>
<glyph name="arrowboth" format="2">
	<advance width="1019"/>
	<unicode hex="2194"/>
	<note>
		arrowboth
	</note>
	<outline>
		<contour>
			<point x="100" y="335" type="curve"/>
			<point x="100" y="307" type="line"/>
			<point x="164" y="284"/>
			<point x="285" y="112"/>
			<point x="285" y="68" type="curve"/>
			<point x="381" y="68" type="line"/>
			<point x="381" y="108"/>
			<point x="286" y="236"/>
			<point x="230" y="287" type="curve"/>
			<point x="789" y="287" type="line"/>
			<point x="733" y="236"/>
			<point x="638" y="108"/>
			<point x="638" y="68" type="curve"/>
			<point x="734" y="68" type="line"/>
			<point x="734" y="112"/>
			<point x="855" y="284"/>
			<point x="919" y="307" type="curve"/>
			<point x="919" y="335" type="line"/>
			<point x="855" y="358"/>
			<point x="734" y="530"/>
			<point x="734" y="574" type="curve"/>
			<point x="638" y="574" type="line"/>
			<point x="638" y="538"/>
			<point x="731" y="409"/>
			<point x="787" y="357" type="curve"/>
			<point x="232" y="357" type="line"/>
			<point x="288" y="409"/>
			<point x="381" y="538"/>
			<point x="381" y="574" type="curve"/>
			<point x="285" y="574" type="line"/>
			<point x="285" y="530"/>
			<point x="164" y="358"/>
		</contour>
	</outline>
</glyph>
<glyph name="arrowupdn" format="2">
	<advance width="600"/>
	<unicode hex="2195"/>
	<note>
		arrowupdn
	</note>
	<outline>
		<contour>
			<point x="323" y="695" type="curve"/>
			<point x="295" y="695" type="line"/>
			<point x="272" y="631"/>
			<point x="120" y="520"/>
			<point x="76" y="520" type="curve"/>
			<point x="76" y="424" type="line"/>
			<point x="116" y="424"/>
			<point x="226" y="510"/>
			<point x="275" y="564" type="curve"/>
			<point x="275" y="117" type="line"/>
			<point x="226" y="171"/>
			<point x="116" y="257"/>
			<point x="76" y="257" type="curve"/>
			<point x="76" y="161" type="line"/>
			<point x="120" y="161"/>
			<point x="272" y="50"/>
			<point x="295" y="-14" type="curve"/>
			<point x="323" y="-14" type="line"/>
			<point x="346" y="50"/>
			<point x="498" y="161"/>
			<point x="542" y="161" type="curve"/>
			<point x="542" y="257" type="line"/>
			<point x="506" y="257"/>
			<point x="394" y="172"/>
			<point x="345" y="118" type="curve"/>
			<point x="345" y="563" type="line"/>
			<point x="394" y="509"/>
			<point x="506" y="424"/>
			<point x="542" y="424" type="curve"/>
			<point x="542" y="520" type="line"/>
			<point x="498" y="520"/>
			<point x="346" y="631"/>
		</contour>
	</outline>
</glyph>
<glyph name="uni2197" format="2">
	<advance width="758"/>
	<unicode hex="2197"/>
	<note>
		uni2197
	</note>
	<outline>
		<contour>
			<point x="658" y="658" type="curve"/>
			<point x="638" y="678" type="line"/>
			<point x="569" y="642"/>
			<point x="382" y="653"/>
			<point x="270" y="675" type="curve"/>
			<point x="267" y="598" type="line"/>
			<point x="357" y="581"/>
			<point x="409" y="575"/>
			<point x="514" y="587" type="curve"/>
			<point x="100" y="173" type="line"/>
			<point x="175" y="104" type="line"/>
			<point x="568" y="557" type="line"/>
			<point x="547" y="453"/>
			<point x="554" y="341"/>
			<point x="575" y="292" type="curve"/>
			<point x="656" y="308" type="line"/>
			<point x="630" y="368"/>
			<point x="622" y="590"/>
		</contour>
	</outline>
</glyph>
<glyph name="uni2B8A" format="2">
	<advance width="878"/>
	<unicode hex="2B8A"/>
	<note>
		uni2B8A
	</note>
	<outline>
		<contour>
			<point x="444" y="689" type="curve" smooth="yes"/>
			<point x="632" y="689"/>
			<point x="778" y="596"/>
			<point x="778" y="342" type="curve" smooth="yes"/>
			<point x="778" y="88"/>
			<point x="631" y="-14"/>
			<point x="444" y="-15" type="curve" smooth="yes"/>
			<point x="256" y="-16"/>
			<point x="100" y="88"/>
			<point x="100" y="342" type="curve" smooth="yes"/>
			<point x="100" y="596"/>
			<point x="256" y="689"/>
		</contour>
		<contour>
			<point x="265" y="205" type="curve" smooth="yes"/>
			<point x="265" y="118" type="line"/>
			<point x="333" y="118" type="line"/>
			<point x="333" y="227" type="line" smooth="yes"/>
			<point x="333" y="319"/>
			<point x="384" y="372"/>
			<point x="450" y="375" type="curve" smooth="yes"/>
			<point x="571" y="381" type="line"/>
			<point x="501" y="349"/>
			<point x="442" y="264"/>
			<point x="442" y="227" type="curve"/>
			<point x="511" y="227" type="line"/>
			<point x="511" y="266"/>
			<point x="625" y="374"/>
			<point x="678" y="390" type="curve"/>
			<point x="678" y="410" type="line"/>
			<point x="625" y="427"/>
			<point x="511" y="534"/>
			<point x="511" y="572" type="curve"/>
			<point x="442" y="572" type="line"/>
			<point x="442" y="538"/>
			<point x="501" y="452"/>
			<point x="571" y="420" type="curve"/>
			<point x="571" y="420"/>
			<point x="499" y="422"/>
			<point x="438" y="422" type="curve" smooth="yes"/>
			<point x="299" y="422"/>
			<point x="265" y="321"/>
		</contour>
	</outline>
</glyph>
<glyph name="uniFF06" format="2">
	<advance width="623"/>
	<unicode hex="FF06"/>
	<note>
		uniFF06
	</note>
	<outline>
		<contour>
			<point x="50" y="181" type="curve" smooth="yes"/>
			<point x="50" y="54"/>
			<point x="155" y="-8"/>
			<point x="257" y="-14" type="curve" smooth="yes"/>
			<point x="265" y="-15"/>
			<point x="273" y="-16"/>
			<point x="281" y="-16" type="curve" smooth="yes"/>
			<point x="361" y="-18"/>
			<point x="431" y="23"/>
			<point x="480" y="88" type="curve"/>
			<point x="519" y="53"/>
			<point x="552" y="24"/>
			<point x="580" y="0" type="curve"/>
			<point x="633" y="53" type="line"/>
			<point x="597" y="85"/>
			<point x="559" y="118"/>
			<point x="520" y="153" type="curve"/>
			<point x="545" y="206"/>
			<point x="560" y="269"/>
			<point x="561" y="334" type="curve"/>
			<point x="485" y="334" type="line"/>
			<point x="485" y="286"/>
			<point x="476" y="242"/>
			<point x="461" y="206" type="curve"/>
			<point x="439" y="225"/>
			<point x="418" y="245"/>
			<point x="396" y="266" type="curve" smooth="yes"/>
			<point x="382" y="279"/>
			<point x="368" y="293"/>
			<point x="352" y="309" type="curve" smooth="yes"/>
			<point x="311" y="349" type="line"/>
			<point x="397" y="390"/>
			<point x="459" y="467"/>
			<point x="459" y="530" type="curve" smooth="yes"/>
			<point x="459" y="605"/>
			<point x="403" y="690"/>
			<point x="273" y="690" type="curve" smooth="yes"/>
			<point x="175" y="690"/>
			<point x="102" y="613"/>
			<point x="102" y="533" type="curve" smooth="yes"/>
			<point x="102" y="484"/>
			<point x="138" y="429"/>
			<point x="187" y="374" type="curve"/>
			<point x="98" y="319"/>
			<point x="50" y="264"/>
		</contour>
		<contour>
			<point x="129" y="179" type="curve" smooth="yes"/>
			<point x="129" y="246"/>
			<point x="173" y="273"/>
			<point x="240" y="316" type="curve"/>
			<point x="288" y="268" type="line" smooth="yes"/>
			<point x="337" y="219"/>
			<point x="382" y="177"/>
			<point x="423" y="139" type="curve"/>
			<point x="383" y="88"/>
			<point x="330" y="59"/>
			<point x="278" y="59" type="curve" smooth="yes"/>
			<point x="273" y="59"/>
			<point x="268" y="59"/>
			<point x="263" y="60" type="curve" smooth="yes"/>
			<point x="196" y="66"/>
			<point x="129" y="115"/>
		</contour>
		<contour>
			<point x="179" y="526" type="curve"/>
			<point x="178" y="573"/>
			<point x="217" y="613"/>
			<point x="265" y="618" type="curve" smooth="yes"/>
			<point x="276" y="619" type="line"/>
			<point x="345" y="619"/>
			<point x="377" y="577"/>
			<point x="377" y="529" type="curve" smooth="yes"/>
			<point x="377" y="478"/>
			<point x="312" y="430"/>
			<point x="257" y="403" type="curve"/>
			<point x="220" y="443"/>
			<point x="187" y="488"/>
		</contour>
	</outline>
</glyph>
<glyph name="A.ss01" format="2">
	<advance width="592"/>
	<note>
		A.ss01
	</note>
	<outline>
		<contour>
			<point x="325" y="642" type="curve" smooth="yes"/>
			<point x="325" y="624"/>
			<point x="309" y="610"/>
			<point x="292" y="610" type="curve" smooth="yes"/>
			<point x="274" y="610"/>
			<point x="260" y="624"/>
			<point x="260" y="642" type="curve" smooth="yes"/>
			<point x="260" y="659"/>
			<point x="274" y="674"/>
			<point x="292" y="674" type="curve" smooth="yes"/>
			<point x="310" y="674"/>
			<point x="325" y="659"/>
		</contour>
		<contour>
			<point x="40" y="33" type="curve" smooth="yes"/>
			<point x="40" y="15"/>
			<point x="53" y="0"/>
			<point x="72" y="1" type="curve" smooth="yes"/>
			<point x="90" y="1"/>
			<point x="105" y="15"/>
			<point x="105" y="33" type="curve" smooth="yes"/>
			<point x="105" y="51"/>
			<point x="90" y="65"/>
			<point x="72" y="65" type="curve" smooth="yes"/>
			<point x="53" y="65"/>
			<point x="40" y="51"/>
		</contour>
		<contour>
			<point x="72" y="120" type="curve" smooth="yes"/>
			<point x="72" y="101"/>
			<point x="85" y="87"/>
			<point x="104" y="87" type="curve" smooth="yes"/>
			<point x="122" y="87"/>
			<point x="137" y="101"/>
			<point x="137" y="120" type="curve" smooth="yes"/>
			<point x="137" y="136"/>
			<point x="122" y="152"/>
			<point x="104" y="152" type="curve" smooth="yes"/>
			<point x="85" y="152"/>
			<point x="72" y="137"/>
		</contour>
		<contour>
			<point x="100" y="207" type="curve" smooth="yes"/>
			<point x="100" y="224"/>
			<point x="113" y="239"/>
			<point x="132" y="239" type="curve" smooth="yes"/>
			<point x="150" y="239"/>
			<point x="165" y="224"/>
			<point x="165" y="207" type="curve" smooth="yes"/>
			<point x="165" y="188"/>
			<point x="150" y="174"/>
			<point x="132" y="174" type="curve" smooth="yes"/>
			<point x="113" y="174"/>
			<point x="100" y="189"/>
		</contour>
		<contour>
			<point x="128" y="294" type="curve" smooth="yes"/>
			<point x="128" y="311"/>
			<point x="142" y="326"/>
			<point x="160" y="326" type="curve" smooth="yes"/>
			<point x="179" y="326"/>
			<point x="193" y="311"/>
			<point x="193" y="294" type="curve" smooth="yes"/>
			<point x="193" y="275"/>
			<point x="178" y="261"/>
			<point x="160" y="261" type="curve" smooth="yes"/>
			<point x="142" y="261"/>
			<point x="128" y="276"/>
		</contour>
		<contour>
			<point x="155" y="381" type="curve" smooth="yes"/>
			<point x="155" y="398"/>
			<point x="168" y="413"/>
			<point x="187" y="413" type="curve" smooth="yes"/>
			<point x="205" y="413"/>
			<point x="220" y="398"/>
			<point x="220" y="381" type="curve" smooth="yes"/>
			<point x="220" y="362"/>
			<point x="205" y="348"/>
			<point x="187" y="348" type="curve" smooth="yes"/>
			<point x="168" y="348"/>
			<point x="155" y="363"/>
		</contour>
		<contour>
			<point x="182" y="228" type="curve" smooth="yes"/>
			<point x="182" y="245"/>
			<point x="195" y="260"/>
			<point x="214" y="260" type="curve" smooth="yes"/>
			<point x="232" y="260"/>
			<point x="247" y="245"/>
			<point x="247" y="228" type="curve" smooth="yes"/>
			<point x="247" y="209"/>
			<point x="231" y="195"/>
			<point x="214" y="195" type="curve" smooth="yes"/>
			<point x="195" y="195"/>
			<point x="182" y="210"/>
		</contour>
		<contour>
			<point x="184" y="468" type="curve" smooth="yes"/>
			<point x="184" y="485"/>
			<point x="198" y="500"/>
			<point x="216" y="500" type="curve" smooth="yes"/>
			<point x="234" y="500"/>
			<point x="249" y="485"/>
			<point x="249" y="468" type="curve" smooth="yes"/>
			<point x="249" y="450"/>
			<point x="233" y="435"/>
			<point x="216" y="435" type="curve" smooth="yes"/>
			<point x="198" y="435"/>
			<point x="184" y="450"/>
		</contour>
		<contour>
			<point x="213" y="559" type="curve" smooth="yes"/>
			<point x="213" y="576"/>
			<point x="226" y="591"/>
			<point x="245" y="591" type="curve" smooth="yes"/>
			<point x="263" y="591"/>
			<point x="278" y="576"/>
			<point x="278" y="559" type="curve" smooth="yes"/>
			<point x="278" y="540"/>
			<point x="263" y="526"/>
			<point x="245" y="526" type="curve" smooth="yes"/>
			<point x="226" y="526"/>
			<point x="213" y="541"/>
		</contour>
		<contour>
			<point x="264" y="228" type="curve" smooth="yes"/>
			<point x="264" y="245"/>
			<point x="277" y="260"/>
			<point x="296" y="260" type="curve" smooth="yes"/>
			<point x="314" y="260"/>
			<point x="329" y="245"/>
			<point x="329" y="228" type="curve" smooth="yes"/>
			<point x="329" y="209"/>
			<point x="313" y="195"/>
			<point x="296" y="195" type="curve" smooth="yes"/>
			<point x="277" y="195"/>
			<point x="264" y="210"/>
		</contour>
		<contour>
			<point x="311" y="559" type="curve" smooth="yes"/>
			<point x="311" y="576"/>
			<point x="324" y="591"/>
			<point x="343" y="591" type="curve" smooth="yes"/>
			<point x="361" y="591"/>
			<point x="376" y="576"/>
			<point x="376" y="559" type="curve" smooth="yes"/>
			<point x="376" y="540"/>
			<point x="361" y="526"/>
			<point x="343" y="526" type="curve" smooth="yes"/>
			<point x="324" y="526"/>
			<point x="311" y="541"/>
		</contour>
		<contour>
			<point x="343" y="468" type="curve" smooth="yes"/>
			<point x="343" y="485"/>
			<point x="357" y="500"/>
			<point x="375" y="500" type="curve" smooth="yes"/>
			<point x="393" y="500"/>
			<point x="408" y="485"/>
			<point x="408" y="468" type="curve" smooth="yes"/>
			<point x="408" y="450"/>
			<point x="392" y="435"/>
			<point x="375" y="435" type="curve" smooth="yes"/>
			<point x="357" y="435"/>
			<point x="343" y="450"/>
		</contour>
		<contour>
			<point x="345" y="228" type="curve" smooth="yes"/>
			<point x="345" y="245"/>
			<point x="358" y="260"/>
			<point x="377" y="260" type="curve" smooth="yes"/>
			<point x="395" y="260"/>
			<point x="410" y="245"/>
			<point x="410" y="228" type="curve" smooth="yes"/>
			<point x="410" y="209"/>
			<point x="394" y="195"/>
			<point x="377" y="195" type="curve" smooth="yes"/>
			<point x="358" y="195"/>
			<point x="345" y="210"/>
		</contour>
		<contour>
			<point x="372" y="381" type="curve" smooth="yes"/>
			<point x="372" y="398"/>
			<point x="385" y="413"/>
			<point x="404" y="413" type="curve" smooth="yes"/>
			<point x="422" y="413"/>
			<point x="437" y="398"/>
			<point x="437" y="381" type="curve" smooth="yes"/>
			<point x="437" y="362"/>
			<point x="422" y="348"/>
			<point x="404" y="348" type="curve" smooth="yes"/>
			<point x="385" y="348"/>
			<point x="372" y="363"/>
		</contour>
		<contour>
			<point x="397" y="294" type="curve" smooth="yes"/>
			<point x="397" y="311"/>
			<point x="411" y="326"/>
			<point x="429" y="326" type="curve" smooth="yes"/>
			<point x="448" y="326"/>
			<point x="462" y="311"/>
			<point x="462" y="294" type="curve" smooth="yes"/>
			<point x="462" y="275"/>
			<point x="447" y="261"/>
			<point x="429" y="261" type="curve" smooth="yes"/>
			<point x="411" y="261"/>
			<point x="397" y="276"/>
		</contour>
		<contour>
			<point x="427" y="207" type="curve" smooth="yes"/>
			<point x="427" y="224"/>
			<point x="440" y="239"/>
			<point x="459" y="239" type="curve" smooth="yes"/>
			<point x="477" y="239"/>
			<point x="492" y="224"/>
			<point x="492" y="207" type="curve" smooth="yes"/>
			<point x="492" y="188"/>
			<point x="476" y="174"/>
			<point x="459" y="174" type="curve" smooth="yes"/>
			<point x="440" y="174"/>
			<point x="427" y="189"/>
		</contour>
		<contour>
			<point x="455" y="120" type="curve" smooth="yes"/>
			<point x="455" y="101"/>
			<point x="468" y="87"/>
			<point x="487" y="87" type="curve" smooth="yes"/>
			<point x="505" y="87"/>
			<point x="520" y="101"/>
			<point x="520" y="120" type="curve" smooth="yes"/>
			<point x="520" y="136"/>
			<point x="505" y="152"/>
			<point x="487" y="152" type="curve" smooth="yes"/>
			<point x="468" y="152"/>
			<point x="455" y="137"/>
		</contour>
		<contour>
			<point x="492" y="29" type="curve" smooth="yes"/>
			<point x="492" y="12"/>
			<point x="504" y="0"/>
			<point x="521" y="0" type="curve" smooth="yes"/>
			<point x="538" y="0"/>
			<point x="552" y="12"/>
			<point x="552" y="29" type="curve" smooth="yes"/>
			<point x="552" y="46"/>
			<point x="538" y="60"/>
			<point x="521" y="60" type="curve" smooth="yes"/>
			<point x="504" y="60"/>
			<point x="492" y="46"/>
		</contour>
	</outline>
</glyph>
<glyph name="E.ss01" format="2">
	<advance width="539"/>
	<note>
		E.ss01
	</note>
	<outline>
		<contour>
			<point x="60" y="641" type="curve" smooth="yes"/>
			<point x="60" y="624"/>
			<point x="75" y="609"/>
			<point x="93" y="609" type="curve" smooth="yes"/>
			<point x="110" y="609"/>
			<point x="125" y="624"/>
			<point x="125" y="641" type="curve" smooth="yes"/>
			<point x="125" y="659"/>
			<point x="110" y="674"/>
			<point x="93" y="674" type="curve" smooth="yes"/>
			<point x="75" y="674"/>
			<point x="60" y="659"/>
		</contour>
		<contour>
			<point x="60" y="32" type="curve" smooth="yes"/>
			<point x="60" y="14"/>
			<point x="75" y="-1"/>
			<point x="93" y="-1" type="curve" smooth="yes"/>
			<point x="110" y="-1"/>
			<point x="125" y="14"/>
			<point x="125" y="32" type="curve" smooth="yes"/>
			<point x="125" y="49"/>
			<point x="110" y="64"/>
			<point x="93" y="64" type="curve" smooth="yes"/>
			<point x="75" y="64"/>
			<point x="60" y="49"/>
		</contour>
		<contour>
			<point x="60" y="120" type="curve" smooth="yes"/>
			<point x="60" y="101"/>
			<point x="75" y="87"/>
			<point x="93" y="87" type="curve" smooth="yes"/>
			<point x="112" y="87"/>
			<point x="125" y="101"/>
			<point x="125" y="120" type="curve" smooth="yes"/>
			<point x="125" y="137"/>
			<point x="112" y="152"/>
			<point x="93" y="152" type="curve" smooth="yes"/>
			<point x="75" y="152"/>
			<point x="60" y="136"/>
		</contour>
		<contour>
			<point x="60" y="207" type="curve" smooth="yes"/>
			<point x="60" y="224"/>
			<point x="75" y="239"/>
			<point x="93" y="239" type="curve" smooth="yes"/>
			<point x="112" y="239"/>
			<point x="125" y="224"/>
			<point x="125" y="207" type="curve" smooth="yes"/>
			<point x="125" y="189"/>
			<point x="112" y="174"/>
			<point x="93" y="174" type="curve" smooth="yes"/>
			<point x="75" y="174"/>
			<point x="60" y="188"/>
		</contour>
		<contour>
			<point x="60" y="294" type="curve" smooth="yes"/>
			<point x="60" y="311"/>
			<point x="74" y="326"/>
			<point x="93" y="326" type="curve" smooth="yes"/>
			<point x="111" y="326"/>
			<point x="125" y="311"/>
			<point x="125" y="294" type="curve" smooth="yes"/>
			<point x="125" y="276"/>
			<point x="111" y="261"/>
			<point x="93" y="261" type="curve" smooth="yes"/>
			<point x="75" y="261"/>
			<point x="60" y="275"/>
		</contour>
		<contour>
			<point x="60" y="381" type="curve" smooth="yes"/>
			<point x="60" y="398"/>
			<point x="75" y="413"/>
			<point x="93" y="413" type="curve" smooth="yes"/>
			<point x="112" y="413"/>
			<point x="125" y="398"/>
			<point x="125" y="381" type="curve" smooth="yes"/>
			<point x="125" y="363"/>
			<point x="112" y="348"/>
			<point x="93" y="348" type="curve" smooth="yes"/>
			<point x="75" y="348"/>
			<point x="60" y="362"/>
		</contour>
		<contour>
			<point x="60" y="468" type="curve" smooth="yes"/>
			<point x="60" y="485"/>
			<point x="75" y="500"/>
			<point x="93" y="500" type="curve" smooth="yes"/>
			<point x="111" y="500"/>
			<point x="125" y="485"/>
			<point x="125" y="468" type="curve" smooth="yes"/>
			<point x="125" y="450"/>
			<point x="111" y="435"/>
			<point x="93" y="435" type="curve" smooth="yes"/>
			<point x="76" y="435"/>
			<point x="60" y="450"/>
		</contour>
		<contour>
			<point x="60" y="555" type="curve" smooth="yes"/>
			<point x="60" y="572"/>
			<point x="75" y="587"/>
			<point x="93" y="587" type="curve" smooth="yes"/>
			<point x="112" y="587"/>
			<point x="125" y="572"/>
			<point x="125" y="555" type="curve" smooth="yes"/>
			<point x="125" y="537"/>
			<point x="112" y="522"/>
			<point x="93" y="522" type="curve" smooth="yes"/>
			<point x="75" y="522"/>
			<point x="60" y="536"/>
		</contour>
		<contour>
			<point x="142" y="30" type="curve" smooth="yes"/>
			<point x="142" y="14"/>
			<point x="156" y="0"/>
			<point x="172" y="0" type="curve" smooth="yes"/>
			<point x="188" y="0"/>
			<point x="202" y="14"/>
			<point x="202" y="30" type="curve" smooth="yes"/>
			<point x="202" y="46"/>
			<point x="188" y="60"/>
			<point x="172" y="60" type="curve" smooth="yes"/>
			<point x="156" y="60"/>
			<point x="142" y="46"/>
		</contour>
		<contour>
			<point x="142" y="644" type="curve" smooth="yes"/>
			<point x="142" y="628"/>
			<point x="156" y="614"/>
			<point x="172" y="614" type="curve" smooth="yes"/>
			<point x="188" y="614"/>
			<point x="202" y="628"/>
			<point x="202" y="644" type="curve" smooth="yes"/>
			<point x="202" y="660"/>
			<point x="188" y="674"/>
			<point x="172" y="674" type="curve" smooth="yes"/>
			<point x="156" y="674"/>
			<point x="142" y="660"/>
		</contour>
		<contour>
			<point x="147" y="348" type="curve" smooth="yes"/>
			<point x="147" y="332"/>
			<point x="161" y="318"/>
			<point x="177" y="318" type="curve" smooth="yes"/>
			<point x="193" y="318"/>
			<point x="207" y="332"/>
			<point x="207" y="348" type="curve" smooth="yes"/>
			<point x="207" y="365"/>
			<point x="193" y="378"/>
			<point x="177" y="378" type="curve" smooth="yes"/>
			<point x="161" y="378"/>
			<point x="147" y="364"/>
		</contour>
		<contour>
			<point x="219" y="30" type="curve" smooth="yes"/>
			<point x="219" y="14"/>
			<point x="233" y="0"/>
			<point x="249" y="0" type="curve" smooth="yes"/>
			<point x="265" y="0"/>
			<point x="279" y="14"/>
			<point x="279" y="30" type="curve" smooth="yes"/>
			<point x="279" y="47"/>
			<point x="265" y="60"/>
			<point x="249" y="60" type="curve" smooth="yes"/>
			<point x="233" y="60"/>
			<point x="219" y="46"/>
		</contour>
		<contour>
			<point x="219" y="644" type="curve" smooth="yes"/>
			<point x="219" y="628"/>
			<point x="233" y="614"/>
			<point x="249" y="614" type="curve" smooth="yes"/>
			<point x="265" y="614"/>
			<point x="279" y="628"/>
			<point x="279" y="644" type="curve" smooth="yes"/>
			<point x="279" y="661"/>
			<point x="265" y="674"/>
			<point x="249" y="674" type="curve" smooth="yes"/>
			<point x="233" y="674"/>
			<point x="219" y="660"/>
		</contour>
		<contour>
			<point x="229" y="348" type="curve" smooth="yes"/>
			<point x="229" y="332"/>
			<point x="243" y="318"/>
			<point x="259" y="318" type="curve" smooth="yes"/>
			<point x="275" y="318"/>
			<point x="289" y="332"/>
			<point x="289" y="348" type="curve" smooth="yes"/>
			<point x="289" y="364"/>
			<point x="275" y="378"/>
			<point x="259" y="378" type="curve" smooth="yes"/>
			<point x="243" y="378"/>
			<point x="229" y="364"/>
		</contour>
		<contour>
			<point x="295" y="30" type="curve" smooth="yes"/>
			<point x="295" y="14"/>
			<point x="309" y="0"/>
			<point x="325" y="0" type="curve" smooth="yes"/>
			<point x="341" y="0"/>
			<point x="355" y="14"/>
			<point x="355" y="30" type="curve" smooth="yes"/>
			<point x="355" y="46"/>
			<point x="341" y="60"/>
			<point x="325" y="60" type="curve" smooth="yes"/>
			<point x="309" y="60"/>
			<point x="295" y="46"/>
		</contour>
		<contour>
			<point x="295" y="644" type="curve" smooth="yes"/>
			<point x="295" y="628"/>
			<point x="309" y="614"/>
			<point x="325" y="614" type="curve" smooth="yes"/>
			<point x="341" y="614"/>
			<point x="355" y="628"/>
			<point x="355" y="644" type="curve" smooth="yes"/>
			<point x="355" y="660"/>
			<point x="341" y="674"/>
			<point x="325" y="674" type="curve" smooth="yes"/>
			<point x="309" y="674"/>
			<point x="295" y="660"/>
		</contour>
		<contour>
			<point x="311" y="348" type="curve" smooth="yes"/>
			<point x="311" y="332"/>
			<point x="325" y="318"/>
			<point x="341" y="318" type="curve" smooth="yes"/>
			<point x="357" y="318"/>
			<point x="371" y="332"/>
			<point x="371" y="348" type="curve" smooth="yes"/>
			<point x="371" y="364"/>
			<point x="357" y="378"/>
			<point x="341" y="378" type="curve" smooth="yes"/>
			<point x="325" y="378"/>
			<point x="311" y="364"/>
		</contour>
		<contour>
			<point x="372" y="30" type="curve" smooth="yes"/>
			<point x="372" y="14"/>
			<point x="386" y="0"/>
			<point x="402" y="0" type="curve" smooth="yes"/>
			<point x="418" y="0"/>
			<point x="432" y="14"/>
			<point x="432" y="30" type="curve" smooth="yes"/>
			<point x="432" y="46"/>
			<point x="418" y="60"/>
			<point x="402" y="60" type="curve" smooth="yes"/>
			<point x="386" y="60"/>
			<point x="372" y="46"/>
		</contour>
		<contour>
			<point x="372" y="644" type="curve" smooth="yes"/>
			<point x="372" y="628"/>
			<point x="386" y="614"/>
			<point x="402" y="614" type="curve" smooth="yes"/>
			<point x="418" y="614"/>
			<point x="432" y="628"/>
			<point x="432" y="644" type="curve" smooth="yes"/>
			<point x="432" y="660"/>
			<point x="418" y="674"/>
			<point x="402" y="674" type="curve" smooth="yes"/>
			<point x="386" y="674"/>
			<point x="372" y="660"/>
		</contour>
		<contour>
			<point x="393" y="348" type="curve" smooth="yes"/>
			<point x="393" y="332"/>
			<point x="407" y="318"/>
			<point x="423" y="318" type="curve" smooth="yes"/>
			<point x="439" y="318"/>
			<point x="453" y="332"/>
			<point x="453" y="348" type="curve" smooth="yes"/>
			<point x="453" y="364"/>
			<point x="439" y="378"/>
			<point x="423" y="378" type="curve" smooth="yes"/>
			<point x="407" y="378"/>
			<point x="393" y="364"/>
		</contour>
		<contour>
			<point x="449" y="30" type="curve" smooth="yes"/>
			<point x="449" y="14"/>
			<point x="463" y="0"/>
			<point x="479" y="0" type="curve" smooth="yes"/>
			<point x="495" y="0"/>
			<point x="509" y="14"/>
			<point x="509" y="30" type="curve" smooth="yes"/>
			<point x="509" y="46"/>
			<point x="495" y="60"/>
			<point x="479" y="60" type="curve" smooth="yes"/>
			<point x="463" y="60"/>
			<point x="449" y="46"/>
		</contour>
		<contour>
			<point x="449" y="644" type="curve" smooth="yes"/>
			<point x="449" y="628"/>
			<point x="463" y="614"/>
			<point x="479" y="614" type="curve" smooth="yes"/>
			<point x="495" y="614"/>
			<point x="509" y="628"/>
			<point x="509" y="644" type="curve" smooth="yes"/>
			<point x="509" y="660"/>
			<point x="495" y="674"/>
			<point x="479" y="674" type="curve" smooth="yes"/>
			<point x="463" y="674"/>
			<point x="449" y="660"/>
		</contour>
	</outline>
</glyph>
<glyph name="G.ss01" format="2">
	<advance width="613"/>
	<note>
		G.ss01
	</note>
	<outline>
		<contour>
			<point x="258" y="659" type="curve" smooth="yes"/>
			<point x="258" y="676"/>
			<point x="271" y="689"/>
			<point x="288" y="689" type="curve" smooth="yes"/>
			<point x="305" y="689"/>
			<point x="318" y="676"/>
			<point x="318" y="659" type="curve" smooth="yes"/>
			<point x="318" y="642"/>
			<point x="305" y="629"/>
			<point x="288" y="629" type="curve" smooth="yes"/>
			<point x="271" y="629"/>
			<point x="258" y="642"/>
		</contour>
		<contour>
			<point x="50" y="291" type="curve" smooth="yes"/>
			<point x="50" y="272"/>
			<point x="66" y="256"/>
			<point x="85" y="256" type="curve" smooth="yes"/>
			<point x="104" y="256"/>
			<point x="120" y="272"/>
			<point x="120" y="291" type="curve" smooth="yes"/>
			<point x="120" y="310"/>
			<point x="104" y="326"/>
			<point x="85" y="326" type="curve" smooth="yes"/>
			<point x="66" y="326"/>
			<point x="50" y="310"/>
		</contour>
		<contour>
			<point x="50" y="385" type="curve" smooth="yes"/>
			<point x="50" y="366"/>
			<point x="66" y="350"/>
			<point x="85" y="350" type="curve" smooth="yes"/>
			<point x="104" y="350"/>
			<point x="120" y="366"/>
			<point x="120" y="385" type="curve" smooth="yes"/>
			<point x="120" y="404"/>
			<point x="104" y="420"/>
			<point x="85" y="420" type="curve" smooth="yes"/>
			<point x="66" y="420"/>
			<point x="50" y="404"/>
		</contour>
		<contour>
			<point x="67" y="198" type="curve" smooth="yes"/>
			<point x="67" y="179"/>
			<point x="81" y="164"/>
			<point x="101" y="164" type="curve" smooth="yes"/>
			<point x="121" y="164"/>
			<point x="137" y="179"/>
			<point x="137" y="198" type="curve" smooth="yes"/>
			<point x="137" y="217"/>
			<point x="121" y="233"/>
			<point x="101" y="233" type="curve" smooth="yes"/>
			<point x="81" y="233"/>
			<point x="67" y="217"/>
		</contour>
		<contour>
			<point x="67" y="478" type="curve" smooth="yes"/>
			<point x="67" y="459"/>
			<point x="81" y="443"/>
			<point x="101" y="443" type="curve" smooth="yes"/>
			<point x="121" y="443"/>
			<point x="137" y="459"/>
			<point x="137" y="478" type="curve" smooth="yes"/>
			<point x="137" y="497"/>
			<point x="121" y="512"/>
			<point x="101" y="512" type="curve" smooth="yes"/>
			<point x="81" y="512"/>
			<point x="67" y="497"/>
		</contour>
		<contour>
			<point x="107" y="115" type="curve" smooth="yes"/>
			<point x="107" y="98"/>
			<point x="122" y="82"/>
			<point x="140" y="82" type="curve" smooth="yes"/>
			<point x="158" y="82"/>
			<point x="173" y="98"/>
			<point x="173" y="115" type="curve" smooth="yes"/>
			<point x="173" y="133"/>
			<point x="158" y="148"/>
			<point x="140" y="148" type="curve" smooth="yes"/>
			<point x="122" y="148"/>
			<point x="107" y="133"/>
		</contour>
		<contour>
			<point x="107" y="561" type="curve" smooth="yes"/>
			<point x="107" y="543"/>
			<point x="122" y="528"/>
			<point x="140" y="528" type="curve" smooth="yes"/>
			<point x="158" y="528"/>
			<point x="173" y="543"/>
			<point x="173" y="561" type="curve" smooth="yes"/>
			<point x="173" y="578"/>
			<point x="158" y="594"/>
			<point x="140" y="594" type="curve" smooth="yes"/>
			<point x="122" y="594"/>
			<point x="107" y="578"/>
		</contour>
		<contour>
			<point x="172" y="50" type="curve" smooth="yes"/>
			<point x="172" y="69"/>
			<point x="186" y="83"/>
			<point x="205" y="83" type="curve" smooth="yes"/>
			<point x="223" y="83"/>
			<point x="238" y="69"/>
			<point x="238" y="50" type="curve" smooth="yes"/>
			<point x="238" y="32"/>
			<point x="223" y="17"/>
			<point x="205" y="17" type="curve" smooth="yes"/>
			<point x="186" y="17"/>
			<point x="172" y="32"/>
		</contour>
		<contour>
			<point x="172" y="626" type="curve" smooth="yes"/>
			<point x="172" y="644"/>
			<point x="186" y="659"/>
			<point x="205" y="659" type="curve" smooth="yes"/>
			<point x="223" y="659"/>
			<point x="238" y="644"/>
			<point x="238" y="626" type="curve" smooth="yes"/>
			<point x="238" y="607"/>
			<point x="223" y="593"/>
			<point x="205" y="593" type="curve" smooth="yes"/>
			<point x="186" y="593"/>
			<point x="172" y="607"/>
		</contour>
		<contour>
			<point x="258" y="17" type="curve" smooth="yes"/>
			<point x="258" y="34"/>
			<point x="271" y="47"/>
			<point x="288" y="47" type="curve" smooth="yes"/>
			<point x="305" y="47"/>
			<point x="318" y="34"/>
			<point x="318" y="17" type="curve" smooth="yes"/>
			<point x="318" y="0"/>
			<point x="305" y="-13"/>
			<point x="288" y="-13" type="curve" smooth="yes"/>
			<point x="271" y="-13"/>
			<point x="258" y="0"/>
		</contour>
		<contour>
			<point x="325" y="288" type="curve" smooth="yes"/>
			<point x="325" y="273"/>
			<point x="339" y="258"/>
			<point x="355" y="258" type="curve" smooth="yes"/>
			<point x="371" y="258"/>
			<point x="385" y="273"/>
			<point x="385" y="288" type="curve" smooth="yes"/>
			<point x="385" y="303"/>
			<point x="371" y="318"/>
			<point x="355" y="318" type="curve" smooth="yes"/>
			<point x="339" y="318"/>
			<point x="325" y="304"/>
		</contour>
		<contour>
			<point x="342" y="17" type="curve" smooth="yes"/>
			<point x="342" y="34"/>
			<point x="355" y="47"/>
			<point x="372" y="47" type="curve" smooth="yes"/>
			<point x="389" y="47"/>
			<point x="402" y="34"/>
			<point x="402" y="17" type="curve" smooth="yes"/>
			<point x="402" y="0"/>
			<point x="389" y="-13"/>
			<point x="372" y="-13" type="curve" smooth="yes"/>
			<point x="355" y="-13"/>
			<point x="342" y="0"/>
		</contour>
		<contour>
			<point x="342" y="659" type="curve" smooth="yes"/>
			<point x="342" y="676"/>
			<point x="355" y="689"/>
			<point x="372" y="689" type="curve" smooth="yes"/>
			<point x="389" y="689"/>
			<point x="402" y="676"/>
			<point x="402" y="659" type="curve" smooth="yes"/>
			<point x="402" y="642"/>
			<point x="389" y="629"/>
			<point x="372" y="629" type="curve" smooth="yes"/>
			<point x="355" y="629"/>
			<point x="342" y="642"/>
		</contour>
		<contour>
			<point x="407" y="288" type="curve" smooth="yes"/>
			<point x="407" y="273"/>
			<point x="421" y="258"/>
			<point x="437" y="258" type="curve" smooth="yes"/>
			<point x="453" y="258"/>
			<point x="467" y="273"/>
			<point x="467" y="288" type="curve" smooth="yes"/>
			<point x="467" y="303"/>
			<point x="453" y="318"/>
			<point x="437" y="318" type="curve" smooth="yes"/>
			<point x="421" y="318"/>
			<point x="407" y="304"/>
		</contour>
		<contour>
			<point x="422" y="629" type="curve" smooth="yes"/>
			<point x="422" y="645"/>
			<point x="436" y="659"/>
			<point x="452" y="659" type="curve" smooth="yes"/>
			<point x="469" y="659"/>
			<point x="482" y="645"/>
			<point x="482" y="629" type="curve" smooth="yes"/>
			<point x="482" y="612"/>
			<point x="469" y="599"/>
			<point x="452" y="599" type="curve" smooth="yes"/>
			<point x="436" y="599"/>
			<point x="422" y="612"/>
		</contour>
		<contour>
			<point x="423" y="50" type="curve" smooth="yes"/>
			<point x="423" y="68"/>
			<point x="438" y="82"/>
			<point x="455" y="82" type="curve" smooth="yes"/>
			<point x="473" y="82"/>
			<point x="487" y="68"/>
			<point x="487" y="50" type="curve" smooth="yes"/>
			<point x="487" y="33"/>
			<point x="473" y="18"/>
			<point x="455" y="18" type="curve" smooth="yes"/>
			<point x="438" y="18"/>
			<point x="423" y="33"/>
		</contour>
		<contour>
			<point x="482" y="488" type="curve" smooth="yes"/>
			<point x="482" y="472"/>
			<point x="496" y="458"/>
			<point x="512" y="458" type="curve" smooth="yes"/>
			<point x="528" y="458"/>
			<point x="542" y="472"/>
			<point x="542" y="488" type="curve" smooth="yes"/>
			<point x="542" y="503"/>
			<point x="528" y="518"/>
			<point x="512" y="518" type="curve" smooth="yes"/>
			<point x="496" y="518"/>
			<point x="482" y="503"/>
		</contour>
		<contour>
			<point x="482" y="570" type="curve" smooth="yes"/>
			<point x="482" y="554"/>
			<point x="496" y="540"/>
			<point x="512" y="540" type="curve" smooth="yes"/>
			<point x="528" y="540"/>
			<point x="542" y="554"/>
			<point x="542" y="570" type="curve" smooth="yes"/>
			<point x="542" y="585"/>
			<point x="528" y="600"/>
			<point x="512" y="600" type="curve" smooth="yes"/>
			<point x="496" y="600"/>
			<point x="482" y="585"/>
		</contour>
		<contour>
			<point x="489" y="111" type="curve" smooth="yes"/>
			<point x="489" y="94"/>
			<point x="504" y="78"/>
			<point x="522" y="78" type="curve" smooth="yes"/>
			<point x="540" y="78"/>
			<point x="555" y="94"/>
			<point x="555" y="111" type="curve" smooth="yes"/>
			<point x="555" y="128"/>
			<point x="539" y="144"/>
			<point x="522" y="144" type="curve" smooth="yes"/>
			<point x="504" y="144"/>
			<point x="489" y="129"/>
		</contour>
		<contour>
			<point x="489" y="198" type="curve" smooth="yes"/>
			<point x="489" y="181"/>
			<point x="504" y="165"/>
			<point x="522" y="165" type="curve" smooth="yes"/>
			<point x="540" y="165"/>
			<point x="555" y="181"/>
			<point x="555" y="198" type="curve" smooth="yes"/>
			<point x="555" y="215"/>
			<point x="540" y="231"/>
			<point x="522" y="231" type="curve" smooth="yes"/>
			<point x="504" y="231"/>
			<point x="489" y="216"/>
		</contour>
		<contour>
			<point x="489" y="285" type="curve" smooth="yes"/>
			<point x="489" y="268"/>
			<point x="504" y="252"/>
			<point x="522" y="252" type="curve" smooth="yes"/>
			<point x="540" y="252"/>
			<point x="555" y="268"/>
			<point x="555" y="285" type="curve" smooth="yes"/>
			<point x="555" y="302"/>
			<point x="540" y="318"/>
			<point x="522" y="318" type="curve" smooth="yes"/>
			<point x="504" y="318"/>
			<point x="489" y="303"/>
		</contour>
	</outline>
</glyph>
<glyph name="I.ss01" format="2">
	<advance width="339"/>
	<note>
		I.ss01
	</note>
	<outline>
		<contour>
			<point x="60" y="644" type="curve" smooth="yes"/>
			<point x="60" y="628"/>
			<point x="74" y="614"/>
			<point x="90" y="614" type="curve" smooth="yes"/>
			<point x="106" y="614"/>
			<point x="120" y="628"/>
			<point x="120" y="644" type="curve" smooth="yes"/>
			<point x="120" y="660"/>
			<point x="106" y="674"/>
			<point x="90" y="674" type="curve" smooth="yes"/>
			<point x="74" y="674"/>
			<point x="60" y="660"/>
		</contour>
		<contour>
			<point x="60" y="30" type="curve" smooth="yes"/>
			<point x="60" y="14"/>
			<point x="74" y="0"/>
			<point x="90" y="0" type="curve" smooth="yes"/>
			<point x="106" y="0"/>
			<point x="120" y="14"/>
			<point x="120" y="30" type="curve" smooth="yes"/>
			<point x="120" y="46"/>
			<point x="106" y="60"/>
			<point x="90" y="60" type="curve" smooth="yes"/>
			<point x="74" y="60"/>
			<point x="60" y="46"/>
		</contour>
		<contour>
			<point x="142" y="33" type="curve" smooth="yes"/>
			<point x="142" y="15"/>
			<point x="157" y="1"/>
			<point x="175" y="0" type="curve" smooth="yes"/>
			<point x="194" y="0"/>
			<point x="207" y="15"/>
			<point x="207" y="33" type="curve" smooth="yes"/>
			<point x="207" y="51"/>
			<point x="194" y="65"/>
			<point x="175" y="65" type="curve" smooth="yes"/>
			<point x="157" y="65"/>
			<point x="142" y="51"/>
		</contour>
		<contour>
			<point x="142" y="120" type="curve" smooth="yes"/>
			<point x="142" y="101"/>
			<point x="157" y="87"/>
			<point x="175" y="87" type="curve" smooth="yes"/>
			<point x="194" y="87"/>
			<point x="207" y="101"/>
			<point x="207" y="120" type="curve" smooth="yes"/>
			<point x="207" y="137"/>
			<point x="194" y="152"/>
			<point x="175" y="152" type="curve" smooth="yes"/>
			<point x="157" y="152"/>
			<point x="142" y="136"/>
		</contour>
		<contour>
			<point x="142" y="207" type="curve" smooth="yes"/>
			<point x="142" y="224"/>
			<point x="157" y="239"/>
			<point x="175" y="239" type="curve" smooth="yes"/>
			<point x="194" y="239"/>
			<point x="207" y="224"/>
			<point x="207" y="207" type="curve" smooth="yes"/>
			<point x="207" y="189"/>
			<point x="194" y="174"/>
			<point x="175" y="174" type="curve" smooth="yes"/>
			<point x="157" y="174"/>
			<point x="142" y="188"/>
		</contour>
		<contour>
			<point x="142" y="294" type="curve" smooth="yes"/>
			<point x="142" y="311"/>
			<point x="156" y="326"/>
			<point x="175" y="326" type="curve" smooth="yes"/>
			<point x="193" y="326"/>
			<point x="207" y="311"/>
			<point x="207" y="294" type="curve" smooth="yes"/>
			<point x="207" y="276"/>
			<point x="193" y="261"/>
			<point x="175" y="261" type="curve" smooth="yes"/>
			<point x="157" y="261"/>
			<point x="142" y="275"/>
		</contour>
		<contour>
			<point x="142" y="381" type="curve" smooth="yes"/>
			<point x="142" y="398"/>
			<point x="157" y="413"/>
			<point x="175" y="413" type="curve" smooth="yes"/>
			<point x="194" y="413"/>
			<point x="207" y="398"/>
			<point x="207" y="381" type="curve" smooth="yes"/>
			<point x="207" y="363"/>
			<point x="194" y="348"/>
			<point x="175" y="348" type="curve" smooth="yes"/>
			<point x="157" y="348"/>
			<point x="142" y="362"/>
		</contour>
		<contour>
			<point x="142" y="468" type="curve" smooth="yes"/>
			<point x="142" y="485"/>
			<point x="157" y="500"/>
			<point x="175" y="500" type="curve" smooth="yes"/>
			<point x="193" y="500"/>
			<point x="207" y="485"/>
			<point x="207" y="468" type="curve" smooth="yes"/>
			<point x="207" y="450"/>
			<point x="193" y="435"/>
			<point x="175" y="435" type="curve" smooth="yes"/>
			<point x="158" y="435"/>
			<point x="142" y="450"/>
		</contour>
		<contour>
			<point x="142" y="555" type="curve" smooth="yes"/>
			<point x="142" y="572"/>
			<point x="157" y="587"/>
			<point x="175" y="587" type="curve" smooth="yes"/>
			<point x="194" y="587"/>
			<point x="207" y="572"/>
			<point x="207" y="555" type="curve" smooth="yes"/>
			<point x="207" y="537"/>
			<point x="194" y="522"/>
			<point x="175" y="522" type="curve" smooth="yes"/>
			<point x="157" y="522"/>
			<point x="142" y="536"/>
		</contour>
		<contour>
			<point x="142" y="642" type="curve" smooth="yes"/>
			<point x="142" y="659"/>
			<point x="157" y="674"/>
			<point x="175" y="674" type="curve" smooth="yes"/>
			<point x="193" y="674"/>
			<point x="207" y="659"/>
			<point x="207" y="642" type="curve" smooth="yes"/>
			<point x="207" y="624"/>
			<point x="193" y="609"/>
			<point x="175" y="609" type="curve" smooth="yes"/>
			<point x="158" y="609"/>
			<point x="142" y="624"/>
		</contour>
		<contour>
			<point x="229" y="30" type="curve" smooth="yes"/>
			<point x="229" y="14"/>
			<point x="243" y="0"/>
			<point x="259" y="0" type="curve" smooth="yes"/>
			<point x="275" y="0"/>
			<point x="289" y="14"/>
			<point x="289" y="30" type="curve" smooth="yes"/>
			<point x="289" y="46"/>
			<point x="275" y="60"/>
			<point x="259" y="60" type="curve" smooth="yes"/>
			<point x="243" y="60"/>
			<point x="229" y="46"/>
		</contour>
		<contour>
			<point x="229" y="644" type="curve" smooth="yes"/>
			<point x="229" y="628"/>
			<point x="243" y="614"/>
			<point x="259" y="614" type="curve" smooth="yes"/>
			<point x="275" y="614"/>
			<point x="289" y="628"/>
			<point x="289" y="644" type="curve" smooth="yes"/>
			<point x="289" y="660"/>
			<point x="275" y="674"/>
			<point x="259" y="674" type="curve" smooth="yes"/>
			<point x="243" y="674"/>
			<point x="229" y="660"/>
		</contour>
	</outline>
</glyph>
<glyph name="M.ss01" format="2">
	<advance width="791"/>
	<note>
		M.ss01
	</note>
	<outline>
		<contour>
			<point x="127" y="642" type="curve" smooth="yes"/>
			<point x="127" y="624"/>
			<point x="111" y="610"/>
			<point x="94" y="610" type="curve" smooth="yes"/>
			<point x="76" y="610"/>
			<point x="62" y="624"/>
			<point x="62" y="642" type="curve" smooth="yes"/>
			<point x="62" y="659"/>
			<point x="76" y="674"/>
			<point x="94" y="674" type="curve" smooth="yes"/>
			<point x="112" y="674"/>
			<point x="127" y="659"/>
		</contour>
		<contour>
			<point x="60" y="33" type="curve" smooth="yes"/>
			<point x="60" y="15"/>
			<point x="73" y="0"/>
			<point x="92" y="1" type="curve" smooth="yes"/>
			<point x="110" y="1"/>
			<point x="125" y="15"/>
			<point x="125" y="33" type="curve" smooth="yes"/>
			<point x="125" y="51"/>
			<point x="110" y="65"/>
			<point x="92" y="65" type="curve" smooth="yes"/>
			<point x="73" y="65"/>
			<point x="60" y="51"/>
		</contour>
		<contour>
			<point x="60" y="120" type="curve" smooth="yes"/>
			<point x="60" y="101"/>
			<point x="73" y="87"/>
			<point x="92" y="87" type="curve" smooth="yes"/>
			<point x="110" y="87"/>
			<point x="125" y="101"/>
			<point x="125" y="120" type="curve" smooth="yes"/>
			<point x="125" y="136"/>
			<point x="110" y="152"/>
			<point x="92" y="152" type="curve" smooth="yes"/>
			<point x="73" y="152"/>
			<point x="60" y="137"/>
		</contour>
		<contour>
			<point x="61" y="207" type="curve" smooth="yes"/>
			<point x="61" y="224"/>
			<point x="74" y="239"/>
			<point x="93" y="239" type="curve" smooth="yes"/>
			<point x="111" y="239"/>
			<point x="126" y="224"/>
			<point x="126" y="207" type="curve" smooth="yes"/>
			<point x="126" y="188"/>
			<point x="111" y="174"/>
			<point x="93" y="174" type="curve" smooth="yes"/>
			<point x="74" y="174"/>
			<point x="61" y="189"/>
		</contour>
		<contour>
			<point x="61" y="294" type="curve" smooth="yes"/>
			<point x="61" y="311"/>
			<point x="75" y="326"/>
			<point x="93" y="326" type="curve" smooth="yes"/>
			<point x="112" y="326"/>
			<point x="126" y="311"/>
			<point x="126" y="294" type="curve" smooth="yes"/>
			<point x="126" y="275"/>
			<point x="111" y="261"/>
			<point x="93" y="261" type="curve" smooth="yes"/>
			<point x="75" y="261"/>
			<point x="61" y="276"/>
		</contour>
		<contour>
			<point x="62" y="381" type="curve" smooth="yes"/>
			<point x="62" y="398"/>
			<point x="75" y="413"/>
			<point x="94" y="413" type="curve" smooth="yes"/>
			<point x="112" y="413"/>
			<point x="127" y="398"/>
			<point x="127" y="381" type="curve" smooth="yes"/>
			<point x="127" y="362"/>
			<point x="112" y="348"/>
			<point x="94" y="348" type="curve" smooth="yes"/>
			<point x="75" y="348"/>
			<point x="62" y="363"/>
		</contour>
		<contour>
			<point x="63" y="468" type="curve" smooth="yes"/>
			<point x="63" y="485"/>
			<point x="77" y="500"/>
			<point x="95" y="500" type="curve" smooth="yes"/>
			<point x="113" y="500"/>
			<point x="128" y="485"/>
			<point x="128" y="468" type="curve" smooth="yes"/>
			<point x="128" y="450"/>
			<point x="112" y="435"/>
			<point x="95" y="435" type="curve" smooth="yes"/>
			<point x="77" y="435"/>
			<point x="63" y="450"/>
		</contour>
		<contour>
			<point x="63" y="555" type="curve" smooth="yes"/>
			<point x="63" y="572"/>
			<point x="76" y="587"/>
			<point x="95" y="587" type="curve" smooth="yes"/>
			<point x="113" y="587"/>
			<point x="128" y="572"/>
			<point x="128" y="555" type="curve" smooth="yes"/>
			<point x="128" y="536"/>
			<point x="113" y="522"/>
			<point x="95" y="522" type="curve" smooth="yes"/>
			<point x="76" y="522"/>
			<point x="63" y="537"/>
		</contour>
		<contour>
			<point x="140" y="584" type="curve" smooth="yes"/>
			<point x="140" y="567"/>
			<point x="151" y="556"/>
			<point x="168" y="556" type="curve" smooth="yes"/>
			<point x="185" y="556"/>
			<point x="199" y="567"/>
			<point x="199" y="584" type="curve" smooth="yes"/>
			<point x="199" y="601"/>
			<point x="185" y="615"/>
			<point x="168" y="615" type="curve" smooth="yes"/>
			<point x="152" y="615"/>
			<point x="140" y="600"/>
		</contour>
		<contour>
			<point x="170" y="504" type="curve" smooth="yes"/>
			<point x="170" y="487"/>
			<point x="182" y="475"/>
			<point x="199" y="475" type="curve" smooth="yes"/>
			<point x="215" y="475"/>
			<point x="230" y="487"/>
			<point x="230" y="504" type="curve" smooth="yes"/>
			<point x="230" y="521"/>
			<point x="216" y="535"/>
			<point x="199" y="535" type="curve" smooth="yes"/>
			<point x="182" y="535"/>
			<point x="170" y="521"/>
		</contour>
		<contour>
			<point x="202" y="423" type="curve" smooth="yes"/>
			<point x="202" y="406"/>
			<point x="214" y="394"/>
			<point x="231" y="394" type="curve" smooth="yes"/>
			<point x="248" y="394"/>
			<point x="262" y="406"/>
			<point x="262" y="423" type="curve" smooth="yes"/>
			<point x="262" y="440"/>
			<point x="247" y="454"/>
			<point x="231" y="454" type="curve" smooth="yes"/>
			<point x="214" y="454"/>
			<point x="202" y="440"/>
		</contour>
		<contour>
			<point x="234" y="344" type="curve" smooth="yes"/>
			<point x="234" y="327"/>
			<point x="246" y="315"/>
			<point x="263" y="315" type="curve" smooth="yes"/>
			<point x="280" y="315"/>
			<point x="294" y="327"/>
			<point x="294" y="344" type="curve" smooth="yes"/>
			<point x="294" y="360"/>
			<point x="280" y="375"/>
			<point x="263" y="375" type="curve" smooth="yes"/>
			<point x="246" y="375"/>
			<point x="234" y="361"/>
		</contour>
		<contour>
			<point x="266" y="265" type="curve" smooth="yes"/>
			<point x="266" y="248"/>
			<point x="278" y="236"/>
			<point x="295" y="236" type="curve" smooth="yes"/>
			<point x="312" y="236"/>
			<point x="326" y="248"/>
			<point x="326" y="265" type="curve" smooth="yes"/>
			<point x="326" y="282"/>
			<point x="311" y="296"/>
			<point x="295" y="296" type="curve" smooth="yes"/>
			<point x="278" y="296"/>
			<point x="266" y="282"/>
		</contour>
		<contour>
			<point x="299" y="186" type="curve" smooth="yes"/>
			<point x="299" y="169"/>
			<point x="311" y="157"/>
			<point x="328" y="157" type="curve" smooth="yes"/>
			<point x="345" y="157"/>
			<point x="359" y="169"/>
			<point x="359" y="186" type="curve" smooth="yes"/>
			<point x="359" y="203"/>
			<point x="345" y="217"/>
			<point x="328" y="217" type="curve" smooth="yes"/>
			<point x="311" y="217"/>
			<point x="299" y="203"/>
		</contour>
		<contour>
			<point x="330" y="107" type="curve" smooth="yes"/>
			<point x="330" y="90"/>
			<point x="342" y="78"/>
			<point x="359" y="78" type="curve" smooth="yes"/>
			<point x="376" y="78"/>
			<point x="390" y="90"/>
			<point x="390" y="107" type="curve" smooth="yes"/>
			<point x="390" y="123"/>
			<point x="376" y="138"/>
			<point x="359" y="138" type="curve" smooth="yes"/>
			<point x="342" y="138"/>
			<point x="330" y="124"/>
		</contour>
		<contour>
			<point x="370" y="29" type="curve" smooth="yes"/>
			<point x="370" y="12"/>
			<point x="382" y="0"/>
			<point x="399" y="0" type="curve" smooth="yes"/>
			<point x="416" y="0"/>
			<point x="430" y="12"/>
			<point x="430" y="29" type="curve" smooth="yes"/>
			<point x="430" y="46"/>
			<point x="416" y="60"/>
			<point x="399" y="60" type="curve" smooth="yes"/>
			<point x="382" y="60"/>
			<point x="370" y="46"/>
		</contour>
		<contour>
			<point x="410" y="107" type="curve" smooth="yes"/>
			<point x="410" y="90"/>
			<point x="424" y="78"/>
			<point x="441" y="78" type="curve" smooth="yes"/>
			<point x="458" y="78"/>
			<point x="470" y="90"/>
			<point x="470" y="107" type="curve" smooth="yes"/>
			<point x="470" y="124"/>
			<point x="458" y="138"/>
			<point x="441" y="138" type="curve" smooth="yes"/>
			<point x="424" y="138"/>
			<point x="410" y="123"/>
		</contour>
		<contour>
			<point x="441" y="186" type="curve" smooth="yes"/>
			<point x="441" y="169"/>
			<point x="455" y="157"/>
			<point x="472" y="157" type="curve" smooth="yes"/>
			<point x="489" y="157"/>
			<point x="501" y="169"/>
			<point x="501" y="186" type="curve" smooth="yes"/>
			<point x="501" y="203"/>
			<point x="489" y="217"/>
			<point x="472" y="217" type="curve" smooth="yes"/>
			<point x="455" y="217"/>
			<point x="441" y="203"/>
		</contour>
		<contour>
			<point x="474" y="265" type="curve" smooth="yes"/>
			<point x="474" y="248"/>
			<point x="488" y="236"/>
			<point x="505" y="236" type="curve" smooth="yes"/>
			<point x="522" y="236"/>
			<point x="534" y="248"/>
			<point x="534" y="265" type="curve" smooth="yes"/>
			<point x="534" y="282"/>
			<point x="522" y="296"/>
			<point x="505" y="296" type="curve" smooth="yes"/>
			<point x="489" y="296"/>
			<point x="474" y="282"/>
		</contour>
		<contour>
			<point x="506" y="344" type="curve" smooth="yes"/>
			<point x="506" y="327"/>
			<point x="520" y="315"/>
			<point x="537" y="315" type="curve" smooth="yes"/>
			<point x="554" y="315"/>
			<point x="566" y="327"/>
			<point x="566" y="344" type="curve" smooth="yes"/>
			<point x="566" y="361"/>
			<point x="554" y="375"/>
			<point x="537" y="375" type="curve" smooth="yes"/>
			<point x="520" y="375"/>
			<point x="506" y="360"/>
		</contour>
		<contour>
			<point x="538" y="423" type="curve" smooth="yes"/>
			<point x="538" y="406"/>
			<point x="552" y="394"/>
			<point x="569" y="394" type="curve" smooth="yes"/>
			<point x="586" y="394"/>
			<point x="598" y="406"/>
			<point x="598" y="423" type="curve" smooth="yes"/>
			<point x="598" y="440"/>
			<point x="586" y="454"/>
			<point x="569" y="454" type="curve" smooth="yes"/>
			<point x="553" y="454"/>
			<point x="538" y="440"/>
		</contour>
		<contour>
			<point x="570" y="504" type="curve" smooth="yes"/>
			<point x="570" y="487"/>
			<point x="585" y="475"/>
			<point x="601" y="475" type="curve" smooth="yes"/>
			<point x="618" y="475"/>
			<point x="630" y="487"/>
			<point x="630" y="504" type="curve" smooth="yes"/>
			<point x="630" y="521"/>
			<point x="618" y="535"/>
			<point x="601" y="535" type="curve" smooth="yes"/>
			<point x="584" y="535"/>
			<point x="570" y="521"/>
		</contour>
		<contour>
			<point x="606" y="578" type="curve" smooth="yes"/>
			<point x="606" y="561"/>
			<point x="620" y="550"/>
			<point x="636" y="550" type="curve" smooth="yes"/>
			<point x="653" y="550"/>
			<point x="665" y="561"/>
			<point x="665" y="578" type="curve" smooth="yes"/>
			<point x="665" y="595"/>
			<point x="653" y="609"/>
			<point x="636" y="609" type="curve" smooth="yes"/>
			<point x="619" y="609"/>
			<point x="606" y="595"/>
		</contour>
		<contour>
			<point x="673" y="468" type="curve" smooth="yes"/>
			<point x="673" y="485"/>
			<point x="688" y="500"/>
			<point x="706" y="500" type="curve" smooth="yes"/>
			<point x="724" y="500"/>
			<point x="738" y="485"/>
			<point x="738" y="468" type="curve" smooth="yes"/>
			<point x="738" y="450"/>
			<point x="724" y="435"/>
			<point x="706" y="435" type="curve" smooth="yes"/>
			<point x="689" y="435"/>
			<point x="673" y="450"/>
		</contour>
		<contour>
			<point x="673" y="555" type="curve" smooth="yes"/>
			<point x="673" y="572"/>
			<point x="688" y="587"/>
			<point x="706" y="587" type="curve" smooth="yes"/>
			<point x="725" y="587"/>
			<point x="738" y="572"/>
			<point x="738" y="555" type="curve" smooth="yes"/>
			<point x="738" y="537"/>
			<point x="725" y="522"/>
			<point x="706" y="522" type="curve" smooth="yes"/>
			<point x="688" y="522"/>
			<point x="673" y="536"/>
		</contour>
		<contour>
			<point x="673" y="642" type="curve" smooth="yes"/>
			<point x="673" y="659"/>
			<point x="686" y="674"/>
			<point x="704" y="674" type="curve" smooth="yes"/>
			<point x="722" y="674"/>
			<point x="736" y="659"/>
			<point x="736" y="642" type="curve" smooth="yes"/>
			<point x="736" y="624"/>
			<point x="722" y="609"/>
			<point x="704" y="609" type="curve" smooth="yes"/>
			<point x="687" y="609"/>
			<point x="673" y="624"/>
		</contour>
		<contour>
			<point x="674" y="381" type="curve" smooth="yes"/>
			<point x="674" y="398"/>
			<point x="689" y="413"/>
			<point x="707" y="413" type="curve" smooth="yes"/>
			<point x="726" y="413"/>
			<point x="739" y="398"/>
			<point x="739" y="381" type="curve" smooth="yes"/>
			<point x="739" y="363"/>
			<point x="726" y="348"/>
			<point x="707" y="348" type="curve" smooth="yes"/>
			<point x="689" y="348"/>
			<point x="674" y="362"/>
		</contour>
		<contour>
			<point x="675" y="207" type="curve" smooth="yes"/>
			<point x="675" y="224"/>
			<point x="690" y="239"/>
			<point x="708" y="239" type="curve" smooth="yes"/>
			<point x="727" y="239"/>
			<point x="740" y="224"/>
			<point x="740" y="207" type="curve" smooth="yes"/>
			<point x="740" y="189"/>
			<point x="727" y="174"/>
			<point x="708" y="174" type="curve" smooth="yes"/>
			<point x="690" y="174"/>
			<point x="675" y="188"/>
		</contour>
		<contour>
			<point x="675" y="294" type="curve" smooth="yes"/>
			<point x="675" y="311"/>
			<point x="689" y="326"/>
			<point x="708" y="326" type="curve" smooth="yes"/>
			<point x="726" y="326"/>
			<point x="740" y="311"/>
			<point x="740" y="294" type="curve" smooth="yes"/>
			<point x="740" y="276"/>
			<point x="726" y="261"/>
			<point x="708" y="261" type="curve" smooth="yes"/>
			<point x="690" y="261"/>
			<point x="675" y="275"/>
		</contour>
		<contour>
			<point x="676" y="33" type="curve" smooth="yes"/>
			<point x="676" y="15"/>
			<point x="691" y="1"/>
			<point x="709" y="1" type="curve" smooth="yes"/>
			<point x="728" y="0"/>
			<point x="741" y="15"/>
			<point x="741" y="33" type="curve" smooth="yes"/>
			<point x="741" y="51"/>
			<point x="728" y="65"/>
			<point x="709" y="65" type="curve" smooth="yes"/>
			<point x="691" y="65"/>
			<point x="676" y="51"/>
		</contour>
		<contour>
			<point x="676" y="120" type="curve" smooth="yes"/>
			<point x="676" y="101"/>
			<point x="691" y="87"/>
			<point x="709" y="87" type="curve" smooth="yes"/>
			<point x="728" y="87"/>
			<point x="741" y="101"/>
			<point x="741" y="120" type="curve" smooth="yes"/>
			<point x="741" y="137"/>
			<point x="728" y="152"/>
			<point x="709" y="152" type="curve" smooth="yes"/>
			<point x="691" y="152"/>
			<point x="676" y="136"/>
		</contour>
	</outline>
</glyph>
<glyph name="Ntilde.ss01" format="2">
	<advance width="615"/>
	<note>
		Ntilde.ss01
	</note>
	<outline>
		<contour>
			<point x="199" y="845" type="curve" smooth="yes"/>
			<point x="199" y="862"/>
			<point x="216" y="877"/>
			<point x="232" y="876" type="curve" smooth="yes"/>
			<point x="249" y="876"/>
			<point x="263" y="859"/>
			<point x="263" y="844" type="curve" smooth="yes"/>
			<point x="262" y="826"/>
			<point x="248" y="813"/>
			<point x="230" y="813" type="curve" smooth="yes"/>
			<point x="213" y="813"/>
			<point x="199" y="826"/>
		</contour>
		<contour>
			<point x="60" y="33" type="curve" smooth="yes"/>
			<point x="60" y="15"/>
			<point x="75" y="0"/>
			<point x="93" y="0" type="curve" smooth="yes"/>
			<point x="112" y="0"/>
			<point x="125" y="15"/>
			<point x="125" y="33" type="curve" smooth="yes"/>
			<point x="125" y="51"/>
			<point x="112" y="65"/>
			<point x="93" y="65" type="curve" smooth="yes"/>
			<point x="75" y="65"/>
			<point x="60" y="51"/>
		</contour>
		<contour>
			<point x="60" y="120" type="curve" smooth="yes"/>
			<point x="60" y="101"/>
			<point x="75" y="87"/>
			<point x="93" y="87" type="curve" smooth="yes"/>
			<point x="112" y="87"/>
			<point x="125" y="101"/>
			<point x="125" y="120" type="curve" smooth="yes"/>
			<point x="125" y="137"/>
			<point x="112" y="152"/>
			<point x="93" y="152" type="curve" smooth="yes"/>
			<point x="75" y="152"/>
			<point x="60" y="136"/>
		</contour>
		<contour>
			<point x="60" y="207" type="curve" smooth="yes"/>
			<point x="60" y="224"/>
			<point x="75" y="239"/>
			<point x="93" y="239" type="curve" smooth="yes"/>
			<point x="112" y="239"/>
			<point x="125" y="224"/>
			<point x="125" y="207" type="curve" smooth="yes"/>
			<point x="125" y="189"/>
			<point x="112" y="174"/>
			<point x="93" y="174" type="curve" smooth="yes"/>
			<point x="75" y="174"/>
			<point x="60" y="188"/>
		</contour>
		<contour>
			<point x="60" y="294" type="curve" smooth="yes"/>
			<point x="60" y="311"/>
			<point x="74" y="326"/>
			<point x="93" y="326" type="curve" smooth="yes"/>
			<point x="111" y="326"/>
			<point x="125" y="311"/>
			<point x="125" y="294" type="curve" smooth="yes"/>
			<point x="125" y="276"/>
			<point x="111" y="261"/>
			<point x="93" y="261" type="curve" smooth="yes"/>
			<point x="75" y="261"/>
			<point x="60" y="275"/>
		</contour>
		<contour>
			<point x="60" y="381" type="curve" smooth="yes"/>
			<point x="60" y="398"/>
			<point x="75" y="413"/>
			<point x="93" y="413" type="curve" smooth="yes"/>
			<point x="112" y="413"/>
			<point x="125" y="398"/>
			<point x="125" y="381" type="curve" smooth="yes"/>
			<point x="125" y="363"/>
			<point x="112" y="348"/>
			<point x="93" y="348" type="curve" smooth="yes"/>
			<point x="75" y="348"/>
			<point x="60" y="362"/>
		</contour>
		<contour>
			<point x="60" y="468" type="curve" smooth="yes"/>
			<point x="60" y="485"/>
			<point x="75" y="500"/>
			<point x="93" y="500" type="curve" smooth="yes"/>
			<point x="111" y="500"/>
			<point x="125" y="485"/>
			<point x="125" y="468" type="curve" smooth="yes"/>
			<point x="125" y="450"/>
			<point x="111" y="435"/>
			<point x="93" y="435" type="curve" smooth="yes"/>
			<point x="76" y="435"/>
			<point x="60" y="450"/>
		</contour>
		<contour>
			<point x="60" y="555" type="curve" smooth="yes"/>
			<point x="60" y="572"/>
			<point x="75" y="587"/>
			<point x="93" y="587" type="curve" smooth="yes"/>
			<point x="112" y="587"/>
			<point x="125" y="572"/>
			<point x="125" y="555" type="curve" smooth="yes"/>
			<point x="125" y="537"/>
			<point x="112" y="522"/>
			<point x="93" y="522" type="curve" smooth="yes"/>
			<point x="75" y="522"/>
			<point x="60" y="536"/>
		</contour>
		<contour>
			<point x="60" y="642" type="curve" smooth="yes"/>
			<point x="60" y="659"/>
			<point x="75" y="674"/>
			<point x="93" y="674" type="curve" smooth="yes"/>
			<point x="112" y="674"/>
			<point x="125" y="659"/>
			<point x="125" y="642" type="curve" smooth="yes"/>
			<point x="125" y="624"/>
			<point x="112" y="609"/>
			<point x="93" y="609" type="curve" smooth="yes"/>
			<point x="75" y="609"/>
			<point x="60" y="623"/>
		</contour>
		<contour>
			<point x="127" y="815" type="curve" smooth="yes"/>
			<point x="127" y="832"/>
			<point x="141" y="845"/>
			<point x="157" y="845" type="curve" smooth="yes"/>
			<point x="174" y="845"/>
			<point x="187" y="830"/>
			<point x="187" y="815" type="curve" smooth="yes"/>
			<point x="187" y="797"/>
			<point x="172" y="785"/>
			<point x="157" y="785" type="curve" smooth="yes"/>
			<point x="139" y="785"/>
			<point x="127" y="799"/>
		</contour>
		<contour>
			<point x="132" y="580" type="curve" smooth="yes"/>
			<point x="132" y="563"/>
			<point x="144" y="551"/>
			<point x="161" y="551" type="curve" smooth="yes"/>
			<point x="178" y="551"/>
			<point x="191" y="563"/>
			<point x="191" y="580" type="curve" smooth="yes"/>
			<point x="191" y="597"/>
			<point x="178" y="610"/>
			<point x="161" y="610" type="curve" smooth="yes"/>
			<point x="145" y="610"/>
			<point x="132" y="597"/>
		</contour>
		<contour>
			<point x="176" y="510" type="curve" smooth="yes"/>
			<point x="176" y="493"/>
			<point x="188" y="481"/>
			<point x="205" y="481" type="curve" smooth="yes"/>
			<point x="221" y="481"/>
			<point x="235" y="493"/>
			<point x="235" y="510" type="curve" smooth="yes"/>
			<point x="235" y="527"/>
			<point x="222" y="540"/>
			<point x="205" y="540" type="curve" smooth="yes"/>
			<point x="188" y="540"/>
			<point x="176" y="527"/>
		</contour>
		<contour>
			<point x="220" y="440" type="curve" smooth="yes"/>
			<point x="220" y="423"/>
			<point x="232" y="411"/>
			<point x="249" y="411" type="curve" smooth="yes"/>
			<point x="266" y="411"/>
			<point x="279" y="423"/>
			<point x="279" y="440" type="curve" smooth="yes"/>
			<point x="279" y="457"/>
			<point x="265" y="470"/>
			<point x="249" y="470" type="curve" smooth="yes"/>
			<point x="232" y="470"/>
			<point x="220" y="457"/>
		</contour>
		<contour>
			<point x="264" y="370" type="curve" smooth="yes"/>
			<point x="264" y="353"/>
			<point x="276" y="341"/>
			<point x="293" y="341" type="curve" smooth="yes"/>
			<point x="310" y="341"/>
			<point x="323" y="353"/>
			<point x="323" y="370" type="curve" smooth="yes"/>
			<point x="323" y="387"/>
			<point x="310" y="400"/>
			<point x="293" y="400" type="curve" smooth="yes"/>
			<point x="276" y="400"/>
			<point x="264" y="387"/>
		</contour>
		<contour>
			<point x="280" y="821" type="curve" smooth="yes"/>
			<point x="280" y="839"/>
			<point x="294" y="854"/>
			<point x="313" y="854" type="curve" smooth="yes"/>
			<point x="332" y="854"/>
			<point x="346" y="839"/>
			<point x="346" y="821" type="curve" smooth="yes"/>
			<point x="346" y="801"/>
			<point x="332" y="788"/>
			<point x="313" y="788" type="curve" smooth="yes"/>
			<point x="293" y="788"/>
			<point x="280" y="803"/>
		</contour>
		<contour>
			<point x="308" y="300" type="curve" smooth="yes"/>
			<point x="308" y="283"/>
			<point x="320" y="271"/>
			<point x="337" y="271" type="curve" smooth="yes"/>
			<point x="354" y="271"/>
			<point x="367" y="283"/>
			<point x="367" y="300" type="curve" smooth="yes"/>
			<point x="367" y="317"/>
			<point x="353" y="330"/>
			<point x="337" y="330" type="curve" smooth="yes"/>
			<point x="320" y="330"/>
			<point x="308" y="317"/>
		</contour>
		<contour>
			<point x="352" y="230" type="curve" smooth="yes"/>
			<point x="352" y="213"/>
			<point x="364" y="201"/>
			<point x="381" y="201" type="curve" smooth="yes"/>
			<point x="398" y="201"/>
			<point x="411" y="213"/>
			<point x="411" y="230" type="curve" smooth="yes"/>
			<point x="411" y="247"/>
			<point x="398" y="260"/>
			<point x="381" y="260" type="curve" smooth="yes"/>
			<point x="364" y="260"/>
			<point x="352" y="247"/>
		</contour>
		<contour>
			<point x="364" y="805" type="curve" smooth="yes"/>
			<point x="364" y="823"/>
			<point x="378" y="837"/>
			<point x="396" y="837" type="curve" smooth="yes"/>
			<point x="413" y="836"/>
			<point x="427" y="822"/>
			<point x="427" y="804" type="curve" smooth="yes"/>
			<point x="427" y="786"/>
			<point x="413" y="773"/>
			<point x="396" y="773" type="curve" smooth="yes"/>
			<point x="379" y="773"/>
			<point x="364" y="785"/>
		</contour>
		<contour>
			<point x="396" y="160" type="curve" smooth="yes"/>
			<point x="396" y="143"/>
			<point x="408" y="131"/>
			<point x="425" y="131" type="curve" smooth="yes"/>
			<point x="442" y="131"/>
			<point x="455" y="143"/>
			<point x="455" y="160" type="curve" smooth="yes"/>
			<point x="455" y="176"/>
			<point x="442" y="190"/>
			<point x="425" y="190" type="curve" smooth="yes"/>
			<point x="408" y="190"/>
			<point x="396" y="177"/>
		</contour>
		<contour>
			<point x="435" y="837" type="curve" smooth="yes"/>
			<point x="435" y="855"/>
			<point x="449" y="868"/>
			<point x="464" y="868" type="curve" smooth="yes"/>
			<point x="482" y="868"/>
			<point x="495" y="854"/>
			<point x="495" y="837" type="curve" smooth="yes"/>
			<point x="495" y="820"/>
			<point x="479" y="808"/>
			<point x="464" y="808" type="curve" smooth="yes"/>
			<point x="447" y="808"/>
			<point x="435" y="822"/>
		</contour>
		<contour>
			<point x="438" y="93" type="curve" smooth="yes"/>
			<point x="438" y="76"/>
			<point x="450" y="64"/>
			<point x="467" y="64" type="curve" smooth="yes"/>
			<point x="484" y="64"/>
			<point x="497" y="76"/>
			<point x="497" y="93" type="curve" smooth="yes"/>
			<point x="497" y="110"/>
			<point x="484" y="123"/>
			<point x="467" y="123" type="curve" smooth="yes"/>
			<point x="450" y="123"/>
			<point x="438" y="110"/>
		</contour>
		<contour>
			<point x="500" y="33" type="curve" smooth="yes"/>
			<point x="500" y="14"/>
			<point x="515" y="0"/>
			<point x="533" y="0" type="curve" smooth="yes"/>
			<point x="552" y="0"/>
			<point x="565" y="14"/>
			<point x="565" y="33" type="curve" smooth="yes"/>
			<point x="565" y="50"/>
			<point x="552" y="65"/>
			<point x="533" y="65" type="curve" smooth="yes"/>
			<point x="515" y="65"/>
			<point x="500" y="49"/>
		</contour>
		<contour>
			<point x="500" y="120" type="curve" smooth="yes"/>
			<point x="500" y="101"/>
			<point x="515" y="87"/>
			<point x="533" y="87" type="curve" smooth="yes"/>
			<point x="552" y="87"/>
			<point x="565" y="101"/>
			<point x="565" y="120" type="curve" smooth="yes"/>
			<point x="565" y="137"/>
			<point x="552" y="152"/>
			<point x="533" y="152" type="curve" smooth="yes"/>
			<point x="515" y="152"/>
			<point x="500" y="136"/>
		</contour>
		<contour>
			<point x="500" y="207" type="curve" smooth="yes"/>
			<point x="500" y="224"/>
			<point x="515" y="239"/>
			<point x="533" y="239" type="curve" smooth="yes"/>
			<point x="552" y="239"/>
			<point x="565" y="224"/>
			<point x="565" y="207" type="curve" smooth="yes"/>
			<point x="565" y="189"/>
			<point x="552" y="174"/>
			<point x="533" y="174" type="curve" smooth="yes"/>
			<point x="515" y="174"/>
			<point x="500" y="188"/>
		</contour>
		<contour>
			<point x="500" y="294" type="curve" smooth="yes"/>
			<point x="500" y="311"/>
			<point x="514" y="326"/>
			<point x="533" y="326" type="curve" smooth="yes"/>
			<point x="551" y="326"/>
			<point x="565" y="311"/>
			<point x="565" y="294" type="curve" smooth="yes"/>
			<point x="565" y="276"/>
			<point x="551" y="261"/>
			<point x="533" y="261" type="curve" smooth="yes"/>
			<point x="515" y="261"/>
			<point x="500" y="275"/>
		</contour>
		<contour>
			<point x="500" y="381" type="curve" smooth="yes"/>
			<point x="500" y="398"/>
			<point x="515" y="413"/>
			<point x="533" y="413" type="curve" smooth="yes"/>
			<point x="552" y="413"/>
			<point x="565" y="398"/>
			<point x="565" y="381" type="curve" smooth="yes"/>
			<point x="565" y="363"/>
			<point x="552" y="348"/>
			<point x="533" y="348" type="curve" smooth="yes"/>
			<point x="515" y="348"/>
			<point x="500" y="362"/>
		</contour>
		<contour>
			<point x="500" y="468" type="curve" smooth="yes"/>
			<point x="500" y="485"/>
			<point x="515" y="500"/>
			<point x="533" y="500" type="curve" smooth="yes"/>
			<point x="551" y="500"/>
			<point x="565" y="485"/>
			<point x="565" y="468" type="curve" smooth="yes"/>
			<point x="565" y="450"/>
			<point x="551" y="435"/>
			<point x="533" y="435" type="curve" smooth="yes"/>
			<point x="516" y="435"/>
			<point x="500" y="450"/>
		</contour>
		<contour>
			<point x="500" y="555" type="curve" smooth="yes"/>
			<point x="500" y="572"/>
			<point x="515" y="587"/>
			<point x="533" y="587" type="curve" smooth="yes"/>
			<point x="552" y="587"/>
			<point x="565" y="572"/>
			<point x="565" y="555" type="curve" smooth="yes"/>
			<point x="565" y="537"/>
			<point x="552" y="522"/>
			<point x="533" y="522" type="curve" smooth="yes"/>
			<point x="515" y="522"/>
			<point x="500" y="536"/>
		</contour>
		<contour>
			<point x="500" y="642" type="curve" smooth="yes"/>
			<point x="500" y="659"/>
			<point x="515" y="674"/>
			<point x="533" y="674" type="curve" smooth="yes"/>
			<point x="551" y="674"/>
			<point x="565" y="659"/>
			<point x="565" y="642" type="curve" smooth="yes"/>
			<point x="565" y="624"/>
			<point x="551" y="609"/>
			<point x="533" y="609" type="curve" smooth="yes"/>
			<point x="516" y="609"/>
			<point x="500" y="624"/>
		</contour>
	</outline>
</glyph>
<glyph name="P.ss01" format="2">
	<advance width="548"/>
	<note>
		P.ss01
	</note>
	<outline>
		<contour>
			<point x="60" y="642" type="curve" smooth="yes"/>
			<point x="60" y="659"/>
			<point x="75" y="674"/>
			<point x="93" y="674" type="curve" smooth="yes"/>
			<point x="111" y="674"/>
			<point x="125" y="659"/>
			<point x="125" y="642" type="curve" smooth="yes"/>
			<point x="125" y="624"/>
			<point x="111" y="609"/>
			<point x="93" y="609" type="curve" smooth="yes"/>
			<point x="76" y="609"/>
			<point x="60" y="624"/>
		</contour>
		<contour>
			<point x="60" y="33" type="curve" smooth="yes"/>
			<point x="60" y="14"/>
			<point x="75" y="0"/>
			<point x="93" y="0" type="curve" smooth="yes"/>
			<point x="112" y="0"/>
			<point x="125" y="14"/>
			<point x="125" y="33" type="curve" smooth="yes"/>
			<point x="125" y="50"/>
			<point x="112" y="65"/>
			<point x="93" y="65" type="curve" smooth="yes"/>
			<point x="75" y="65"/>
			<point x="60" y="49"/>
		</contour>
		<contour>
			<point x="60" y="120" type="curve" smooth="yes"/>
			<point x="60" y="101"/>
			<point x="75" y="87"/>
			<point x="93" y="87" type="curve" smooth="yes"/>
			<point x="112" y="87"/>
			<point x="125" y="101"/>
			<point x="125" y="120" type="curve" smooth="yes"/>
			<point x="125" y="137"/>
			<point x="112" y="152"/>
			<point x="93" y="152" type="curve" smooth="yes"/>
			<point x="75" y="152"/>
			<point x="60" y="136"/>
		</contour>
		<contour>
			<point x="60" y="207" type="curve" smooth="yes"/>
			<point x="60" y="224"/>
			<point x="75" y="239"/>
			<point x="93" y="239" type="curve" smooth="yes"/>
			<point x="112" y="239"/>
			<point x="125" y="224"/>
			<point x="125" y="207" type="curve" smooth="yes"/>
			<point x="125" y="189"/>
			<point x="112" y="174"/>
			<point x="93" y="174" type="curve" smooth="yes"/>
			<point x="75" y="174"/>
			<point x="60" y="188"/>
		</contour>
		<contour>
			<point x="60" y="294" type="curve" smooth="yes"/>
			<point x="60" y="311"/>
			<point x="74" y="326"/>
			<point x="93" y="326" type="curve" smooth="yes"/>
			<point x="111" y="326"/>
			<point x="125" y="311"/>
			<point x="125" y="294" type="curve" smooth="yes"/>
			<point x="125" y="276"/>
			<point x="111" y="261"/>
			<point x="93" y="261" type="curve" smooth="yes"/>
			<point x="75" y="261"/>
			<point x="60" y="275"/>
		</contour>
		<contour>
			<point x="60" y="381" type="curve" smooth="yes"/>
			<point x="60" y="398"/>
			<point x="75" y="413"/>
			<point x="93" y="413" type="curve" smooth="yes"/>
			<point x="112" y="413"/>
			<point x="125" y="398"/>
			<point x="125" y="381" type="curve" smooth="yes"/>
			<point x="125" y="363"/>
			<point x="112" y="348"/>
			<point x="93" y="348" type="curve" smooth="yes"/>
			<point x="75" y="348"/>
			<point x="60" y="362"/>
		</contour>
		<contour>
			<point x="60" y="468" type="curve" smooth="yes"/>
			<point x="60" y="485"/>
			<point x="75" y="500"/>
			<point x="93" y="500" type="curve" smooth="yes"/>
			<point x="111" y="500"/>
			<point x="125" y="485"/>
			<point x="125" y="468" type="curve" smooth="yes"/>
			<point x="125" y="450"/>
			<point x="111" y="435"/>
			<point x="93" y="435" type="curve" smooth="yes"/>
			<point x="76" y="435"/>
			<point x="60" y="450"/>
		</contour>
		<contour>
			<point x="60" y="555" type="curve" smooth="yes"/>
			<point x="60" y="572"/>
			<point x="75" y="587"/>
			<point x="93" y="587" type="curve" smooth="yes"/>
			<point x="112" y="587"/>
			<point x="125" y="572"/>
			<point x="125" y="555" type="curve" smooth="yes"/>
			<point x="125" y="537"/>
			<point x="112" y="522"/>
			<point x="93" y="522" type="curve" smooth="yes"/>
			<point x="75" y="522"/>
			<point x="60" y="536"/>
		</contour>
		<contour>
			<point x="146" y="644" type="curve" smooth="yes"/>
			<point x="146" y="628"/>
			<point x="160" y="614"/>
			<point x="176" y="614" type="curve" smooth="yes"/>
			<point x="192" y="614"/>
			<point x="206" y="627"/>
			<point x="206" y="644" type="curve" smooth="yes"/>
			<point x="206" y="660"/>
			<point x="192" y="674"/>
			<point x="176" y="674" type="curve" smooth="yes"/>
			<point x="160" y="674"/>
			<point x="146" y="660"/>
		</contour>
		<contour>
			<point x="151" y="297" type="curve" smooth="yes"/>
			<point x="151" y="281"/>
			<point x="165" y="267"/>
			<point x="181" y="267" type="curve" smooth="yes"/>
			<point x="197" y="267"/>
			<point x="211" y="280"/>
			<point x="211" y="297" type="curve" smooth="yes"/>
			<point x="211" y="313"/>
			<point x="197" y="327"/>
			<point x="181" y="327" type="curve" smooth="yes"/>
			<point x="165" y="327"/>
			<point x="151" y="313"/>
		</contour>
		<contour>
			<point x="227" y="644" type="curve" smooth="yes"/>
			<point x="227" y="628"/>
			<point x="241" y="614"/>
			<point x="257" y="614" type="curve" smooth="yes"/>
			<point x="273" y="614"/>
			<point x="287" y="627"/>
			<point x="287" y="644" type="curve" smooth="yes"/>
			<point x="287" y="660"/>
			<point x="273" y="674"/>
			<point x="257" y="674" type="curve" smooth="yes"/>
			<point x="241" y="674"/>
			<point x="227" y="660"/>
		</contour>
		<contour>
			<point x="232" y="297" type="curve" smooth="yes"/>
			<point x="232" y="281"/>
			<point x="246" y="267"/>
			<point x="262" y="267" type="curve" smooth="yes"/>
			<point x="278" y="267"/>
			<point x="292" y="280"/>
			<point x="292" y="297" type="curve" smooth="yes"/>
			<point x="292" y="313"/>
			<point x="278" y="327"/>
			<point x="262" y="327" type="curve" smooth="yes"/>
			<point x="246" y="327"/>
			<point x="232" y="313"/>
		</contour>
		<contour>
			<point x="308" y="644" type="curve" smooth="yes"/>
			<point x="308" y="628"/>
			<point x="322" y="614"/>
			<point x="338" y="614" type="curve" smooth="yes"/>
			<point x="354" y="614"/>
			<point x="368" y="628"/>
			<point x="368" y="644" type="curve" smooth="yes"/>
			<point x="368" y="660"/>
			<point x="354" y="674"/>
			<point x="338" y="674" type="curve" smooth="yes"/>
			<point x="322" y="674"/>
			<point x="308" y="660"/>
		</contour>
		<contour>
			<point x="313" y="297" type="curve" smooth="yes"/>
			<point x="313" y="281"/>
			<point x="327" y="267"/>
			<point x="343" y="267" type="curve" smooth="yes"/>
			<point x="359" y="267"/>
			<point x="373" y="281"/>
			<point x="373" y="297" type="curve" smooth="yes"/>
			<point x="373" y="313"/>
			<point x="359" y="327"/>
			<point x="343" y="327" type="curve" smooth="yes"/>
			<point x="327" y="327"/>
			<point x="313" y="313"/>
		</contour>
		<contour>
			<point x="387" y="623" type="curve" smooth="yes"/>
			<point x="387" y="605"/>
			<point x="401" y="592"/>
			<point x="418" y="592" type="curve" smooth="yes"/>
			<point x="435" y="592"/>
			<point x="449" y="606"/>
			<point x="449" y="623" type="curve" smooth="yes"/>
			<point x="449" y="640"/>
			<point x="435" y="654"/>
			<point x="418" y="654" type="curve" smooth="yes"/>
			<point x="401" y="654"/>
			<point x="387" y="640"/>
		</contour>
		<contour>
			<point x="391" y="324" type="curve" smooth="yes"/>
			<point x="391" y="306"/>
			<point x="405" y="293"/>
			<point x="422" y="293" type="curve" smooth="yes"/>
			<point x="439" y="293"/>
			<point x="453" y="307"/>
			<point x="453" y="324" type="curve" smooth="yes"/>
			<point x="453" y="341"/>
			<point x="439" y="355"/>
			<point x="422" y="355" type="curve" smooth="yes"/>
			<point x="405" y="355"/>
			<point x="391" y="341"/>
		</contour>
		<contour>
			<point x="442" y="564" type="curve" smooth="yes"/>
			<point x="442" y="547"/>
			<point x="457" y="532"/>
			<point x="474" y="532" type="curve" smooth="yes"/>
			<point x="491" y="532"/>
			<point x="506" y="547"/>
			<point x="506" y="564" type="curve" smooth="yes"/>
			<point x="506" y="581"/>
			<point x="492" y="596"/>
			<point x="474" y="596" type="curve" smooth="yes"/>
			<point x="457" y="596"/>
			<point x="442" y="581"/>
		</contour>
		<contour>
			<point x="443" y="388" type="curve" smooth="yes"/>
			<point x="443" y="371"/>
			<point x="458" y="356"/>
			<point x="475" y="356" type="curve" smooth="yes"/>
			<point x="492" y="356"/>
			<point x="507" y="371"/>
			<point x="507" y="388" type="curve" smooth="yes"/>
			<point x="507" y="404"/>
			<point x="492" y="420"/>
			<point x="475" y="420" type="curve" smooth="yes"/>
			<point x="458" y="420"/>
			<point x="443" y="405"/>
		</contour>
		<contour>
			<point x="458" y="479" type="curve" smooth="yes"/>
			<point x="458" y="460"/>
			<point x="474" y="444"/>
			<point x="493" y="444" type="curve" smooth="yes"/>
			<point x="512" y="444"/>
			<point x="528" y="460"/>
			<point x="528" y="479" type="curve" smooth="yes"/>
			<point x="528" y="498"/>
			<point x="512" y="514"/>
			<point x="493" y="514" type="curve" smooth="yes"/>
			<point x="474" y="514"/>
			<point x="458" y="498"/>
		</contour>
	</outline>
</glyph>
<glyph name="Q.ss01" format="2">
	<advance width="680"/>
	<note>
		Q.ss01
	</note>
	<outline>
		<contour>
			<point x="258" y="658" type="curve" smooth="yes"/>
			<point x="258" y="675"/>
			<point x="271" y="688"/>
			<point x="288" y="688" type="curve" smooth="yes"/>
			<point x="305" y="688"/>
			<point x="318" y="675"/>
			<point x="318" y="658" type="curve" smooth="yes"/>
			<point x="318" y="641"/>
			<point x="305" y="628"/>
			<point x="288" y="628" type="curve" smooth="yes"/>
			<point x="271" y="628"/>
			<point x="258" y="641"/>
		</contour>
		<contour>
			<point x="50" y="290" type="curve" smooth="yes"/>
			<point x="50" y="271"/>
			<point x="66" y="255"/>
			<point x="85" y="255" type="curve" smooth="yes"/>
			<point x="104" y="255"/>
			<point x="120" y="271"/>
			<point x="120" y="290" type="curve" smooth="yes"/>
			<point x="120" y="309"/>
			<point x="104" y="325"/>
			<point x="85" y="325" type="curve" smooth="yes"/>
			<point x="66" y="325"/>
			<point x="50" y="309"/>
		</contour>
		<contour>
			<point x="50" y="384" type="curve" smooth="yes"/>
			<point x="50" y="365"/>
			<point x="66" y="349"/>
			<point x="85" y="349" type="curve" smooth="yes"/>
			<point x="104" y="349"/>
			<point x="120" y="365"/>
			<point x="120" y="384" type="curve" smooth="yes"/>
			<point x="120" y="403"/>
			<point x="104" y="419"/>
			<point x="85" y="419" type="curve" smooth="yes"/>
			<point x="66" y="419"/>
			<point x="50" y="403"/>
		</contour>
		<contour>
			<point x="67" y="197" type="curve" smooth="yes"/>
			<point x="67" y="178"/>
			<point x="81" y="163"/>
			<point x="101" y="163" type="curve" smooth="yes"/>
			<point x="121" y="163"/>
			<point x="137" y="178"/>
			<point x="137" y="197" type="curve" smooth="yes"/>
			<point x="137" y="216"/>
			<point x="121" y="232"/>
			<point x="101" y="232" type="curve" smooth="yes"/>
			<point x="81" y="232"/>
			<point x="67" y="216"/>
		</contour>
		<contour>
			<point x="67" y="477" type="curve" smooth="yes"/>
			<point x="67" y="458"/>
			<point x="81" y="442"/>
			<point x="101" y="442" type="curve" smooth="yes"/>
			<point x="121" y="442"/>
			<point x="137" y="458"/>
			<point x="137" y="477" type="curve" smooth="yes"/>
			<point x="137" y="496"/>
			<point x="121" y="511"/>
			<point x="101" y="511" type="curve" smooth="yes"/>
			<point x="81" y="511"/>
			<point x="67" y="496"/>
		</contour>
		<contour>
			<point x="107" y="114" type="curve" smooth="yes"/>
			<point x="107" y="97"/>
			<point x="122" y="81"/>
			<point x="140" y="81" type="curve" smooth="yes"/>
			<point x="158" y="81"/>
			<point x="173" y="97"/>
			<point x="173" y="114" type="curve" smooth="yes"/>
			<point x="173" y="132"/>
			<point x="158" y="147"/>
			<point x="140" y="147" type="curve" smooth="yes"/>
			<point x="122" y="147"/>
			<point x="107" y="132"/>
		</contour>
		<contour>
			<point x="107" y="560" type="curve" smooth="yes"/>
			<point x="107" y="542"/>
			<point x="122" y="527"/>
			<point x="140" y="527" type="curve" smooth="yes"/>
			<point x="158" y="527"/>
			<point x="173" y="542"/>
			<point x="173" y="560" type="curve" smooth="yes"/>
			<point x="173" y="577"/>
			<point x="158" y="593"/>
			<point x="140" y="593" type="curve" smooth="yes"/>
			<point x="122" y="593"/>
			<point x="107" y="577"/>
		</contour>
		<contour>
			<point x="172" y="49" type="curve" smooth="yes"/>
			<point x="172" y="68"/>
			<point x="186" y="82"/>
			<point x="205" y="82" type="curve" smooth="yes"/>
			<point x="223" y="82"/>
			<point x="238" y="68"/>
			<point x="238" y="49" type="curve" smooth="yes"/>
			<point x="238" y="31"/>
			<point x="223" y="16"/>
			<point x="205" y="16" type="curve" smooth="yes"/>
			<point x="186" y="16"/>
			<point x="172" y="31"/>
		</contour>
		<contour>
			<point x="172" y="625" type="curve" smooth="yes"/>
			<point x="172" y="643"/>
			<point x="186" y="658"/>
			<point x="205" y="658" type="curve" smooth="yes"/>
			<point x="223" y="658"/>
			<point x="238" y="643"/>
			<point x="238" y="625" type="curve" smooth="yes"/>
			<point x="238" y="606"/>
			<point x="223" y="592"/>
			<point x="205" y="592" type="curve" smooth="yes"/>
			<point x="186" y="592"/>
			<point x="172" y="606"/>
		</contour>
		<contour>
			<point x="258" y="16" type="curve" smooth="yes"/>
			<point x="258" y="33"/>
			<point x="271" y="46"/>
			<point x="288" y="46" type="curve" smooth="yes"/>
			<point x="305" y="46"/>
			<point x="318" y="33"/>
			<point x="318" y="16" type="curve" smooth="yes"/>
			<point x="318" y="-1"/>
			<point x="305" y="-14"/>
			<point x="288" y="-14" type="curve" smooth="yes"/>
			<point x="271" y="-14"/>
			<point x="258" y="-1"/>
		</contour>
		<contour>
			<point x="281" y="214" type="curve" smooth="yes"/>
			<point x="281" y="197"/>
			<point x="294" y="184"/>
			<point x="311" y="184" type="curve" smooth="yes"/>
			<point x="328" y="184"/>
			<point x="341" y="197"/>
			<point x="341" y="214" type="curve" smooth="yes"/>
			<point x="341" y="231"/>
			<point x="328" y="244"/>
			<point x="311" y="244" type="curve" smooth="yes"/>
			<point x="294" y="244"/>
			<point x="281" y="231"/>
		</contour>
		<contour>
			<point x="342" y="16" type="curve" smooth="yes"/>
			<point x="342" y="33"/>
			<point x="355" y="46"/>
			<point x="372" y="46" type="curve" smooth="yes"/>
			<point x="389" y="46"/>
			<point x="402" y="33"/>
			<point x="402" y="16" type="curve" smooth="yes"/>
			<point x="402" y="-1"/>
			<point x="389" y="-14"/>
			<point x="372" y="-14" type="curve" smooth="yes"/>
			<point x="355" y="-14"/>
			<point x="342" y="-1"/>
		</contour>
		<contour>
			<point x="342" y="658" type="curve" smooth="yes"/>
			<point x="342" y="675"/>
			<point x="355" y="688"/>
			<point x="372" y="688" type="curve" smooth="yes"/>
			<point x="389" y="688"/>
			<point x="402" y="675"/>
			<point x="402" y="658" type="curve" smooth="yes"/>
			<point x="402" y="641"/>
			<point x="389" y="628"/>
			<point x="372" y="628" type="curve" smooth="yes"/>
			<point x="355" y="628"/>
			<point x="342" y="641"/>
		</contour>
		<contour>
			<point x="363" y="212" type="curve" smooth="yes"/>
			<point x="363" y="195"/>
			<point x="376" y="182"/>
			<point x="393" y="182" type="curve" smooth="yes"/>
			<point x="410" y="182"/>
			<point x="423" y="195"/>
			<point x="423" y="212" type="curve" smooth="yes"/>
			<point x="423" y="229"/>
			<point x="410" y="242"/>
			<point x="393" y="242" type="curve" smooth="yes"/>
			<point x="376" y="242"/>
			<point x="363" y="229"/>
		</contour>
		<contour>
			<point x="416" y="53" type="curve" smooth="yes"/>
			<point x="416" y="34"/>
			<point x="432" y="19"/>
			<point x="452" y="19" type="curve" smooth="yes"/>
			<point x="472" y="19"/>
			<point x="486" y="34"/>
			<point x="486" y="53" type="curve" smooth="yes"/>
			<point x="486" y="72"/>
			<point x="472" y="88"/>
			<point x="452" y="88" type="curve" smooth="yes"/>
			<point x="432" y="88"/>
			<point x="416" y="72"/>
		</contour>
		<contour>
			<point x="422" y="625" type="curve" smooth="yes"/>
			<point x="422" y="643"/>
			<point x="437" y="658"/>
			<point x="455" y="658" type="curve" smooth="yes"/>
			<point x="474" y="658"/>
			<point x="488" y="643"/>
			<point x="488" y="625" type="curve" smooth="yes"/>
			<point x="488" y="606"/>
			<point x="474" y="592"/>
			<point x="455" y="592" type="curve" smooth="yes"/>
			<point x="437" y="592"/>
			<point x="422" y="606"/>
		</contour>
		<contour>
			<point x="433" y="174" type="curve" smooth="yes"/>
			<point x="433" y="157"/>
			<point x="446" y="144"/>
			<point x="463" y="144" type="curve" smooth="yes"/>
			<point x="480" y="144"/>
			<point x="493" y="157"/>
			<point x="493" y="174" type="curve" smooth="yes"/>
			<point x="493" y="191"/>
			<point x="480" y="204"/>
			<point x="463" y="204" type="curve" smooth="yes"/>
			<point x="446" y="204"/>
			<point x="433" y="191"/>
		</contour>
		<contour>
			<point x="487" y="118" type="curve" smooth="yes"/>
			<point x="487" y="101"/>
			<point x="500" y="88"/>
			<point x="517" y="88" type="curve" smooth="yes"/>
			<point x="534" y="88"/>
			<point x="547" y="101"/>
			<point x="547" y="118" type="curve" smooth="yes"/>
			<point x="547" y="135"/>
			<point x="534" y="148"/>
			<point x="517" y="148" type="curve" smooth="yes"/>
			<point x="500" y="148"/>
			<point x="487" y="135"/>
		</contour>
		<contour>
			<point x="487" y="560" type="curve" smooth="yes"/>
			<point x="487" y="542"/>
			<point x="502" y="527"/>
			<point x="520" y="527" type="curve" smooth="yes"/>
			<point x="538" y="527"/>
			<point x="553" y="542"/>
			<point x="553" y="560" type="curve" smooth="yes"/>
			<point x="553" y="577"/>
			<point x="538" y="593"/>
			<point x="520" y="593" type="curve" smooth="yes"/>
			<point x="502" y="593"/>
			<point x="487" y="577"/>
		</contour>
		<contour>
			<point x="523" y="197" type="curve" smooth="yes"/>
			<point x="523" y="178"/>
			<point x="539" y="163"/>
			<point x="559" y="163" type="curve" smooth="yes"/>
			<point x="579" y="163"/>
			<point x="593" y="178"/>
			<point x="593" y="197" type="curve" smooth="yes"/>
			<point x="593" y="216"/>
			<point x="579" y="232"/>
			<point x="559" y="232" type="curve" smooth="yes"/>
			<point x="539" y="232"/>
			<point x="523" y="216"/>
		</contour>
		<contour>
			<point x="523" y="477" type="curve" smooth="yes"/>
			<point x="523" y="458"/>
			<point x="539" y="442"/>
			<point x="559" y="442" type="curve" smooth="yes"/>
			<point x="579" y="442"/>
			<point x="593" y="458"/>
			<point x="593" y="477" type="curve" smooth="yes"/>
			<point x="593" y="496"/>
			<point x="579" y="511"/>
			<point x="559" y="511" type="curve" smooth="yes"/>
			<point x="539" y="511"/>
			<point x="523" y="496"/>
		</contour>
		<contour>
			<point x="534" y="57" type="curve" smooth="yes"/>
			<point x="534" y="40"/>
			<point x="547" y="27"/>
			<point x="564" y="27" type="curve" smooth="yes"/>
			<point x="581" y="27"/>
			<point x="594" y="40"/>
			<point x="594" y="57" type="curve" smooth="yes"/>
			<point x="594" y="74"/>
			<point x="581" y="87"/>
			<point x="564" y="87" type="curve" smooth="yes"/>
			<point x="547" y="87"/>
			<point x="534" y="74"/>
		</contour>
		<contour>
			<point x="540" y="290" type="curve" smooth="yes"/>
			<point x="540" y="271"/>
			<point x="556" y="255"/>
			<point x="575" y="255" type="curve" smooth="yes"/>
			<point x="594" y="255"/>
			<point x="610" y="271"/>
			<point x="610" y="290" type="curve" smooth="yes"/>
			<point x="610" y="309"/>
			<point x="594" y="325"/>
			<point x="575" y="325" type="curve" smooth="yes"/>
			<point x="556" y="325"/>
			<point x="540" y="309"/>
		</contour>
		<contour>
			<point x="540" y="384" type="curve" smooth="yes"/>
			<point x="540" y="365"/>
			<point x="556" y="349"/>
			<point x="575" y="349" type="curve" smooth="yes"/>
			<point x="594" y="349"/>
			<point x="610" y="365"/>
			<point x="610" y="384" type="curve" smooth="yes"/>
			<point x="610" y="403"/>
			<point x="594" y="419"/>
			<point x="575" y="419" type="curve" smooth="yes"/>
			<point x="556" y="419"/>
			<point x="540" y="403"/>
		</contour>
		<contour>
			<point x="610" y="25" type="curve" smooth="yes"/>
			<point x="610" y="8"/>
			<point x="623" y="-5"/>
			<point x="640" y="-5" type="curve" smooth="yes"/>
			<point x="657" y="-5"/>
			<point x="670" y="8"/>
			<point x="670" y="25" type="curve" smooth="yes"/>
			<point x="670" y="42"/>
			<point x="657" y="55"/>
			<point x="640" y="55" type="curve" smooth="yes"/>
			<point x="623" y="55"/>
			<point x="610" y="42"/>
		</contour>
	</outline>
</glyph>
<glyph name="S.ss01" format="2">
	<advance width="577"/>
	<note>
		S.ss01
	</note>
	<outline>
		<contour>
			<point x="211" y="659" type="curve" smooth="yes"/>
			<point x="211" y="676"/>
			<point x="224" y="689"/>
			<point x="241" y="689" type="curve" smooth="yes"/>
			<point x="258" y="689"/>
			<point x="271" y="676"/>
			<point x="271" y="659" type="curve" smooth="yes"/>
			<point x="271" y="642"/>
			<point x="258" y="629"/>
			<point x="241" y="629" type="curve" smooth="yes"/>
			<point x="224" y="629"/>
			<point x="211" y="642"/>
		</contour>
		<contour>
			<point x="40" y="121" type="curve" smooth="yes"/>
			<point x="40" y="106"/>
			<point x="54" y="91"/>
			<point x="70" y="91" type="curve" smooth="yes"/>
			<point x="86" y="91"/>
			<point x="100" y="106"/>
			<point x="100" y="121" type="curve" smooth="yes"/>
			<point x="100" y="137"/>
			<point x="86" y="151"/>
			<point x="70" y="151" type="curve" smooth="yes"/>
			<point x="54" y="151"/>
			<point x="40" y="137"/>
		</contour>
		<contour>
			<point x="60" y="561" type="curve" smooth="yes"/>
			<point x="60" y="543"/>
			<point x="75" y="528"/>
			<point x="93" y="528" type="curve" smooth="yes"/>
			<point x="111" y="528"/>
			<point x="126" y="543"/>
			<point x="126" y="561" type="curve" smooth="yes"/>
			<point x="126" y="578"/>
			<point x="111" y="594"/>
			<point x="93" y="594" type="curve" smooth="yes"/>
			<point x="75" y="594"/>
			<point x="60" y="578"/>
		</contour>
		<contour>
			<point x="63" y="466" type="curve" smooth="yes"/>
			<point x="63" y="447"/>
			<point x="79" y="431"/>
			<point x="98" y="431" type="curve" smooth="yes"/>
			<point x="117" y="431"/>
			<point x="133" y="447"/>
			<point x="133" y="466" type="curve" smooth="yes"/>
			<point x="133" y="485"/>
			<point x="117" y="501"/>
			<point x="98" y="501" type="curve" smooth="yes"/>
			<point x="79" y="501"/>
			<point x="63" y="485"/>
		</contour>
		<contour>
			<point x="95" y="61" type="curve" smooth="yes"/>
			<point x="95" y="78"/>
			<point x="108" y="91"/>
			<point x="125" y="91" type="curve" smooth="yes"/>
			<point x="141" y="91"/>
			<point x="155" y="78"/>
			<point x="155" y="61" type="curve" smooth="yes"/>
			<point x="155" y="45"/>
			<point x="141" y="31"/>
			<point x="125" y="31" type="curve" smooth="yes"/>
			<point x="108" y="31"/>
			<point x="95" y="45"/>
		</contour>
		<contour>
			<point x="125" y="626" type="curve" smooth="yes"/>
			<point x="125" y="644"/>
			<point x="139" y="659"/>
			<point x="158" y="659" type="curve" smooth="yes"/>
			<point x="176" y="659"/>
			<point x="191" y="644"/>
			<point x="191" y="626" type="curve" smooth="yes"/>
			<point x="191" y="607"/>
			<point x="176" y="593"/>
			<point x="158" y="593" type="curve" smooth="yes"/>
			<point x="139" y="593"/>
			<point x="125" y="607"/>
		</contour>
		<contour>
			<point x="128" y="398" type="curve" smooth="yes"/>
			<point x="128" y="379"/>
			<point x="144" y="363"/>
			<point x="163" y="363" type="curve" smooth="yes"/>
			<point x="182" y="363"/>
			<point x="198" y="379"/>
			<point x="198" y="398" type="curve" smooth="yes"/>
			<point x="198" y="417"/>
			<point x="182" y="433"/>
			<point x="163" y="433" type="curve" smooth="yes"/>
			<point x="144" y="433"/>
			<point x="128" y="417"/>
		</contour>
		<contour>
			<point x="170" y="27" type="curve" smooth="yes"/>
			<point x="170" y="44"/>
			<point x="183" y="57"/>
			<point x="200" y="57" type="curve" smooth="yes"/>
			<point x="217" y="57"/>
			<point x="230" y="44"/>
			<point x="230" y="27" type="curve" smooth="yes"/>
			<point x="230" y="10"/>
			<point x="217" y="-3"/>
			<point x="200" y="-3" type="curve" smooth="yes"/>
			<point x="183" y="-3"/>
			<point x="170" y="10"/>
		</contour>
		<contour>
			<point x="212" y="358" type="curve" smooth="yes"/>
			<point x="212" y="339"/>
			<point x="228" y="323"/>
			<point x="247" y="323" type="curve" smooth="yes"/>
			<point x="266" y="323"/>
			<point x="282" y="339"/>
			<point x="282" y="358" type="curve" smooth="yes"/>
			<point x="282" y="377"/>
			<point x="266" y="393"/>
			<point x="247" y="393" type="curve" smooth="yes"/>
			<point x="228" y="393"/>
			<point x="212" y="377"/>
		</contour>
		<contour>
			<point x="249" y="15" type="curve" smooth="yes"/>
			<point x="249" y="32"/>
			<point x="262" y="45"/>
			<point x="279" y="45" type="curve" smooth="yes"/>
			<point x="296" y="45"/>
			<point x="309" y="32"/>
			<point x="309" y="15" type="curve" smooth="yes"/>
			<point x="309" y="-2"/>
			<point x="296" y="-15"/>
			<point x="279" y="-15" type="curve" smooth="yes"/>
			<point x="262" y="-15"/>
			<point x="249" y="-2"/>
		</contour>
		<contour>
			<point x="295" y="659" type="curve" smooth="yes"/>
			<point x="295" y="676"/>
			<point x="308" y="689"/>
			<point x="325" y="689" type="curve" smooth="yes"/>
			<point x="342" y="689"/>
			<point x="355" y="676"/>
			<point x="355" y="659" type="curve" smooth="yes"/>
			<point x="355" y="642"/>
			<point x="342" y="629"/>
			<point x="325" y="629" type="curve" smooth="yes"/>
			<point x="308" y="629"/>
			<point x="295" y="642"/>
		</contour>
		<contour>
			<point x="300" y="327" type="curve" smooth="yes"/>
			<point x="300" y="308"/>
			<point x="316" y="292"/>
			<point x="335" y="292" type="curve" smooth="yes"/>
			<point x="354" y="292"/>
			<point x="370" y="308"/>
			<point x="370" y="327" type="curve" smooth="yes"/>
			<point x="370" y="346"/>
			<point x="354" y="362"/>
			<point x="335" y="362" type="curve" smooth="yes"/>
			<point x="316" y="362"/>
			<point x="300" y="346"/>
		</contour>
		<contour>
			<point x="328" y="27" type="curve" smooth="yes"/>
			<point x="328" y="46"/>
			<point x="343" y="60"/>
			<point x="361" y="60" type="curve" smooth="yes"/>
			<point x="380" y="60"/>
			<point x="394" y="46"/>
			<point x="394" y="27" type="curve" smooth="yes"/>
			<point x="394" y="9"/>
			<point x="380" y="-6"/>
			<point x="361" y="-6" type="curve" smooth="yes"/>
			<point x="343" y="-6"/>
			<point x="328" y="9"/>
		</contour>
		<contour>
			<point x="375" y="626" type="curve" smooth="yes"/>
			<point x="375" y="642"/>
			<point x="389" y="656"/>
			<point x="405" y="656" type="curve" smooth="yes"/>
			<point x="422" y="656"/>
			<point x="435" y="642"/>
			<point x="435" y="626" type="curve" smooth="yes"/>
			<point x="435" y="609"/>
			<point x="422" y="596"/>
			<point x="405" y="596" type="curve" smooth="yes"/>
			<point x="389" y="596"/>
			<point x="375" y="609"/>
		</contour>
		<contour>
			<point x="388" y="292" type="curve" smooth="yes"/>
			<point x="388" y="273"/>
			<point x="404" y="257"/>
			<point x="423" y="257" type="curve" smooth="yes"/>
			<point x="442" y="257"/>
			<point x="458" y="273"/>
			<point x="458" y="292" type="curve" smooth="yes"/>
			<point x="458" y="311"/>
			<point x="442" y="327"/>
			<point x="423" y="327" type="curve" smooth="yes"/>
			<point x="404" y="327"/>
			<point x="388" y="311"/>
		</contour>
		<contour>
			<point x="409" y="62" type="curve" smooth="yes"/>
			<point x="409" y="81"/>
			<point x="424" y="95"/>
			<point x="442" y="95" type="curve" smooth="yes"/>
			<point x="461" y="95"/>
			<point x="475" y="81"/>
			<point x="475" y="62" type="curve" smooth="yes"/>
			<point x="475" y="44"/>
			<point x="461" y="29"/>
			<point x="442" y="29" type="curve" smooth="yes"/>
			<point x="424" y="29"/>
			<point x="409" y="44"/>
		</contour>
		<contour>
			<point x="440" y="572" type="curve" smooth="yes"/>
			<point x="440" y="556"/>
			<point x="454" y="542"/>
			<point x="470" y="542" type="curve" smooth="yes"/>
			<point x="486" y="542"/>
			<point x="500" y="556"/>
			<point x="500" y="572" type="curve" smooth="yes"/>
			<point x="500" y="587"/>
			<point x="486" y="602"/>
			<point x="470" y="602" type="curve" smooth="yes"/>
			<point x="454" y="602"/>
			<point x="440" y="587"/>
		</contour>
		<contour>
			<point x="456" y="227" type="curve" smooth="yes"/>
			<point x="456" y="208"/>
			<point x="472" y="193"/>
			<point x="492" y="193" type="curve" smooth="yes"/>
			<point x="512" y="193"/>
			<point x="526" y="208"/>
			<point x="526" y="227" type="curve" smooth="yes"/>
			<point x="526" y="246"/>
			<point x="512" y="262"/>
			<point x="492" y="262" type="curve" smooth="yes"/>
			<point x="472" y="262"/>
			<point x="456" y="246"/>
		</contour>
		<contour>
			<point x="459" y="136" type="curve" smooth="yes"/>
			<point x="459" y="118"/>
			<point x="474" y="102"/>
			<point x="493" y="102" type="curve" smooth="yes"/>
			<point x="512" y="102"/>
			<point x="527" y="118"/>
			<point x="527" y="136" type="curve" smooth="yes"/>
			<point x="527" y="155"/>
			<point x="512" y="170"/>
			<point x="493" y="170" type="curve" smooth="yes"/>
			<point x="474" y="170"/>
			<point x="459" y="155"/>
		</contour>
	</outline>
</glyph>
<glyph name="T.ss01" format="2">
	<advance width="510"/>
	<note>
		T.ss01
	</note>
	<outline>
		<contour>
			<point x="20" y="644" type="curve" smooth="yes"/>
			<point x="20" y="628"/>
			<point x="34" y="614"/>
			<point x="50" y="614" type="curve" smooth="yes"/>
			<point x="66" y="614"/>
			<point x="80" y="628"/>
			<point x="80" y="644" type="curve" smooth="yes"/>
			<point x="80" y="660"/>
			<point x="66" y="674"/>
			<point x="50" y="674" type="curve" smooth="yes"/>
			<point x="34" y="674"/>
			<point x="20" y="660"/>
		</contour>
		<contour>
			<point x="102" y="644" type="curve" smooth="yes"/>
			<point x="102" y="628"/>
			<point x="116" y="614"/>
			<point x="132" y="614" type="curve" smooth="yes"/>
			<point x="148" y="614"/>
			<point x="162" y="628"/>
			<point x="162" y="644" type="curve" smooth="yes"/>
			<point x="162" y="660"/>
			<point x="148" y="674"/>
			<point x="132" y="674" type="curve" smooth="yes"/>
			<point x="116" y="674"/>
			<point x="102" y="660"/>
		</contour>
		<contour>
			<point x="184" y="644" type="curve" smooth="yes"/>
			<point x="184" y="660"/>
			<point x="197" y="674"/>
			<point x="214" y="674" type="curve" smooth="yes"/>
			<point x="231" y="674"/>
			<point x="244" y="660"/>
			<point x="244" y="644" type="curve" smooth="yes"/>
			<point x="244" y="627"/>
			<point x="231" y="614"/>
			<point x="214" y="614" type="curve" smooth="yes"/>
			<point x="198" y="614"/>
			<point x="184" y="627"/>
		</contour>
		<contour>
			<point x="222" y="33" type="curve" smooth="yes"/>
			<point x="222" y="15"/>
			<point x="237" y="1"/>
			<point x="255" y="0" type="curve" smooth="yes"/>
			<point x="274" y="0"/>
			<point x="287" y="15"/>
			<point x="287" y="33" type="curve" smooth="yes"/>
			<point x="287" y="51"/>
			<point x="274" y="65"/>
			<point x="255" y="65" type="curve" smooth="yes"/>
			<point x="237" y="65"/>
			<point x="222" y="51"/>
		</contour>
		<contour>
			<point x="222" y="122" type="curve" smooth="yes"/>
			<point x="222" y="103"/>
			<point x="237" y="89"/>
			<point x="255" y="89" type="curve" smooth="yes"/>
			<point x="274" y="89"/>
			<point x="287" y="103"/>
			<point x="287" y="122" type="curve" smooth="yes"/>
			<point x="287" y="139"/>
			<point x="274" y="154"/>
			<point x="255" y="154" type="curve" smooth="yes"/>
			<point x="237" y="154"/>
			<point x="222" y="138"/>
		</contour>
		<contour>
			<point x="222" y="211" type="curve" smooth="yes"/>
			<point x="222" y="228"/>
			<point x="237" y="243"/>
			<point x="255" y="243" type="curve" smooth="yes"/>
			<point x="274" y="243"/>
			<point x="287" y="228"/>
			<point x="287" y="211" type="curve" smooth="yes"/>
			<point x="287" y="193"/>
			<point x="274" y="178"/>
			<point x="255" y="178" type="curve" smooth="yes"/>
			<point x="237" y="178"/>
			<point x="222" y="192"/>
		</contour>
		<contour>
			<point x="222" y="300" type="curve" smooth="yes"/>
			<point x="222" y="317"/>
			<point x="236" y="332"/>
			<point x="255" y="332" type="curve" smooth="yes"/>
			<point x="273" y="332"/>
			<point x="287" y="317"/>
			<point x="287" y="300" type="curve" smooth="yes"/>
			<point x="287" y="282"/>
			<point x="273" y="267"/>
			<point x="255" y="267" type="curve" smooth="yes"/>
			<point x="237" y="267"/>
			<point x="222" y="281"/>
		</contour>
		<contour>
			<point x="222" y="389" type="curve" smooth="yes"/>
			<point x="222" y="406"/>
			<point x="237" y="421"/>
			<point x="255" y="421" type="curve" smooth="yes"/>
			<point x="274" y="421"/>
			<point x="287" y="406"/>
			<point x="287" y="389" type="curve" smooth="yes"/>
			<point x="287" y="371"/>
			<point x="274" y="356"/>
			<point x="255" y="356" type="curve" smooth="yes"/>
			<point x="237" y="356"/>
			<point x="222" y="370"/>
		</contour>
		<contour>
			<point x="222" y="478" type="curve" smooth="yes"/>
			<point x="222" y="495"/>
			<point x="237" y="510"/>
			<point x="255" y="510" type="curve" smooth="yes"/>
			<point x="273" y="510"/>
			<point x="287" y="495"/>
			<point x="287" y="478" type="curve" smooth="yes"/>
			<point x="287" y="460"/>
			<point x="273" y="445"/>
			<point x="255" y="445" type="curve" smooth="yes"/>
			<point x="238" y="445"/>
			<point x="222" y="460"/>
		</contour>
		<contour>
			<point x="222" y="567" type="curve" smooth="yes"/>
			<point x="222" y="584"/>
			<point x="237" y="599"/>
			<point x="255" y="599" type="curve" smooth="yes"/>
			<point x="274" y="599"/>
			<point x="287" y="584"/>
			<point x="287" y="567" type="curve" smooth="yes"/>
			<point x="287" y="549"/>
			<point x="274" y="534"/>
			<point x="255" y="534" type="curve" smooth="yes"/>
			<point x="237" y="534"/>
			<point x="222" y="548"/>
		</contour>
		<contour>
			<point x="266" y="644" type="curve" smooth="yes"/>
			<point x="266" y="628"/>
			<point x="280" y="614"/>
			<point x="296" y="614" type="curve" smooth="yes"/>
			<point x="312" y="614"/>
			<point x="326" y="628"/>
			<point x="326" y="644" type="curve" smooth="yes"/>
			<point x="326" y="660"/>
			<point x="312" y="674"/>
			<point x="296" y="674" type="curve" smooth="yes"/>
			<point x="280" y="674"/>
			<point x="266" y="660"/>
		</contour>
		<contour>
			<point x="348" y="644" type="curve" smooth="yes"/>
			<point x="348" y="628"/>
			<point x="362" y="614"/>
			<point x="378" y="614" type="curve" smooth="yes"/>
			<point x="394" y="614"/>
			<point x="408" y="628"/>
			<point x="408" y="644" type="curve" smooth="yes"/>
			<point x="408" y="660"/>
			<point x="394" y="674"/>
			<point x="378" y="674" type="curve" smooth="yes"/>
			<point x="362" y="674"/>
			<point x="348" y="660"/>
		</contour>
		<contour>
			<point x="430" y="644" type="curve" smooth="yes"/>
			<point x="430" y="628"/>
			<point x="444" y="614"/>
			<point x="460" y="614" type="curve" smooth="yes"/>
			<point x="476" y="614"/>
			<point x="490" y="628"/>
			<point x="490" y="644" type="curve" smooth="yes"/>
			<point x="490" y="660"/>
			<point x="476" y="674"/>
			<point x="460" y="674" type="curve" smooth="yes"/>
			<point x="444" y="674"/>
			<point x="430" y="660"/>
		</contour>
	</outline>
</glyph>
<glyph name="U.ss01" format="2">
	<advance width="630"/>
	<note>
		U.ss01
	</note>
	<outline>
		<contour>
			<point x="60" y="642" type="curve" smooth="yes"/>
			<point x="60" y="659"/>
			<point x="74" y="674"/>
			<point x="92" y="674" type="curve" smooth="yes"/>
			<point x="110" y="674"/>
			<point x="125" y="659"/>
			<point x="125" y="642" type="curve" smooth="yes"/>
			<point x="125" y="624"/>
			<point x="109" y="609"/>
			<point x="92" y="609" type="curve" smooth="yes"/>
			<point x="74" y="609"/>
			<point x="60" y="624"/>
		</contour>
		<contour>
			<point x="60" y="294" type="curve" smooth="yes"/>
			<point x="60" y="311"/>
			<point x="74" y="326"/>
			<point x="92" y="326" type="curve" smooth="yes"/>
			<point x="110" y="326"/>
			<point x="125" y="311"/>
			<point x="125" y="294" type="curve" smooth="yes"/>
			<point x="125" y="276"/>
			<point x="109" y="261"/>
			<point x="92" y="261" type="curve" smooth="yes"/>
			<point x="74" y="261"/>
			<point x="60" y="276"/>
		</contour>
		<contour>
			<point x="60" y="381" type="curve" smooth="yes"/>
			<point x="60" y="398"/>
			<point x="74" y="413"/>
			<point x="92" y="413" type="curve" smooth="yes"/>
			<point x="110" y="413"/>
			<point x="125" y="398"/>
			<point x="125" y="381" type="curve" smooth="yes"/>
			<point x="125" y="363"/>
			<point x="109" y="348"/>
			<point x="92" y="348" type="curve" smooth="yes"/>
			<point x="74" y="348"/>
			<point x="60" y="363"/>
		</contour>
		<contour>
			<point x="60" y="468" type="curve" smooth="yes"/>
			<point x="60" y="485"/>
			<point x="74" y="500"/>
			<point x="92" y="500" type="curve" smooth="yes"/>
			<point x="110" y="500"/>
			<point x="125" y="485"/>
			<point x="125" y="468" type="curve" smooth="yes"/>
			<point x="125" y="450"/>
			<point x="109" y="435"/>
			<point x="92" y="435" type="curve" smooth="yes"/>
			<point x="74" y="435"/>
			<point x="60" y="450"/>
		</contour>
		<contour>
			<point x="60" y="555" type="curve" smooth="yes"/>
			<point x="60" y="572"/>
			<point x="74" y="587"/>
			<point x="92" y="587" type="curve" smooth="yes"/>
			<point x="110" y="587"/>
			<point x="125" y="572"/>
			<point x="125" y="555" type="curve" smooth="yes"/>
			<point x="125" y="537"/>
			<point x="109" y="522"/>
			<point x="92" y="522" type="curve" smooth="yes"/>
			<point x="74" y="522"/>
			<point x="60" y="537"/>
		</contour>
		<contour>
			<point x="74" y="203" type="curve" smooth="yes"/>
			<point x="74" y="185"/>
			<point x="87" y="171"/>
			<point x="106" y="171" type="curve" smooth="yes"/>
			<point x="125" y="171"/>
			<point x="139" y="185"/>
			<point x="139" y="203" type="curve" smooth="yes"/>
			<point x="139" y="221"/>
			<point x="125" y="236"/>
			<point x="106" y="236" type="curve" smooth="yes"/>
			<point x="87" y="236"/>
			<point x="74" y="221"/>
		</contour>
		<contour>
			<point x="107" y="118" type="curve" smooth="yes"/>
			<point x="107" y="102"/>
			<point x="122" y="86"/>
			<point x="139" y="86" type="curve" smooth="yes"/>
			<point x="156" y="86"/>
			<point x="171" y="102"/>
			<point x="171" y="118" type="curve" smooth="yes"/>
			<point x="171" y="135"/>
			<point x="156" y="150"/>
			<point x="139" y="150" type="curve" smooth="yes"/>
			<point x="122" y="150"/>
			<point x="107" y="135"/>
		</contour>
		<contour>
			<point x="168" y="54" type="curve" smooth="yes"/>
			<point x="168" y="72"/>
			<point x="182" y="86"/>
			<point x="200" y="86" type="curve" smooth="yes"/>
			<point x="217" y="86"/>
			<point x="232" y="72"/>
			<point x="232" y="54" type="curve" smooth="yes"/>
			<point x="232" y="37"/>
			<point x="217" y="22"/>
			<point x="200" y="22" type="curve" smooth="yes"/>
			<point x="182" y="22"/>
			<point x="168" y="37"/>
		</contour>
		<contour>
			<point x="248" y="16" type="curve" smooth="yes"/>
			<point x="248" y="33"/>
			<point x="261" y="46"/>
			<point x="278" y="46" type="curve" smooth="yes"/>
			<point x="295" y="46"/>
			<point x="308" y="33"/>
			<point x="308" y="16" type="curve" smooth="yes"/>
			<point x="308" y="-1"/>
			<point x="295" y="-14"/>
			<point x="278" y="-14" type="curve" smooth="yes"/>
			<point x="261" y="-14"/>
			<point x="248" y="-1"/>
		</contour>
		<contour>
			<point x="332" y="16" type="curve" smooth="yes"/>
			<point x="332" y="33"/>
			<point x="345" y="46"/>
			<point x="362" y="46" type="curve" smooth="yes"/>
			<point x="379" y="46"/>
			<point x="392" y="33"/>
			<point x="392" y="16" type="curve" smooth="yes"/>
			<point x="392" y="-1"/>
			<point x="379" y="-14"/>
			<point x="362" y="-14" type="curve" smooth="yes"/>
			<point x="345" y="-14"/>
			<point x="332" y="-1"/>
		</contour>
		<contour>
			<point x="408" y="54" type="curve" smooth="yes"/>
			<point x="408" y="72"/>
			<point x="423" y="86"/>
			<point x="440" y="86" type="curve" smooth="yes"/>
			<point x="458" y="86"/>
			<point x="472" y="72"/>
			<point x="472" y="54" type="curve" smooth="yes"/>
			<point x="472" y="37"/>
			<point x="458" y="22"/>
			<point x="440" y="22" type="curve" smooth="yes"/>
			<point x="423" y="22"/>
			<point x="408" y="37"/>
		</contour>
		<contour>
			<point x="469" y="118" type="curve" smooth="yes"/>
			<point x="469" y="102"/>
			<point x="484" y="86"/>
			<point x="501" y="86" type="curve" smooth="yes"/>
			<point x="518" y="86"/>
			<point x="533" y="102"/>
			<point x="533" y="118" type="curve" smooth="yes"/>
			<point x="533" y="135"/>
			<point x="518" y="150"/>
			<point x="501" y="150" type="curve" smooth="yes"/>
			<point x="484" y="150"/>
			<point x="469" y="135"/>
		</contour>
		<contour>
			<point x="501" y="203" type="curve" smooth="yes"/>
			<point x="501" y="185"/>
			<point x="515" y="171"/>
			<point x="534" y="171" type="curve" smooth="yes"/>
			<point x="553" y="171"/>
			<point x="566" y="185"/>
			<point x="566" y="203" type="curve" smooth="yes"/>
			<point x="566" y="221"/>
			<point x="553" y="236"/>
			<point x="534" y="236" type="curve" smooth="yes"/>
			<point x="515" y="236"/>
			<point x="501" y="221"/>
		</contour>
		<contour>
			<point x="515" y="294" type="curve" smooth="yes"/>
			<point x="515" y="311"/>
			<point x="530" y="326"/>
			<point x="548" y="326" type="curve" smooth="yes"/>
			<point x="566" y="326"/>
			<point x="580" y="311"/>
			<point x="580" y="294" type="curve" smooth="yes"/>
			<point x="580" y="276"/>
			<point x="566" y="261"/>
			<point x="548" y="261" type="curve" smooth="yes"/>
			<point x="531" y="261"/>
			<point x="515" y="276"/>
		</contour>
		<contour>
			<point x="515" y="381" type="curve" smooth="yes"/>
			<point x="515" y="398"/>
			<point x="530" y="413"/>
			<point x="548" y="413" type="curve" smooth="yes"/>
			<point x="566" y="413"/>
			<point x="580" y="398"/>
			<point x="580" y="381" type="curve" smooth="yes"/>
			<point x="580" y="363"/>
			<point x="566" y="348"/>
			<point x="548" y="348" type="curve" smooth="yes"/>
			<point x="531" y="348"/>
			<point x="515" y="363"/>
		</contour>
		<contour>
			<point x="515" y="468" type="curve" smooth="yes"/>
			<point x="515" y="485"/>
			<point x="530" y="500"/>
			<point x="548" y="500" type="curve" smooth="yes"/>
			<point x="566" y="500"/>
			<point x="580" y="485"/>
			<point x="580" y="468" type="curve" smooth="yes"/>
			<point x="580" y="450"/>
			<point x="566" y="435"/>
			<point x="548" y="435" type="curve" smooth="yes"/>
			<point x="531" y="435"/>
			<point x="515" y="450"/>
		</contour>
		<contour>
			<point x="515" y="555" type="curve" smooth="yes"/>
			<point x="515" y="572"/>
			<point x="530" y="587"/>
			<point x="548" y="587" type="curve" smooth="yes"/>
			<point x="566" y="587"/>
			<point x="580" y="572"/>
			<point x="580" y="555" type="curve" smooth="yes"/>
			<point x="580" y="537"/>
			<point x="566" y="522"/>
			<point x="548" y="522" type="curve" smooth="yes"/>
			<point x="531" y="522"/>
			<point x="515" y="537"/>
		</contour>
		<contour>
			<point x="515" y="642" type="curve" smooth="yes"/>
			<point x="515" y="659"/>
			<point x="530" y="674"/>
			<point x="548" y="674" type="curve" smooth="yes"/>
			<point x="566" y="674"/>
			<point x="580" y="659"/>
			<point x="580" y="642" type="curve" smooth="yes"/>
			<point x="580" y="624"/>
			<point x="566" y="609"/>
			<point x="548" y="609" type="curve" smooth="yes"/>
			<point x="531" y="609"/>
			<point x="515" y="624"/>
		</contour>
	</outline>
</glyph>
<glyph name="W.ss01" format="2">
	<advance width="851"/>
	<note>
		W.ss01
	</note>
	<outline>
		<contour>
			<point x="80" y="642" type="curve" smooth="yes"/>
			<point x="80" y="660"/>
			<point x="65" y="674"/>
			<point x="47" y="674" type="curve" smooth="yes"/>
			<point x="28" y="675"/>
			<point x="15" y="660"/>
			<point x="15" y="642" type="curve" smooth="yes"/>
			<point x="15" y="624"/>
			<point x="28" y="610"/>
			<point x="47" y="610" type="curve" smooth="yes"/>
			<point x="65" y="610"/>
			<point x="80" y="624"/>
		</contour>
		<contour>
			<point x="43" y="552" type="curve" smooth="yes"/>
			<point x="43" y="535"/>
			<point x="56" y="520"/>
			<point x="75" y="520" type="curve" smooth="yes"/>
			<point x="93" y="520"/>
			<point x="108" y="536"/>
			<point x="108" y="552" type="curve" smooth="yes"/>
			<point x="108" y="571"/>
			<point x="93" y="585"/>
			<point x="75" y="585" type="curve" smooth="yes"/>
			<point x="56" y="585"/>
			<point x="43" y="571"/>
		</contour>
		<contour>
			<point x="69" y="461" type="curve" smooth="yes"/>
			<point x="69" y="479"/>
			<point x="82" y="494"/>
			<point x="101" y="494" type="curve" smooth="yes"/>
			<point x="119" y="494"/>
			<point x="134" y="480"/>
			<point x="134" y="461" type="curve" smooth="yes"/>
			<point x="134" y="444"/>
			<point x="119" y="429"/>
			<point x="101" y="429" type="curve" smooth="yes"/>
			<point x="82" y="429"/>
			<point x="69" y="444"/>
		</contour>
		<contour>
			<point x="93" y="370" type="curve" smooth="yes"/>
			<point x="93" y="388"/>
			<point x="107" y="403"/>
			<point x="125" y="403" type="curve" smooth="yes"/>
			<point x="143" y="403"/>
			<point x="158" y="389"/>
			<point x="158" y="370" type="curve" smooth="yes"/>
			<point x="158" y="353"/>
			<point x="144" y="338"/>
			<point x="125" y="338" type="curve" smooth="yes"/>
			<point x="107" y="338"/>
			<point x="93" y="353"/>
		</contour>
		<contour>
			<point x="119" y="281" type="curve" smooth="yes"/>
			<point x="119" y="299"/>
			<point x="132" y="314"/>
			<point x="151" y="314" type="curve" smooth="yes"/>
			<point x="169" y="314"/>
			<point x="184" y="300"/>
			<point x="184" y="281" type="curve" smooth="yes"/>
			<point x="184" y="264"/>
			<point x="169" y="249"/>
			<point x="151" y="249" type="curve" smooth="yes"/>
			<point x="132" y="249"/>
			<point x="119" y="264"/>
		</contour>
		<contour>
			<point x="155" y="186" type="curve" smooth="yes"/>
			<point x="149" y="200"/>
			<point x="156" y="216"/>
			<point x="170" y="222" type="curve" smooth="yes"/>
			<point x="185" y="229"/>
			<point x="200" y="221"/>
			<point x="207" y="206" type="curve" smooth="yes"/>
			<point x="213" y="192"/>
			<point x="205" y="175"/>
			<point x="191" y="170" type="curve" smooth="yes"/>
			<point x="176" y="164"/>
			<point x="161" y="171"/>
		</contour>
		<contour>
			<point x="179" y="100" type="curve" smooth="yes"/>
			<point x="173" y="114"/>
			<point x="180" y="130"/>
			<point x="194" y="136" type="curve" smooth="yes"/>
			<point x="209" y="143"/>
			<point x="224" y="135"/>
			<point x="231" y="120" type="curve" smooth="yes"/>
			<point x="237" y="106"/>
			<point x="229" y="89"/>
			<point x="215" y="84" type="curve" smooth="yes"/>
			<point x="200" y="78"/>
			<point x="185" y="85"/>
		</contour>
		<contour>
			<point x="210" y="30" type="curve" smooth="yes"/>
			<point x="210" y="48"/>
			<point x="224" y="63"/>
			<point x="242" y="63" type="curve" smooth="yes"/>
			<point x="259" y="63"/>
			<point x="275" y="48"/>
			<point x="275" y="30" type="curve" smooth="yes"/>
			<point x="275" y="13"/>
			<point x="260" y="-2"/>
			<point x="242" y="-2" type="curve" smooth="yes"/>
			<point x="224" y="-2"/>
			<point x="210" y="13"/>
		</contour>
		<contour>
			<point x="258" y="120" type="curve" smooth="yes"/>
			<point x="265" y="135"/>
			<point x="280" y="143"/>
			<point x="295" y="136" type="curve" smooth="yes"/>
			<point x="309" y="130"/>
			<point x="316" y="114"/>
			<point x="310" y="100" type="curve" smooth="yes"/>
			<point x="304" y="85"/>
			<point x="289" y="78"/>
			<point x="274" y="84" type="curve" smooth="yes"/>
			<point x="260" y="89"/>
			<point x="252" y="106"/>
		</contour>
		<contour>
			<point x="277" y="206" type="curve" smooth="yes"/>
			<point x="284" y="221"/>
			<point x="299" y="229"/>
			<point x="314" y="222" type="curve" smooth="yes"/>
			<point x="328" y="216"/>
			<point x="335" y="200"/>
			<point x="329" y="186" type="curve" smooth="yes"/>
			<point x="323" y="171"/>
			<point x="308" y="164"/>
			<point x="293" y="170" type="curve" smooth="yes"/>
			<point x="279" y="175"/>
			<point x="271" y="192"/>
		</contour>
		<contour>
			<point x="291" y="284" type="curve" smooth="yes"/>
			<point x="291" y="303"/>
			<point x="306" y="317"/>
			<point x="324" y="317" type="curve" smooth="yes"/>
			<point x="343" y="317"/>
			<point x="356" y="302"/>
			<point x="356" y="284" type="curve" smooth="yes"/>
			<point x="356" y="267"/>
			<point x="343" y="252"/>
			<point x="324" y="252" type="curve" smooth="yes"/>
			<point x="306" y="252"/>
			<point x="291" y="267"/>
		</contour>
		<contour>
			<point x="312" y="373" type="curve" smooth="yes"/>
			<point x="312" y="392"/>
			<point x="327" y="406"/>
			<point x="345" y="406" type="curve" smooth="yes"/>
			<point x="363" y="406"/>
			<point x="377" y="391"/>
			<point x="377" y="373" type="curve" smooth="yes"/>
			<point x="377" y="356"/>
			<point x="363" y="341"/>
			<point x="345" y="341" type="curve" smooth="yes"/>
			<point x="326" y="341"/>
			<point x="312" y="356"/>
		</contour>
		<contour>
			<point x="331" y="464" type="curve" smooth="yes"/>
			<point x="331" y="483"/>
			<point x="346" y="497"/>
			<point x="364" y="497" type="curve" smooth="yes"/>
			<point x="383" y="497"/>
			<point x="396" y="482"/>
			<point x="396" y="464" type="curve" smooth="yes"/>
			<point x="396" y="447"/>
			<point x="383" y="432"/>
			<point x="364" y="432" type="curve" smooth="yes"/>
			<point x="346" y="432"/>
			<point x="331" y="447"/>
		</contour>
		<contour>
			<point x="365" y="564" type="curve" smooth="yes"/>
			<point x="372" y="579"/>
			<point x="387" y="587"/>
			<point x="402" y="580" type="curve" smooth="yes"/>
			<point x="416" y="574"/>
			<point x="423" y="558"/>
			<point x="417" y="544" type="curve" smooth="yes"/>
			<point x="411" y="529"/>
			<point x="396" y="522"/>
			<point x="381" y="528" type="curve" smooth="yes"/>
			<point x="367" y="533"/>
			<point x="359" y="550"/>
		</contour>
		<contour>
			<point x="393" y="642" type="curve" smooth="yes"/>
			<point x="393" y="624"/>
			<point x="406" y="610"/>
			<point x="425" y="610" type="curve" smooth="yes"/>
			<point x="443" y="610"/>
			<point x="458" y="624"/>
			<point x="458" y="642" type="curve" smooth="yes"/>
			<point x="458" y="660"/>
			<point x="443" y="674"/>
			<point x="425" y="674" type="curve" smooth="yes"/>
			<point x="406" y="675"/>
			<point x="393" y="660"/>
		</contour>
		<contour>
			<point x="429" y="544" type="curve" smooth="yes"/>
			<point x="423" y="558"/>
			<point x="430" y="574"/>
			<point x="444" y="580" type="curve" smooth="yes"/>
			<point x="459" y="587"/>
			<point x="474" y="579"/>
			<point x="481" y="564" type="curve" smooth="yes"/>
			<point x="487" y="550"/>
			<point x="479" y="533"/>
			<point x="465" y="528" type="curve" smooth="yes"/>
			<point x="450" y="522"/>
			<point x="435" y="529"/>
		</contour>
		<contour>
			<point x="450" y="464" type="curve" smooth="yes"/>
			<point x="450" y="482"/>
			<point x="463" y="497"/>
			<point x="482" y="497" type="curve" smooth="yes"/>
			<point x="500" y="497"/>
			<point x="515" y="483"/>
			<point x="515" y="464" type="curve" smooth="yes"/>
			<point x="515" y="447"/>
			<point x="500" y="432"/>
			<point x="482" y="432" type="curve" smooth="yes"/>
			<point x="463" y="432"/>
			<point x="450" y="447"/>
		</contour>
		<contour>
			<point x="469" y="373" type="curve" smooth="yes"/>
			<point x="469" y="391"/>
			<point x="483" y="406"/>
			<point x="501" y="406" type="curve" smooth="yes"/>
			<point x="519" y="406"/>
			<point x="534" y="392"/>
			<point x="534" y="373" type="curve" smooth="yes"/>
			<point x="534" y="356"/>
			<point x="520" y="341"/>
			<point x="501" y="341" type="curve" smooth="yes"/>
			<point x="483" y="341"/>
			<point x="469" y="356"/>
		</contour>
		<contour>
			<point x="490" y="284" type="curve" smooth="yes"/>
			<point x="490" y="302"/>
			<point x="503" y="317"/>
			<point x="522" y="317" type="curve" smooth="yes"/>
			<point x="540" y="317"/>
			<point x="555" y="303"/>
			<point x="555" y="284" type="curve" smooth="yes"/>
			<point x="555" y="267"/>
			<point x="540" y="252"/>
			<point x="522" y="252" type="curve" smooth="yes"/>
			<point x="503" y="252"/>
			<point x="490" y="267"/>
		</contour>
		<contour>
			<point x="517" y="186" type="curve" smooth="yes"/>
			<point x="511" y="200"/>
			<point x="518" y="216"/>
			<point x="532" y="222" type="curve" smooth="yes"/>
			<point x="547" y="229"/>
			<point x="562" y="221"/>
			<point x="569" y="206" type="curve" smooth="yes"/>
			<point x="575" y="192"/>
			<point x="567" y="175"/>
			<point x="553" y="170" type="curve" smooth="yes"/>
			<point x="538" y="164"/>
			<point x="523" y="171"/>
		</contour>
		<contour>
			<point x="536" y="100" type="curve" smooth="yes"/>
			<point x="530" y="114"/>
			<point x="537" y="130"/>
			<point x="551" y="136" type="curve" smooth="yes"/>
			<point x="566" y="143"/>
			<point x="581" y="135"/>
			<point x="588" y="120" type="curve" smooth="yes"/>
			<point x="594" y="106"/>
			<point x="586" y="89"/>
			<point x="572" y="84" type="curve" smooth="yes"/>
			<point x="557" y="78"/>
			<point x="542" y="85"/>
		</contour>
		<contour>
			<point x="576" y="30" type="curve" smooth="yes"/>
			<point x="576" y="48"/>
			<point x="592" y="63"/>
			<point x="609" y="63" type="curve" smooth="yes"/>
			<point x="627" y="63"/>
			<point x="641" y="48"/>
			<point x="641" y="30" type="curve" smooth="yes"/>
			<point x="641" y="13"/>
			<point x="627" y="-2"/>
			<point x="609" y="-2" type="curve" smooth="yes"/>
			<point x="591" y="-2"/>
			<point x="576" y="13"/>
		</contour>
		<contour>
			<point x="620" y="120" type="curve" smooth="yes"/>
			<point x="627" y="135"/>
			<point x="642" y="143"/>
			<point x="657" y="136" type="curve" smooth="yes"/>
			<point x="671" y="130"/>
			<point x="678" y="114"/>
			<point x="672" y="100" type="curve" smooth="yes"/>
			<point x="666" y="85"/>
			<point x="651" y="78"/>
			<point x="636" y="84" type="curve" smooth="yes"/>
			<point x="622" y="89"/>
			<point x="614" y="106"/>
		</contour>
		<contour>
			<point x="644" y="206" type="curve" smooth="yes"/>
			<point x="651" y="221"/>
			<point x="666" y="229"/>
			<point x="681" y="222" type="curve" smooth="yes"/>
			<point x="695" y="216"/>
			<point x="702" y="200"/>
			<point x="696" y="186" type="curve" smooth="yes"/>
			<point x="690" y="171"/>
			<point x="675" y="164"/>
			<point x="660" y="170" type="curve" smooth="yes"/>
			<point x="646" y="175"/>
			<point x="638" y="192"/>
		</contour>
		<contour>
			<point x="667" y="281" type="curve" smooth="yes"/>
			<point x="667" y="300"/>
			<point x="682" y="314"/>
			<point x="700" y="314" type="curve" smooth="yes"/>
			<point x="719" y="314"/>
			<point x="732" y="299"/>
			<point x="732" y="281" type="curve" smooth="yes"/>
			<point x="732" y="264"/>
			<point x="719" y="249"/>
			<point x="700" y="249" type="curve" smooth="yes"/>
			<point x="682" y="249"/>
			<point x="667" y="264"/>
		</contour>
		<contour>
			<point x="693" y="370" type="curve" smooth="yes"/>
			<point x="693" y="389"/>
			<point x="708" y="403"/>
			<point x="726" y="403" type="curve" smooth="yes"/>
			<point x="744" y="403"/>
			<point x="758" y="388"/>
			<point x="758" y="370" type="curve" smooth="yes"/>
			<point x="758" y="353"/>
			<point x="744" y="338"/>
			<point x="726" y="338" type="curve" smooth="yes"/>
			<point x="707" y="338"/>
			<point x="693" y="353"/>
		</contour>
		<contour>
			<point x="717" y="461" type="curve" smooth="yes"/>
			<point x="717" y="480"/>
			<point x="732" y="494"/>
			<point x="750" y="494" type="curve" smooth="yes"/>
			<point x="769" y="494"/>
			<point x="782" y="479"/>
			<point x="782" y="461" type="curve" smooth="yes"/>
			<point x="782" y="444"/>
			<point x="769" y="429"/>
			<point x="750" y="429" type="curve" smooth="yes"/>
			<point x="732" y="429"/>
			<point x="717" y="444"/>
		</contour>
		<contour>
			<point x="743" y="552" type="curve" smooth="yes"/>
			<point x="743" y="536"/>
			<point x="758" y="520"/>
			<point x="776" y="520" type="curve" smooth="yes"/>
			<point x="795" y="520"/>
			<point x="808" y="535"/>
			<point x="808" y="552" type="curve" smooth="yes"/>
			<point x="808" y="571"/>
			<point x="795" y="585"/>
			<point x="776" y="585" type="curve" smooth="yes"/>
			<point x="758" y="585"/>
			<point x="743" y="571"/>
		</contour>
		<contour>
			<point x="771" y="642" type="curve" smooth="yes"/>
			<point x="771" y="624"/>
			<point x="786" y="610"/>
			<point x="804" y="610" type="curve" smooth="yes"/>
			<point x="823" y="610"/>
			<point x="836" y="624"/>
			<point x="836" y="642" type="curve" smooth="yes"/>
			<point x="836" y="660"/>
			<point x="823" y="675"/>
			<point x="804" y="674" type="curve" smooth="yes"/>
			<point x="786" y="674"/>
			<point x="771" y="660"/>
		</contour>
	</outline>
</glyph>
<glyph name="X.ss01" format="2">
	<advance width="547"/>
	<note>
		X.ss01
	</note>
	<outline>
		<contour>
			<point x="100" y="645" type="curve" smooth="yes"/>
			<point x="100" y="626"/>
			<point x="85" y="612"/>
			<point x="67" y="612" type="curve" smooth="yes"/>
			<point x="48" y="612"/>
			<point x="35" y="627"/>
			<point x="35" y="645" type="curve" smooth="yes"/>
			<point x="35" y="662"/>
			<point x="48" y="677"/>
			<point x="67" y="677" type="curve" smooth="yes"/>
			<point x="85" y="677"/>
			<point x="100" y="662"/>
		</contour>
		<contour>
			<point x="15" y="32" type="curve" smooth="yes"/>
			<point x="15" y="50"/>
			<point x="28" y="65"/>
			<point x="47" y="65" type="curve" smooth="yes"/>
			<point x="65" y="65"/>
			<point x="80" y="51"/>
			<point x="80" y="32" type="curve" smooth="yes"/>
			<point x="80" y="15"/>
			<point x="65" y="0"/>
			<point x="47" y="0" type="curve" smooth="yes"/>
			<point x="28" y="0"/>
			<point x="15" y="15"/>
		</contour>
		<contour>
			<point x="69" y="97" type="curve" smooth="yes"/>
			<point x="69" y="80"/>
			<point x="82" y="65"/>
			<point x="101" y="65" type="curve" smooth="yes"/>
			<point x="119" y="65"/>
			<point x="134" y="81"/>
			<point x="134" y="97" type="curve" smooth="yes"/>
			<point x="134" y="116"/>
			<point x="119" y="130"/>
			<point x="101" y="130" type="curve" smooth="yes"/>
			<point x="82" y="130"/>
			<point x="69" y="116"/>
		</contour>
		<contour>
			<point x="88" y="571" type="curve" smooth="yes"/>
			<point x="88" y="552"/>
			<point x="101" y="538"/>
			<point x="120" y="538" type="curve" smooth="yes"/>
			<point x="138" y="538"/>
			<point x="153" y="552"/>
			<point x="153" y="571" type="curve" smooth="yes"/>
			<point x="153" y="587"/>
			<point x="138" y="603"/>
			<point x="120" y="603" type="curve" smooth="yes"/>
			<point x="101" y="603"/>
			<point x="88" y="588"/>
		</contour>
		<contour>
			<point x="116" y="170" type="curve" smooth="yes"/>
			<point x="116" y="152"/>
			<point x="129" y="138"/>
			<point x="148" y="138" type="curve" smooth="yes"/>
			<point x="166" y="138"/>
			<point x="181" y="152"/>
			<point x="181" y="170" type="curve" smooth="yes"/>
			<point x="181" y="188"/>
			<point x="166" y="202"/>
			<point x="148" y="203" type="curve" smooth="yes"/>
			<point x="129" y="203"/>
			<point x="116" y="188"/>
		</contour>
		<contour>
			<point x="137" y="495" type="curve" smooth="yes"/>
			<point x="137" y="477"/>
			<point x="150" y="462"/>
			<point x="169" y="462" type="curve" smooth="yes"/>
			<point x="187" y="463"/>
			<point x="202" y="477"/>
			<point x="202" y="495" type="curve" smooth="yes"/>
			<point x="202" y="513"/>
			<point x="187" y="527"/>
			<point x="169" y="527" type="curve" smooth="yes"/>
			<point x="150" y="527"/>
			<point x="137" y="513"/>
		</contour>
		<contour>
			<point x="164" y="237" type="curve" smooth="yes"/>
			<point x="164" y="253"/>
			<point x="176" y="265"/>
			<point x="192" y="265" type="curve" smooth="yes"/>
			<point x="208" y="265"/>
			<point x="220" y="253"/>
			<point x="220" y="237" type="curve" smooth="yes"/>
			<point x="220" y="222"/>
			<point x="208" y="209"/>
			<point x="192" y="209" type="curve" smooth="yes"/>
			<point x="176" y="209"/>
			<point x="164" y="221"/>
		</contour>
		<contour>
			<point x="189" y="422" type="curve" smooth="yes"/>
			<point x="188" y="439"/>
			<point x="201" y="453"/>
			<point x="218" y="453" type="curve" smooth="yes"/>
			<point x="235" y="453"/>
			<point x="248" y="440"/>
			<point x="249" y="423" type="curve" smooth="yes"/>
			<point x="249" y="406"/>
			<point x="236" y="393"/>
			<point x="219" y="393" type="curve" smooth="yes"/>
			<point x="202" y="393"/>
			<point x="189" y="405"/>
		</contour>
		<contour>
			<point x="206" y="299" type="curve" smooth="yes"/>
			<point x="206" y="315"/>
			<point x="218" y="327"/>
			<point x="234" y="327" type="curve" smooth="yes"/>
			<point x="250" y="327"/>
			<point x="262" y="315"/>
			<point x="262" y="299" type="curve" smooth="yes"/>
			<point x="262" y="284"/>
			<point x="250" y="271"/>
			<point x="234" y="271" type="curve" smooth="yes"/>
			<point x="218" y="271"/>
			<point x="206" y="283"/>
		</contour>
		<contour>
			<point x="243" y="363" type="curve" smooth="yes"/>
			<point x="243" y="379"/>
			<point x="255" y="391"/>
			<point x="271" y="391" type="curve" smooth="yes"/>
			<point x="287" y="391"/>
			<point x="299" y="378"/>
			<point x="299" y="363" type="curve" smooth="yes"/>
			<point x="299" y="347"/>
			<point x="287" y="335"/>
			<point x="271" y="335" type="curve" smooth="yes"/>
			<point x="255" y="335"/>
			<point x="243" y="347"/>
		</contour>
		<contour>
			<point x="285" y="299" type="curve" smooth="yes"/>
			<point x="285" y="315"/>
			<point x="297" y="327"/>
			<point x="313" y="327" type="curve" smooth="yes"/>
			<point x="329" y="327"/>
			<point x="341" y="315"/>
			<point x="341" y="299" type="curve" smooth="yes"/>
			<point x="341" y="283"/>
			<point x="329" y="271"/>
			<point x="313" y="271" type="curve" smooth="yes"/>
			<point x="297" y="271"/>
			<point x="285" y="284"/>
		</contour>
		<contour>
			<point x="292" y="423" type="curve" smooth="yes"/>
			<point x="293" y="440"/>
			<point x="306" y="453"/>
			<point x="323" y="453" type="curve" smooth="yes"/>
			<point x="340" y="453"/>
			<point x="353" y="439"/>
			<point x="352" y="422" type="curve" smooth="yes"/>
			<point x="352" y="405"/>
			<point x="339" y="393"/>
			<point x="322" y="393" type="curve" smooth="yes"/>
			<point x="305" y="393"/>
			<point x="292" y="406"/>
		</contour>
		<contour>
			<point x="327" y="237" type="curve" smooth="yes"/>
			<point x="327" y="253"/>
			<point x="339" y="265"/>
			<point x="355" y="265" type="curve" smooth="yes"/>
			<point x="371" y="265"/>
			<point x="383" y="253"/>
			<point x="383" y="237" type="curve" smooth="yes"/>
			<point x="383" y="221"/>
			<point x="371" y="209"/>
			<point x="355" y="209" type="curve" smooth="yes"/>
			<point x="339" y="209"/>
			<point x="327" y="222"/>
		</contour>
		<contour>
			<point x="339" y="495" type="curve" smooth="yes"/>
			<point x="339" y="477"/>
			<point x="354" y="463"/>
			<point x="372" y="462" type="curve" smooth="yes"/>
			<point x="391" y="462"/>
			<point x="404" y="477"/>
			<point x="404" y="495" type="curve" smooth="yes"/>
			<point x="404" y="513"/>
			<point x="391" y="527"/>
			<point x="372" y="527" type="curve" smooth="yes"/>
			<point x="354" y="527"/>
			<point x="339" y="513"/>
		</contour>
		<contour>
			<point x="366" y="170" type="curve" smooth="yes"/>
			<point x="366" y="152"/>
			<point x="381" y="138"/>
			<point x="399" y="138" type="curve" smooth="yes"/>
			<point x="418" y="138"/>
			<point x="431" y="152"/>
			<point x="431" y="170" type="curve" smooth="yes"/>
			<point x="431" y="188"/>
			<point x="418" y="203"/>
			<point x="399" y="203" type="curve" smooth="yes"/>
			<point x="381" y="202"/>
			<point x="366" y="188"/>
		</contour>
		<contour>
			<point x="388" y="571" type="curve" smooth="yes"/>
			<point x="388" y="552"/>
			<point x="403" y="538"/>
			<point x="421" y="538" type="curve" smooth="yes"/>
			<point x="440" y="538"/>
			<point x="453" y="552"/>
			<point x="453" y="571" type="curve" smooth="yes"/>
			<point x="453" y="588"/>
			<point x="440" y="603"/>
			<point x="421" y="603" type="curve" smooth="yes"/>
			<point x="403" y="603"/>
			<point x="388" y="587"/>
		</contour>
		<contour>
			<point x="413" y="97" type="curve" smooth="yes"/>
			<point x="413" y="81"/>
			<point x="428" y="65"/>
			<point x="446" y="65" type="curve" smooth="yes"/>
			<point x="465" y="65"/>
			<point x="478" y="80"/>
			<point x="478" y="97" type="curve" smooth="yes"/>
			<point x="478" y="116"/>
			<point x="465" y="130"/>
			<point x="446" y="130" type="curve" smooth="yes"/>
			<point x="428" y="130"/>
			<point x="413" y="116"/>
		</contour>
		<contour>
			<point x="441" y="645" type="curve" smooth="yes"/>
			<point x="441" y="662"/>
			<point x="456" y="677"/>
			<point x="474" y="677" type="curve" smooth="yes"/>
			<point x="493" y="677"/>
			<point x="506" y="662"/>
			<point x="506" y="645" type="curve" smooth="yes"/>
			<point x="506" y="627"/>
			<point x="493" y="612"/>
			<point x="474" y="612" type="curve" smooth="yes"/>
			<point x="456" y="612"/>
			<point x="441" y="626"/>
		</contour>
		<contour>
			<point x="467" y="32" type="curve" smooth="yes"/>
			<point x="467" y="51"/>
			<point x="482" y="65"/>
			<point x="500" y="65" type="curve" smooth="yes"/>
			<point x="519" y="65"/>
			<point x="532" y="50"/>
			<point x="532" y="32" type="curve" smooth="yes"/>
			<point x="532" y="15"/>
			<point x="519" y="0"/>
			<point x="500" y="0" type="curve" smooth="yes"/>
			<point x="482" y="0"/>
			<point x="467" y="15"/>
		</contour>
	</outline>
</glyph>
<glyph name="Y.ss01" format="2">
	<advance width="521"/>
	<note>
		Y.ss01
	</note>
	<outline>
		<contour>
			<point x="95" y="645" type="curve" smooth="yes"/>
			<point x="95" y="626"/>
			<point x="80" y="612"/>
			<point x="62" y="612" type="curve" smooth="yes"/>
			<point x="43" y="612"/>
			<point x="30" y="627"/>
			<point x="30" y="645" type="curve" smooth="yes"/>
			<point x="30" y="662"/>
			<point x="43" y="677"/>
			<point x="62" y="677" type="curve" smooth="yes"/>
			<point x="80" y="677"/>
			<point x="95" y="662"/>
		</contour>
		<contour>
			<point x="75" y="571" type="curve" smooth="yes"/>
			<point x="75" y="552"/>
			<point x="88" y="538"/>
			<point x="107" y="538" type="curve" smooth="yes"/>
			<point x="125" y="538"/>
			<point x="140" y="552"/>
			<point x="140" y="571" type="curve" smooth="yes"/>
			<point x="140" y="587"/>
			<point x="125" y="603"/>
			<point x="107" y="603" type="curve" smooth="yes"/>
			<point x="88" y="603"/>
			<point x="75" y="588"/>
		</contour>
		<contour>
			<point x="119" y="495" type="curve" smooth="yes"/>
			<point x="119" y="477"/>
			<point x="132" y="462"/>
			<point x="151" y="462" type="curve" smooth="yes"/>
			<point x="169" y="463"/>
			<point x="184" y="477"/>
			<point x="184" y="495" type="curve" smooth="yes"/>
			<point x="184" y="513"/>
			<point x="169" y="527"/>
			<point x="151" y="527" type="curve" smooth="yes"/>
			<point x="132" y="527"/>
			<point x="119" y="513"/>
		</contour>
		<contour>
			<point x="162" y="425" type="curve" smooth="yes"/>
			<point x="161" y="442"/>
			<point x="174" y="456"/>
			<point x="191" y="456" type="curve" smooth="yes"/>
			<point x="208" y="456"/>
			<point x="221" y="443"/>
			<point x="222" y="426" type="curve" smooth="yes"/>
			<point x="222" y="409"/>
			<point x="209" y="396"/>
			<point x="192" y="396" type="curve" smooth="yes"/>
			<point x="175" y="396"/>
			<point x="162" y="408"/>
		</contour>
		<contour>
			<point x="204" y="361" type="curve" smooth="yes"/>
			<point x="204" y="376"/>
			<point x="216" y="389"/>
			<point x="232" y="389" type="curve" smooth="yes"/>
			<point x="248" y="389"/>
			<point x="260" y="377"/>
			<point x="260" y="361" type="curve" smooth="yes"/>
			<point x="260" y="345"/>
			<point x="248" y="333"/>
			<point x="232" y="333" type="curve" smooth="yes"/>
			<point x="216" y="333"/>
			<point x="204" y="345"/>
		</contour>
		<contour>
			<point x="238" y="33" type="curve" smooth="yes"/>
			<point x="238" y="15"/>
			<point x="253" y="1"/>
			<point x="271" y="0" type="curve" smooth="yes"/>
			<point x="290" y="0"/>
			<point x="303" y="15"/>
			<point x="303" y="33" type="curve" smooth="yes"/>
			<point x="303" y="51"/>
			<point x="290" y="65"/>
			<point x="271" y="65" type="curve" smooth="yes"/>
			<point x="253" y="65"/>
			<point x="238" y="51"/>
		</contour>
		<contour>
			<point x="238" y="120" type="curve" smooth="yes"/>
			<point x="238" y="101"/>
			<point x="253" y="87"/>
			<point x="271" y="87" type="curve" smooth="yes"/>
			<point x="290" y="87"/>
			<point x="303" y="101"/>
			<point x="303" y="120" type="curve" smooth="yes"/>
			<point x="303" y="137"/>
			<point x="290" y="152"/>
			<point x="271" y="152" type="curve" smooth="yes"/>
			<point x="253" y="152"/>
			<point x="238" y="136"/>
		</contour>
		<contour>
			<point x="238" y="207" type="curve" smooth="yes"/>
			<point x="238" y="224"/>
			<point x="253" y="239"/>
			<point x="271" y="239" type="curve" smooth="yes"/>
			<point x="290" y="239"/>
			<point x="303" y="224"/>
			<point x="303" y="207" type="curve" smooth="yes"/>
			<point x="303" y="189"/>
			<point x="290" y="174"/>
			<point x="271" y="174" type="curve" smooth="yes"/>
			<point x="253" y="174"/>
			<point x="238" y="188"/>
		</contour>
		<contour>
			<point x="238" y="294" type="curve" smooth="yes"/>
			<point x="238" y="311"/>
			<point x="252" y="326"/>
			<point x="271" y="326" type="curve" smooth="yes"/>
			<point x="289" y="326"/>
			<point x="303" y="311"/>
			<point x="303" y="294" type="curve" smooth="yes"/>
			<point x="303" y="276"/>
			<point x="289" y="261"/>
			<point x="271" y="261" type="curve" smooth="yes"/>
			<point x="253" y="261"/>
			<point x="238" y="275"/>
		</contour>
		<contour>
			<point x="281" y="361" type="curve" smooth="yes"/>
			<point x="281" y="377"/>
			<point x="293" y="389"/>
			<point x="309" y="389" type="curve" smooth="yes"/>
			<point x="325" y="389"/>
			<point x="337" y="376"/>
			<point x="337" y="361" type="curve" smooth="yes"/>
			<point x="337" y="345"/>
			<point x="325" y="333"/>
			<point x="309" y="333" type="curve" smooth="yes"/>
			<point x="293" y="333"/>
			<point x="281" y="345"/>
		</contour>
		<contour>
			<point x="319" y="426" type="curve" smooth="yes"/>
			<point x="320" y="443"/>
			<point x="333" y="456"/>
			<point x="350" y="456" type="curve" smooth="yes"/>
			<point x="367" y="456"/>
			<point x="380" y="442"/>
			<point x="379" y="425" type="curve" smooth="yes"/>
			<point x="379" y="408"/>
			<point x="366" y="396"/>
			<point x="349" y="396" type="curve" smooth="yes"/>
			<point x="332" y="396"/>
			<point x="319" y="409"/>
		</contour>
		<contour>
			<point x="357" y="495" type="curve" smooth="yes"/>
			<point x="357" y="477"/>
			<point x="372" y="463"/>
			<point x="390" y="462" type="curve" smooth="yes"/>
			<point x="409" y="462"/>
			<point x="422" y="477"/>
			<point x="422" y="495" type="curve" smooth="yes"/>
			<point x="422" y="513"/>
			<point x="409" y="527"/>
			<point x="390" y="527" type="curve" smooth="yes"/>
			<point x="372" y="527"/>
			<point x="357" y="513"/>
		</contour>
		<contour>
			<point x="401" y="571" type="curve" smooth="yes"/>
			<point x="401" y="552"/>
			<point x="416" y="538"/>
			<point x="434" y="538" type="curve" smooth="yes"/>
			<point x="453" y="538"/>
			<point x="466" y="552"/>
			<point x="466" y="571" type="curve" smooth="yes"/>
			<point x="466" y="588"/>
			<point x="453" y="603"/>
			<point x="434" y="603" type="curve" smooth="yes"/>
			<point x="416" y="603"/>
			<point x="401" y="587"/>
		</contour>
		<contour>
			<point x="446" y="645" type="curve" smooth="yes"/>
			<point x="446" y="662"/>
			<point x="461" y="677"/>
			<point x="479" y="677" type="curve" smooth="yes"/>
			<point x="498" y="677"/>
			<point x="511" y="662"/>
			<point x="511" y="645" type="curve" smooth="yes"/>
			<point x="511" y="627"/>
			<point x="498" y="612"/>
			<point x="479" y="612" type="curve" smooth="yes"/>
			<point x="461" y="612"/>
			<point x="446" y="626"/>
		</contour>
	</outline>
</glyph>
<glyph name="a.ornm" format="2">
	<advance width="786"/>
	<note>
		a.ornm
	</note>
	<outline>
		<contour>
			<point x="677" y="291" type="curve" smooth="yes"/>
			<point x="474" y="399" type="line"/>
			<point x="465" y="316" type="line"/>
			<point x="458" y="316" type="line"/>
			<point x="457" y="416" type="line"/>
			<point x="441" y="624" type="line"/>
			<point x="436" y="661"/>
			<point x="422" y="700"/>
			<point x="390" y="700" type="curve" smooth="yes"/>
			<point x="362" y="700"/>
			<point x="342" y="660"/>
			<point x="339" y="623" type="curve" smooth="yes"/>
			<point x="324" y="418" type="line"/>
			<point x="323" y="316" type="line"/>
			<point x="319" y="316" type="line"/>
			<point x="306" y="399" type="line"/>
			<point x="108" y="291" type="line" smooth="yes"/>
			<point x="101" y="287"/>
			<point x="98" y="280"/>
			<point x="102" y="272" type="curve" smooth="yes"/>
			<point x="111" y="255" type="line" smooth="yes"/>
			<point x="118" y="242"/>
			<point x="132" y="233"/>
			<point x="145" y="236" type="curve" smooth="yes"/>
			<point x="338" y="276" type="line"/>
			<point x="354" y="112" type="line"/>
			<point x="280" y="37" type="line"/>
			<point x="280" y="0" type="line"/>
			<point x="392" y="41" type="line"/>
			<point x="505" y="0" type="line"/>
			<point x="505" y="37" type="line"/>
			<point x="432" y="111" type="line"/>
			<point x="448" y="276" type="line"/>
			<point x="641" y="236" type="line" smooth="yes"/>
			<point x="654" y="233"/>
			<point x="668" y="242"/>
			<point x="675" y="255" type="curve" smooth="yes"/>
			<point x="684" y="272" type="line" smooth="yes"/>
			<point x="688" y="280"/>
			<point x="684" y="287"/>
		</contour>
	</outline>
</glyph>
<glyph name="b.ornm" format="2">
	<advance width="689"/>
	<note>
		b.ornm
	</note>
	<outline>
		<contour>
			<point x="100" y="304" type="curve" smooth="yes"/>
			<point x="100" y="46" type="line" smooth="yes"/>
			<point x="100" y="20"/>
			<point x="120" y="0"/>
			<point x="146" y="0" type="curve" smooth="yes"/>
			<point x="543" y="0" type="line" smooth="yes"/>
			<point x="569" y="0"/>
			<point x="589" y="20"/>
			<point x="589" y="46" type="curve" smooth="yes"/>
			<point x="589" y="304" type="line" smooth="yes"/>
			<point x="589" y="330"/>
			<point x="569" y="350"/>
			<point x="543" y="350" type="curve" smooth="yes"/>
			<point x="441" y="350" type="line"/>
			<point x="472" y="366" type="line"/>
			<point x="472" y="451" type="line" smooth="yes"/>
			<point x="472" y="477"/>
			<point x="449" y="500"/>
			<point x="423" y="500" type="curve" smooth="yes"/>
			<point x="266" y="500" type="line" smooth="yes"/>
			<point x="240" y="500"/>
			<point x="217" y="477"/>
			<point x="217" y="451" type="curve" smooth="yes"/>
			<point x="217" y="366" type="line"/>
			<point x="247" y="350" type="line"/>
			<point x="146" y="350" type="line" smooth="yes"/>
			<point x="120" y="350"/>
			<point x="100" y="330"/>
		</contour>
		<contour>
			<point x="430" y="350" type="line"/>
			<point x="260" y="350" type="line"/>
			<point x="260" y="452" type="line"/>
			<point x="430" y="452" type="line"/>
		</contour>
	</outline>
</glyph>
<glyph name="c.ornm" format="2">
	<advance width="572"/>
	<note>
		c.ornm
	</note>
	<outline>
		<contour>
			<point x="168" y="660" type="curve" smooth="yes"/>
			<point x="168" y="508" type="line"/>
			<point x="160" y="508" type="line" smooth="yes"/>
			<point x="126" y="508"/>
			<point x="100" y="482"/>
			<point x="100" y="449" type="curve" smooth="yes"/>
			<point x="100" y="95" type="line" smooth="yes"/>
			<point x="100" y="62"/>
			<point x="126" y="37"/>
			<point x="160" y="37" type="curve" smooth="yes"/>
			<point x="184" y="37" type="line"/>
			<point x="184" y="1" type="line"/>
			<point x="232" y="1" type="line"/>
			<point x="232" y="37" type="line"/>
			<point x="348" y="37" type="line"/>
			<point x="348" y="1" type="line"/>
			<point x="397" y="1" type="line"/>
			<point x="397" y="37" type="line"/>
			<point x="412" y="37" type="line" smooth="yes"/>
			<point x="445" y="37"/>
			<point x="472" y="62"/>
			<point x="472" y="95" type="curve" smooth="yes"/>
			<point x="472" y="449" type="line" smooth="yes"/>
			<point x="472" y="482"/>
			<point x="445" y="508"/>
			<point x="412" y="508" type="curve" smooth="yes"/>
			<point x="403" y="508" type="line"/>
			<point x="403" y="660" type="line" smooth="yes"/>
			<point x="403" y="683"/>
			<point x="387" y="700"/>
			<point x="365" y="700" type="curve" smooth="yes"/>
			<point x="208" y="700" type="line" smooth="yes"/>
			<point x="185" y="700"/>
			<point x="168" y="683"/>
		</contour>
		<contour>
			<point x="365" y="508" type="line"/>
			<point x="207" y="508" type="line"/>
			<point x="208" y="640" type="line"/>
			<point x="365" y="640" type="line"/>
		</contour>
	</outline>
</glyph>
